{"glyphs":{"0":{"ha":579,"x_min":-1,"x_max":508,"o":"m 254 914 q 126 871 176 914 q 48 763 76 828 q 9 626 19 699 q -1 492 -1 553 q 15 312 -1 400 q 63 154 32 224 q 139 42 94 85 q 240 -1 183 -1 q 254 1 246 -1 q 267 -1 263 -1 q 368 42 324 -1 q 444 154 413 85 q 492 312 475 224 q 508 492 508 400 q 486 689 508 608 q 427 819 464 769 q 345 892 390 869 q 254 914 300 914 m 394 188 q 374 147 386 169 q 347 105 363 125 q 310 72 331 85 q 267 58 290 58 q 254 56 263 58 q 240 58 246 58 q 171 94 204 58 q 113 189 138 129 q 73 327 88 249 q 58 492 58 406 q 66 599 58 538 q 95 718 74 661 q 155 815 117 775 q 254 854 193 854 q 345 821 308 854 q 405 735 382 788 q 438 619 428 683 q 449 492 449 554 q 435 329 449 408 q 394 188 421 250 "},"1":{"ha":267,"x_min":-3,"x_max":200,"o":"m 165 914 q 151 911 160 914 q 136 901 143 908 q 131 894 133 899 q 125 886 128 890 q 84 854 110 871 q 26 836 58 838 q 6 826 14 835 q -1 804 -3 817 q 9 783 0 792 q 31 776 18 775 q 69 783 50 778 q 103 797 88 789 q 84 509 88 697 q 88 42 81 321 l 88 36 q 97 15 88 24 q 118 7 106 7 q 140 16 131 7 q 147 38 149 25 l 147 43 q 148 603 139 404 q 174 849 157 803 q 184 860 181 856 q 189 865 188 864 q 193 897 200 879 q 165 914 183 914 "},"2":{"ha":471,"x_min":-1,"x_max":415,"o":"m 225 914 q 123 878 168 914 q 60 785 78 843 q 63 672 42 726 q 138 581 83 617 q 154 575 144 575 q 179 589 169 575 q 184 610 186 599 q 171 629 182 622 q 119 691 133 654 q 117 768 106 728 q 158 830 128 806 q 225 854 189 854 q 308 822 281 854 q 336 639 353 771 q 299 521 331 588 q 227 386 268 454 q 142 254 186 318 q 64 144 97 190 q 30 97 43 115 q 10 67 17 78 q 1 49 3 56 q -1 38 -1 43 q 7 15 -1 26 q 29 7 15 7 l 343 7 q 365 16 356 7 q 374 38 374 25 q 365 58 374 49 q 343 67 356 67 l 82 67 q 97 88 89 78 q 113 110 106 99 q 196 227 150 161 q 284 364 242 293 q 358 504 326 435 q 396 632 389 574 q 353 863 415 792 q 225 914 307 914 "},"3":{"ha":542,"x_min":-3,"x_max":471,"o":"m 271 551 q 326 583 300 564 q 371 627 351 601 q 401 685 390 653 q 413 760 413 718 q 399 829 413 800 q 363 877 385 858 q 313 905 342 896 q 256 914 285 914 q 195 902 222 914 q 149 872 168 890 q 117 829 129 853 q 101 782 106 806 q 113 699 94 736 q 169 649 131 663 q 181 647 174 647 q 208 667 201 647 q 207 690 213 679 q 190 706 201 701 q 164 732 169 713 q 161 771 158 751 q 190 828 167 801 q 256 854 214 854 q 283 851 267 854 q 314 839 299 849 q 340 810 329 829 q 351 760 351 792 q 334 683 351 714 q 291 632 317 653 q 235 600 265 611 q 177 584 204 589 q 131 578 150 579 q 110 576 113 576 q 90 568 99 576 q 81 547 81 560 q 90 526 81 535 q 110 517 99 517 q 150 515 122 517 q 211 506 178 513 q 280 484 244 499 q 344 444 315 469 q 392 380 374 418 q 411 288 411 342 q 391 167 411 213 q 340 98 371 122 q 276 66 310 74 q 215 58 243 58 q 152 72 181 58 q 103 106 124 85 q 70 154 82 128 q 58 207 58 181 q 133 319 58 281 q 148 337 144 325 q 146 360 151 349 q 119 376 138 376 q 106 372 113 376 q 25 302 53 344 q -1 207 -3 260 q 15 132 -1 169 q 59 65 31 94 q 128 17 88 35 q 215 -1 168 -1 q 281 6 238 -1 q 366 43 324 14 q 440 130 408 72 q 471 288 471 188 q 456 385 471 342 q 413 460 440 428 q 349 515 386 493 q 271 551 313 538 "},"4":{"ha":490,"x_min":-1,"x_max":419,"o":"m 417 660 q 408 681 417 672 q 386 690 399 690 q 366 682 375 690 q 357 661 357 674 q 356 545 356 610 q 356 413 356 481 l 83 413 l 104 442 q 176 540 136 485 q 251 655 215 596 q 315 772 288 714 q 349 879 342 831 q 344 901 351 892 q 324 914 336 911 q 301 908 311 914 q 290 889 292 903 q 257 790 283 846 q 195 678 231 735 q 122 569 160 622 q 57 478 85 517 q 26 435 38 451 q 9 410 15 419 q 1 394 3 400 q -1 383 -1 389 q 7 361 -1 372 q 29 353 15 353 l 356 353 q 356 238 356 293 q 358 140 357 183 q 359 68 358 96 q 360 36 360 40 q 369 15 360 24 q 390 7 378 7 q 411 16 403 7 q 419 38 419 25 q 419 77 419 43 q 418 164 418 111 q 417 282 418 217 q 416 415 417 347 q 416 546 415 482 q 417 660 417 610 "},"5":{"ha":542,"x_min":-3,"x_max":471,"o":"m 258 854 l 442 854 q 463 863 454 854 q 471 885 471 872 q 463 905 471 896 q 442 914 454 914 l 233 914 q 214 907 222 914 q 204 889 206 900 q 183 795 196 839 q 156 715 171 751 q 126 648 142 678 q 100 596 111 618 q 88 575 93 585 q 81 558 83 565 q 80 536 75 547 q 96 519 85 525 q 110 517 104 517 q 150 515 122 517 q 211 506 178 513 q 280 484 244 499 q 344 444 315 469 q 392 380 374 418 q 411 288 411 342 q 391 167 411 213 q 340 98 371 122 q 276 66 310 74 q 215 58 243 58 q 152 72 181 58 q 103 106 124 85 q 70 154 82 128 q 58 207 58 181 q 133 319 58 281 q 148 337 144 325 q 146 360 151 349 q 119 376 138 376 q 106 372 113 376 q 25 302 53 344 q -1 207 -3 260 q 15 132 -1 169 q 59 65 31 94 q 128 17 88 35 q 215 -1 168 -1 q 281 6 238 -1 q 366 43 324 14 q 440 130 408 72 q 471 288 471 188 q 444 413 471 361 q 372 499 417 465 q 270 552 326 533 q 156 575 214 571 q 210 689 179 618 q 258 854 242 760 "},"6":{"ha":551,"x_min":-8,"x_max":481,"o":"m 481 288 q 465 392 481 342 q 421 479 450 442 q 348 539 392 517 q 246 561 304 561 q 103 524 176 561 q 204 706 138 618 q 374 858 271 794 q 388 877 385 865 q 383 900 390 889 q 357 914 374 914 q 342 910 349 914 q 169 756 244 847 q 50 554 94 665 q 1 355 10 454 q 15 174 -8 256 q 94 44 39 90 q 224 -1 149 -1 q 264 1 239 -1 q 317 14 289 4 q 375 42 346 24 q 428 93 404 61 q 466 173 451 125 q 481 288 481 221 m 224 58 q 163 71 189 58 q 119 102 138 83 q 90 144 101 121 q 72 190 79 168 q 59 308 58 242 q 78 447 60 374 q 97 451 92 447 q 247 501 175 501 q 324 483 292 501 q 378 435 357 465 q 410 367 400 406 q 421 288 421 328 q 401 167 421 213 q 350 98 381 122 q 285 66 319 74 q 224 58 251 58 "},"7":{"ha":406,"x_min":-3,"x_max":453,"o":"m 432 857 q 449 890 453 867 q 438 908 446 901 q 419 914 431 914 q 399 908 408 914 q 314 888 378 901 q 143 875 250 875 q 31 879 92 875 q 9 873 18 879 q -1 853 0 867 q 6 831 -3 840 q 26 819 14 821 q 144 815 92 815 q 256 820 207 815 q 339 832 304 825 q 277 703 311 781 q 208 541 243 626 q 142 369 174 456 q 85 210 110 282 q 44 92 60 139 q 29 36 29 44 q 38 15 29 24 q 60 7 47 7 q 79 15 71 7 q 89 35 88 24 q 105 90 92 49 q 138 188 118 131 q 184 313 158 244 q 238 451 210 381 q 293 590 265 522 q 347 713 321 658 q 392 806 372 768 q 425 854 413 843 q 432 857 433 857 "},"8":{"ha":593,"x_min":-1,"x_max":535,"o":"m 313 528 q 306 531 310 531 q 300 535 303 532 q 307 539 303 538 q 314 543 311 540 q 372 576 344 560 q 422 615 400 593 q 458 664 444 636 q 474 731 472 692 q 463 797 476 764 q 422 858 449 831 q 294 914 371 914 q 185 890 226 914 q 121 842 143 867 q 81 772 92 808 q 74 711 71 735 q 113 612 81 653 q 189 538 144 571 q 185 535 188 538 q 122 486 156 514 q 62 423 89 458 q 17 344 35 388 q -1 249 -1 301 q 69 65 -1 132 q 263 -1 140 -1 q 289 1 267 -1 q 342 11 311 3 q 406 37 372 19 q 467 85 439 54 q 519 292 535 163 q 494 368 514 335 q 445 430 474 401 q 383 482 417 458 q 313 528 349 506 m 133 719 q 138 753 131 729 q 167 803 144 778 q 294 854 211 854 q 379 817 344 854 q 406 776 397 799 q 414 733 415 754 q 379 656 411 683 q 285 596 347 629 q 265 584 275 589 q 244 572 256 579 q 170 638 200 603 q 133 719 140 672 m 422 125 q 383 92 404 106 q 339 72 361 79 q 297 61 317 64 q 263 58 276 58 q 112 108 165 58 q 58 249 58 157 q 97 370 58 313 q 219 486 136 428 q 231 494 225 490 q 242 501 236 497 q 261 489 251 494 q 281 476 271 483 q 343 435 313 456 q 398 392 374 415 q 439 343 422 369 q 460 283 456 317 q 422 125 472 182 "},"9":{"ha":551,"x_min":-1,"x_max":488,"o":"m 256 914 q 215 911 240 914 q 162 899 190 908 q 104 870 133 889 q 51 819 75 851 q 13 740 28 788 q -1 625 -1 692 q 14 522 -1 571 q 58 434 29 472 q 131 374 88 396 q 232 351 175 351 q 376 389 304 351 q 274 208 340 296 q 106 54 208 119 q 92 35 94 47 q 96 13 89 24 q 121 -1 106 -1 q 138 3 129 -1 q 310 156 235 65 q 429 358 385 247 q 478 558 469 458 q 464 739 488 657 q 385 868 440 822 q 256 914 331 914 m 401 465 q 382 461 388 465 q 232 411 306 411 q 155 429 188 411 q 101 477 122 447 q 69 546 79 507 q 58 625 58 585 q 78 745 58 700 q 129 815 99 790 q 194 847 160 839 q 256 854 228 854 q 316 842 290 854 q 359 810 342 829 q 388 768 376 792 q 406 722 400 744 q 420 605 421 671 q 401 465 419 539 "},"\u0000":{"ha":0,"x_min":0,"x_max":0,"o":""},"\r":{"ha":347,"x_min":0,"x_max":0,"o":""}," ":{"ha":451,"x_min":0,"x_max":0,"o":""},"\n":{"ha":0,"x_min":0,"x_max":0,"o":""},"!":{"ha":217,"x_min":68,"x_max":146,"o":"m 107 -1 q 128 8 119 -1 q 136 29 136 17 l 136 889 q 128 910 136 901 q 107 918 119 918 q 85 910 94 918 q 76 889 76 901 l 76 29 q 85 8 76 17 q 107 -1 94 -1 m 107 -153 q 134 -140 122 -153 q 146 -108 146 -126 q 134 -76 146 -89 q 107 -62 122 -62 q 80 -76 92 -62 q 68 -108 68 -89 q 80 -140 68 -126 q 107 -153 92 -153 "},"#":{"ha":1222,"x_min":68,"x_max":1151,"o":"m 68 306 q 77 284 68 293 q 99 275 86 275 l 324 275 q 272 133 296 200 q 230 15 247 67 q 203 -70 213 -37 q 194 -110 194 -103 q 203 -131 194 -122 q 224 -139 211 -139 l 225 -139 q 244 -131 236 -139 q 254 -111 253 -122 q 268 -61 257 -97 q 297 26 279 -25 q 337 142 314 78 q 386 275 360 206 l 721 275 q 669 133 693 200 q 627 15 644 67 q 601 -70 610 -37 q 592 -110 592 -103 q 600 -131 592 -122 q 621 -139 608 -139 l 622 -139 q 642 -131 633 -139 q 651 -111 650 -122 q 665 -61 654 -97 q 693 26 675 -25 q 734 142 711 78 q 783 275 757 206 l 996 275 q 1016 284 1007 275 q 1025 306 1025 293 q 1016 326 1025 318 q 996 335 1007 335 l 806 335 q 854 459 829 397 q 904 581 879 521 l 1121 581 q 1142 590 1133 581 q 1151 610 1151 599 q 1142 631 1151 622 q 1121 640 1133 640 l 929 640 q 977 749 954 699 q 1020 840 1000 800 q 1056 905 1040 879 q 1083 938 1072 931 q 1101 947 1094 939 q 1108 967 1108 956 q 1099 988 1108 979 q 1078 996 1090 996 q 1036 975 1057 996 q 960 852 1006 943 q 864 640 914 761 l 532 640 q 580 749 557 699 q 623 840 603 800 q 659 905 643 879 q 686 938 675 931 q 704 947 697 939 q 711 967 711 956 q 702 988 711 979 q 682 996 693 996 q 639 975 660 996 q 563 852 608 943 q 467 640 518 761 l 224 640 q 203 631 211 640 q 194 610 194 622 q 203 590 194 599 q 224 581 211 581 l 442 581 q 393 458 417 519 q 346 335 369 397 l 99 335 q 77 326 86 335 q 68 306 68 318 m 410 335 q 458 459 433 397 q 507 581 482 521 l 839 581 q 790 458 814 519 q 743 335 767 397 l 410 335 "},"$":{"ha":711,"x_min":65,"x_max":640,"o":"m 278 426 q 180 387 221 415 q 113 319 139 358 q 76 235 86 281 q 69 146 65 190 q 90 67 74 106 q 135 -3 106 28 q 206 -53 164 -33 q 304 -75 249 -74 l 304 -118 q 313 -139 304 -131 q 333 -147 321 -147 q 355 -139 346 -147 q 364 -118 364 -131 l 364 -72 q 493 -37 440 -65 q 578 29 546 -10 q 626 115 611 68 q 640 207 640 161 q 619 313 640 268 q 564 391 597 357 q 488 451 531 425 q 404 500 446 478 q 383 512 393 507 q 364 522 374 517 l 364 613 q 396 599 378 604 q 439 593 414 593 q 519 610 485 593 q 578 653 554 626 q 613 715 601 681 q 625 786 625 750 q 609 868 625 831 q 565 932 593 906 q 500 973 538 958 q 418 988 463 988 q 364 983 389 988 l 364 1060 q 355 1081 364 1072 q 333 1089 346 1089 q 313 1081 321 1089 q 304 1060 304 1072 l 304 969 q 185 882 228 942 q 142 735 142 822 q 155 651 142 688 q 190 585 168 614 q 242 532 213 556 q 304 489 272 508 l 304 419 q 285 428 293 428 q 281 427 282 428 q 278 426 281 426 m 364 -12 l 364 454 q 369 451 367 453 q 375 447 372 450 q 452 403 415 425 q 517 353 489 381 q 563 290 546 325 q 581 207 581 256 q 563 114 581 153 q 515 49 544 75 q 445 8 485 22 q 364 -12 406 -7 m 129 151 q 133 219 126 185 q 160 284 140 254 q 211 337 179 314 q 289 368 243 360 q 304 376 299 371 l 304 -14 q 228 3 260 -12 q 175 42 196 18 q 143 94 154 65 q 129 151 132 124 m 364 839 l 364 922 q 418 926 389 926 q 524 890 483 926 q 565 786 565 853 q 558 738 565 763 q 535 695 550 714 q 496 665 519 676 q 439 653 472 653 q 382 675 400 653 q 364 717 367 690 l 364 738 q 380 776 367 757 q 425 794 393 794 q 447 803 438 794 q 456 825 456 813 q 447 846 456 838 q 425 854 438 854 q 364 839 390 854 m 304 560 q 231 632 260 592 q 201 735 201 672 q 228 839 201 796 q 304 904 256 882 l 304 742 q 303 726 303 736 q 303 722 303 724 q 304 717 304 719 l 304 560 "},"%":{"ha":950,"x_min":68,"x_max":879,"o":"m 740 869 q 740 899 750 885 q 714 914 732 914 q 676 896 694 914 q 611 786 649 867 q 552 716 585 753 q 481 645 519 679 q 399 584 442 611 q 313 543 357 557 q 317 552 315 547 q 322 564 319 557 q 345 644 338 600 q 353 733 353 688 q 315 899 353 838 q 211 960 278 960 q 140 937 168 960 q 97 880 113 914 q 74 806 81 846 q 68 733 68 767 q 74 653 68 699 q 97 568 81 608 q 141 500 113 528 q 215 472 169 472 q 226 472 221 472 q 238 471 232 471 q 394 512 319 471 q 532 611 469 553 q 457 422 494 519 q 390 240 419 324 q 342 101 360 157 q 324 36 324 44 q 333 15 325 24 q 354 7 342 7 q 375 15 367 7 q 383 35 383 24 q 401 94 386 50 q 438 201 415 139 q 488 337 460 263 q 545 485 515 411 q 604 629 575 560 q 658 750 633 699 q 716 832 694 799 q 740 869 738 865 m 293 733 q 290 683 293 717 q 276 616 286 650 q 251 556 267 582 q 211 531 236 531 q 204 532 208 532 q 178 548 192 532 q 153 591 164 564 q 135 655 142 618 q 128 733 128 692 q 131 781 128 753 q 142 836 133 810 q 168 881 151 863 q 211 900 185 900 q 250 885 235 900 q 275 845 265 869 q 289 792 285 821 q 293 733 293 763 m 738 458 q 629 392 669 458 q 601 308 608 356 q 595 210 593 260 q 609 113 597 160 q 639 33 621 67 q 681 -15 658 0 q 744 -29 704 -29 q 810 1 785 -29 q 851 72 836 31 q 873 158 867 114 q 879 232 879 203 q 842 397 879 336 q 738 458 804 458 m 819 232 q 816 182 819 215 q 803 115 813 149 q 778 55 793 81 q 738 29 763 29 q 710 40 722 29 q 692 64 699 51 q 667 130 676 90 q 655 211 657 169 q 659 293 653 253 q 682 361 665 333 q 738 399 703 399 q 776 383 761 399 q 801 344 792 368 q 815 290 811 319 q 819 232 819 261 "},"&":{"ha":867,"x_min":68,"x_max":796,"o":"m 778 193 q 782 236 782 214 q 766 315 782 276 q 719 385 750 354 q 641 435 688 415 q 535 454 594 454 q 513 445 522 454 q 504 424 504 436 q 513 403 504 411 q 535 394 522 394 q 615 381 581 394 q 674 344 650 367 q 710 293 697 321 q 722 236 722 265 q 717 199 722 214 q 587 235 646 207 q 481 306 528 263 q 401 407 435 350 q 346 528 367 464 q 357 533 351 531 q 368 538 363 535 q 437 571 403 554 q 497 610 471 588 q 540 664 524 633 q 556 738 556 694 q 543 820 556 786 q 510 875 531 854 q 463 905 489 896 q 411 914 438 914 q 301 853 342 914 q 260 688 260 792 q 275 560 260 628 q 199 513 236 539 q 132 447 161 486 q 85 356 103 408 q 68 231 68 303 q 106 96 68 146 q 197 20 144 46 q 308 -13 250 -6 q 403 -21 365 -21 q 634 25 547 -21 q 756 136 721 71 q 783 141 771 136 q 796 165 796 146 q 790 183 796 175 q 778 193 785 190 m 411 854 q 474 824 451 854 q 496 738 496 794 q 485 691 496 711 q 456 655 475 671 q 408 624 436 639 q 343 592 379 608 q 331 586 335 589 q 322 638 325 613 q 319 688 319 663 q 324 746 319 717 q 340 799 329 775 q 368 839 350 824 q 411 854 386 854 m 688 142 q 632 92 667 111 q 558 60 597 72 q 477 44 518 49 q 403 39 436 39 q 306 47 356 39 q 217 75 257 54 q 153 133 178 96 q 128 231 128 171 q 141 331 128 289 q 176 406 154 374 q 228 460 199 438 q 292 501 258 483 q 351 373 314 433 q 439 265 389 313 q 551 185 489 217 q 688 142 614 153 "},"(":{"ha":390,"x_min":68,"x_max":319,"o":"m 289 900 q 310 908 301 900 q 319 929 319 917 q 310 951 319 942 q 289 960 301 960 q 206 935 242 960 q 147 872 171 911 q 107 783 122 832 q 83 683 92 733 q 71 585 74 632 q 68 503 68 538 q 82 310 68 406 q 122 140 96 215 q 188 17 149 64 q 278 -29 226 -29 q 299 -21 290 -29 q 307 0 307 -12 q 299 22 307 13 q 278 31 290 31 q 224 67 250 31 q 175 169 197 103 q 140 325 151 239 q 128 503 128 411 q 138 648 128 576 q 167 776 147 719 q 217 866 186 832 q 289 900 247 900 "},")":{"ha":390,"x_min":68,"x_max":319,"o":"m 110 960 q 88 951 97 960 q 79 929 79 942 q 88 908 79 917 q 110 900 97 900 q 163 863 136 900 q 211 760 190 826 q 247 605 235 692 q 258 426 258 518 q 249 281 258 353 q 220 154 240 210 q 170 65 200 99 q 99 31 140 31 q 77 22 86 31 q 68 0 68 13 q 77 -21 68 -12 q 99 -29 86 -29 q 182 -5 147 -29 q 242 58 217 19 q 282 147 267 97 q 306 247 297 196 q 317 344 314 297 q 319 426 319 392 q 306 619 319 524 q 265 790 292 714 q 200 913 239 865 q 110 960 161 960 "},"*":{"ha":426,"x_min":65,"x_max":358,"o":"m 342 661 l 269 706 l 340 750 q 354 769 351 757 q 350 792 357 781 q 324 806 340 806 q 308 801 315 806 l 242 758 l 242 838 q 233 858 242 850 q 211 867 224 867 q 190 858 199 867 q 181 838 181 849 l 182 757 l 114 799 q 99 803 106 803 q 72 788 81 803 q 68 765 65 776 q 82 747 71 754 l 156 703 l 83 658 q 70 640 72 651 q 75 617 68 628 q 100 603 85 603 q 117 607 108 603 l 182 650 l 183 571 q 192 550 183 558 q 213 542 201 542 l 214 542 q 234 551 225 542 q 243 571 243 560 l 243 651 l 311 610 q 326 606 318 606 q 351 621 343 606 q 356 643 358 632 q 342 661 353 654 "},"+":{"ha":686,"x_min":68,"x_max":615,"o":"m 68 457 q 77 435 68 444 q 99 426 86 426 l 313 426 l 313 213 q 321 191 313 200 q 342 182 329 182 q 363 191 354 182 q 372 213 372 200 l 372 426 l 586 426 q 607 435 599 426 q 615 457 615 444 q 607 477 615 468 q 586 486 599 486 l 372 486 l 372 700 q 363 722 372 713 q 342 731 354 731 q 321 722 329 731 q 313 700 313 713 l 313 486 l 99 486 q 77 477 86 486 q 68 457 68 468 "},",":{"ha":217,"x_min":68,"x_max":146,"o":"m 107 44 q 80 32 92 44 q 68 0 68 19 q 94 -42 68 -32 q 92 -58 92 -51 q 97 -65 93 -65 q 126 -51 117 -65 q 140 -21 136 -36 l 144 -12 q 145 -6 144 -10 q 146 0 146 -3 q 134 32 146 19 q 107 44 122 44 "},"-":{"ha":574,"x_min":68,"x_max":503,"o":"m 479 486 l 92 486 q 75 477 82 486 q 68 457 68 468 q 75 435 68 444 q 92 426 82 426 l 479 426 q 496 435 489 426 q 503 457 503 444 q 496 477 503 468 q 479 486 489 486 "},".":{"ha":217,"x_min":68,"x_max":146,"o":"m 107 -44 q 134 -32 122 -44 q 146 0 146 -19 q 134 32 146 19 q 107 44 122 44 q 80 32 92 44 q 68 0 68 19 q 80 -32 68 -19 q 107 -44 92 -44 "},"/":{"ha":657,"x_min":68,"x_max":586,"o":"m 556 996 q 514 975 535 996 q 460 895 492 953 q 394 760 429 838 q 320 590 358 682 q 246 403 282 497 q 177 220 210 308 q 120 61 144 132 q 82 -56 96 -10 q 68 -110 68 -101 q 77 -131 68 -122 q 99 -139 86 -139 q 118 -131 110 -139 q 128 -111 126 -122 q 148 -41 131 -93 q 191 85 165 11 q 250 249 217 160 q 319 429 283 338 q 392 608 356 521 q 460 765 428 694 q 519 881 493 835 q 560 938 544 928 q 586 967 586 940 q 577 988 586 979 q 556 996 568 996 "},":":{"ha":217,"x_min":68,"x_max":146,"o":"m 107 233 q 134 247 122 233 q 146 279 146 260 q 134 310 146 297 q 107 324 122 324 q 80 310 92 324 q 68 279 68 297 q 80 247 68 260 q 107 233 92 233 m 107 0 q 134 13 122 0 q 146 46 146 26 q 134 77 146 64 q 107 90 122 90 q 80 77 92 90 q 68 46 68 64 q 80 13 68 26 q 107 0 92 0 "},";":{"ha":217,"x_min":68,"x_max":146,"o":"m 107 228 q 134 241 122 228 q 146 274 146 254 q 134 305 146 292 q 107 318 122 318 q 80 305 92 318 q 68 274 68 292 q 80 241 68 254 q 107 228 92 228 m 107 85 q 80 72 92 85 q 68 40 68 58 q 76 14 68 25 q 94 -3 83 3 q 92 -19 92 -12 q 97 -26 93 -26 q 132 -8 118 -26 q 146 40 146 10 q 134 72 146 58 q 107 85 122 85 "},"<":{"ha":457,"x_min":68,"x_max":388,"o":"m 381 539 q 356 551 372 551 q 339 546 346 551 l 81 357 q 68 332 68 349 q 82 307 68 317 l 294 176 q 310 172 301 172 q 335 186 325 172 q 339 209 342 197 q 325 228 336 221 l 151 335 l 374 497 q 386 517 385 504 q 381 539 388 529 "},"=":{"ha":469,"x_min":68,"x_max":399,"o":"m 368 333 l 99 333 q 77 324 86 333 q 68 303 68 315 q 77 283 68 292 q 99 274 86 274 l 368 274 q 390 283 381 274 q 399 303 399 292 q 390 324 399 315 q 368 333 381 333 m 99 446 l 368 446 q 390 455 381 446 q 399 476 399 464 q 390 497 399 489 q 368 506 381 506 l 99 506 q 77 497 86 506 q 68 476 68 489 q 77 455 68 464 q 99 446 86 446 "},">":{"ha":457,"x_min":71,"x_max":390,"o":"m 78 189 q 103 176 86 176 q 119 182 113 176 l 378 371 q 390 396 390 379 q 376 421 390 411 l 164 551 q 149 556 158 556 q 124 542 133 556 q 119 519 117 531 q 133 500 122 507 l 307 393 l 85 231 q 72 211 74 224 q 78 189 71 199 "},"?":{"ha":488,"x_min":58,"x_max":432,"o":"m 369 863 q 240 914 324 914 q 139 878 185 914 q 76 785 93 843 q 79 672 58 726 q 154 581 100 617 q 171 575 161 575 q 196 589 186 575 q 201 610 203 599 q 188 629 199 622 q 135 691 150 654 q 133 768 121 728 q 174 830 144 806 q 240 854 204 854 q 324 822 297 854 q 353 639 369 772 q 312 489 343 567 q 244 333 281 411 q 176 176 206 251 q 146 38 146 101 q 155 16 146 25 q 176 7 164 7 q 197 16 189 7 q 206 38 206 25 q 234 160 206 90 q 299 308 263 231 q 368 471 335 389 q 413 632 401 553 q 369 863 432 792 m 178 -153 q 206 -140 194 -153 q 217 -108 217 -126 q 206 -76 217 -89 q 178 -62 194 -62 q 151 -76 163 -62 q 139 -108 139 -89 q 151 -140 139 -126 q 178 -153 163 -153 "},"@":{"ha":1086,"x_min":68,"x_max":1015,"o":"m 574 935 q 377 895 469 935 q 216 787 285 856 q 108 626 147 718 q 68 431 68 535 q 108 234 68 326 q 216 73 147 142 q 377 -35 285 4 q 574 -75 469 -75 q 594 -66 586 -75 q 603 -44 603 -57 q 594 -24 603 -32 q 574 -15 586 -15 q 401 20 482 -15 q 259 116 319 56 q 163 258 199 176 q 128 431 128 339 q 163 603 128 522 q 259 745 199 685 q 401 840 319 806 q 574 875 482 875 q 956 528 956 875 q 940 418 956 469 q 902 328 925 367 q 852 268 879 290 q 803 246 825 246 q 738 283 765 246 q 690 372 710 321 q 661 479 671 424 q 651 569 651 535 q 642 590 651 582 q 621 599 633 599 q 614 597 615 599 q 577 628 599 617 q 524 640 556 640 q 447 617 482 640 q 388 557 413 594 q 349 473 363 519 q 336 379 336 426 q 379 239 336 292 q 493 186 422 186 q 585 226 546 186 q 639 338 624 267 q 679 262 658 292 q 722 215 700 232 q 764 192 743 199 q 803 186 785 186 q 886 217 847 186 q 953 299 925 249 q 999 409 982 349 q 1015 528 1015 469 q 903 832 1015 729 q 574 935 792 935 m 589 432 q 562 298 589 350 q 493 246 535 246 q 422 281 449 246 q 396 379 396 317 q 406 451 396 415 q 433 515 415 486 q 474 563 450 544 q 524 581 497 581 q 558 569 544 581 q 578 544 571 558 q 588 518 585 531 q 590 503 590 506 q 599 485 590 493 q 601 471 600 478 q 604 457 603 464 q 589 432 589 447 "},"A":{"ha":917,"x_min":-1,"x_max":924,"o":"m 894 600 l 813 601 q 743 888 799 788 q 596 988 688 988 q 354 642 436 988 q 350 742 354 688 q 328 844 346 796 q 277 924 311 892 q 182 956 243 956 q 102 940 136 956 q 45 898 68 924 q 10 840 22 872 q -1 772 -1 807 q 15 689 -1 726 q 61 625 32 651 q 129 584 90 599 q 213 569 168 569 q 233 578 225 569 q 242 600 242 588 q 233 620 242 611 q 213 629 225 629 q 103 667 149 629 q 58 772 58 706 q 65 817 58 796 q 88 857 72 839 q 126 885 103 875 q 182 896 150 896 q 243 872 221 896 q 273 822 263 854 q 288 751 283 790 q 294 668 293 713 q 293 579 294 624 l 293 544 q 292 493 292 518 q 292 444 292 468 q 292 397 292 438 q 291 303 292 357 q 289 193 290 250 q 288 96 288 136 q 287 72 288 86 q 286 44 286 58 q 286 17 286 29 q 286 0 286 6 q 301 -28 286 -19 q 317 -32 310 -32 q 346 -1 343 -32 l 346 0 q 357 275 346 139 q 394 547 368 411 l 756 542 l 756 499 q 708 404 729 457 q 674 299 688 351 q 652 196 660 246 q 644 110 644 146 q 647 69 644 92 q 656 27 649 47 q 678 -6 664 7 q 718 -19 693 -19 q 776 30 756 -19 q 807 193 797 79 q 812 271 810 231 q 815 349 814 311 q 815 421 815 388 q 815 478 815 454 l 815 482 q 855 525 835 510 q 893 540 875 540 q 915 549 906 540 q 924 569 924 557 q 915 590 924 582 q 894 600 906 599 m 751 601 l 407 607 q 490 844 442 763 q 596 926 538 926 q 700 841 660 926 q 751 601 740 756 m 717 42 q 705 122 706 54 q 733 293 704 189 q 754 360 744 329 q 749 213 753 271 q 739 118 744 154 q 728 65 733 82 q 717 42 722 49 "},"B":{"ha":869,"x_min":-1,"x_max":807,"o":"m 244 543 q 240 495 242 519 q 238 444 238 471 l 238 424 q 192 413 210 417 q 167 406 174 408 q 146 391 153 401 q 140 371 139 381 q 149 353 140 361 q 175 346 158 346 q 206 347 190 346 q 236 349 221 347 q 236 298 236 325 q 235 243 236 271 q 234 165 235 206 q 233 90 233 125 q 232 29 232 54 q 232 -1 232 4 q 236 -15 232 -10 q 156 -20 196 -18 q 71 -22 115 -22 q 49 -31 58 -22 q 40 -51 40 -40 q 49 -73 40 -64 q 71 -82 58 -82 q 317 -67 211 -82 q 501 -26 424 -51 q 630 31 578 0 q 715 95 682 63 q 764 158 747 128 q 788 211 781 189 q 790 335 807 274 q 725 429 774 396 q 652 459 696 450 q 558 468 608 468 q 612 575 599 517 q 625 696 625 633 q 601 815 625 763 q 537 903 578 867 q 441 958 496 939 q 322 978 386 978 q 83 913 167 975 q -1 735 -1 850 q 13 667 -1 700 q 58 607 28 633 q 135 563 89 581 q 244 543 181 546 m 58 735 q 86 829 58 793 q 154 885 114 865 q 241 911 194 904 q 325 918 288 918 q 419 903 375 918 q 495 859 463 888 q 546 790 528 831 q 564 696 564 749 q 563 639 564 669 q 551 577 561 608 q 520 517 542 546 q 460 464 499 488 q 375 453 417 460 q 297 438 333 446 l 297 446 q 305 538 297 494 q 326 619 313 582 q 358 687 340 657 q 394 735 376 717 q 442 763 419 763 q 463 772 454 763 q 471 793 471 781 q 463 814 471 806 q 442 822 454 822 q 376 799 406 822 q 322 740 346 775 q 283 667 299 706 q 258 601 267 629 q 169 615 207 603 q 107 645 132 626 q 70 688 82 664 q 58 735 58 711 m 290 -10 q 292 0 292 -7 q 292 176 292 88 q 297 353 293 265 q 479 406 408 367 q 517 408 499 407 q 553 408 535 408 q 632 402 596 408 q 690 381 668 396 q 732 322 717 361 q 731 229 747 282 q 587 76 701 138 q 290 -10 472 14 "},"C":{"ha":561,"x_min":-1,"x_max":629,"o":"m 424 957 q 272 929 338 957 q 160 856 207 901 q 81 756 113 811 q 32 644 50 700 q 6 539 14 589 q -1 457 -1 489 q 111 56 -1 194 q 438 -82 224 -82 q 458 -73 450 -82 q 467 -51 467 -64 q 458 -31 467 -40 q 438 -22 450 -22 q 246 22 319 -22 q 131 136 172 67 q 74 290 89 206 q 58 457 58 375 q 65 528 58 485 q 87 621 71 572 q 129 719 103 669 q 196 808 156 768 q 292 872 236 847 q 424 896 349 896 q 489 885 461 896 q 534 856 517 874 q 560 816 551 839 q 569 769 569 793 q 550 695 569 726 q 500 643 531 664 q 431 612 469 622 q 356 601 393 601 q 335 593 343 601 q 326 572 326 585 q 335 551 326 560 q 356 542 343 542 q 455 556 406 542 q 543 599 504 571 q 606 671 582 628 q 629 769 629 714 q 617 837 629 803 q 579 897 604 871 q 515 940 554 924 q 424 957 476 957 "},"D":{"ha":700,"x_min":-1,"x_max":629,"o":"m 204 957 q 113 940 151 957 q 49 897 74 924 q 11 837 24 871 q -1 769 -1 803 q 30 658 -1 706 q 114 579 61 611 q 103 515 107 549 q 100 444 99 481 q 100 420 100 439 q 99 373 100 401 q 98 311 99 344 q 97 243 97 278 q 95 165 96 206 q 94 90 94 125 q 93 29 93 54 q 93 -1 93 4 q 103 -22 94 -14 q 124 -31 111 -31 q 145 -22 136 -31 q 154 0 154 -12 q 154 31 154 4 q 155 92 154 57 q 156 169 156 128 q 157 243 157 210 q 158 313 157 279 q 159 375 158 347 q 160 422 160 403 q 160 446 160 440 q 162 503 160 475 q 171 556 164 531 q 217 545 192 549 q 271 542 242 542 q 292 551 283 542 q 301 572 301 560 q 292 593 301 585 q 271 601 283 601 q 186 614 226 601 q 203 653 192 628 q 231 702 215 678 q 266 744 247 726 q 303 763 285 763 q 324 772 315 763 q 333 793 333 781 q 324 814 333 806 q 303 822 315 822 q 244 803 272 822 q 195 755 217 783 q 157 695 174 726 q 132 639 140 664 q 110 657 119 647 q 72 708 85 679 q 58 769 58 738 q 67 816 58 793 q 94 856 76 839 q 139 885 111 874 q 204 896 167 896 q 334 872 278 896 q 431 808 390 847 q 499 719 472 768 q 541 621 525 669 q 563 529 557 572 q 569 457 569 486 q 554 290 569 375 q 497 136 539 206 q 381 22 456 67 q 190 -22 307 -22 q 169 -31 178 -22 q 160 -51 160 -40 q 169 -73 160 -64 q 190 -82 178 -82 q 517 56 404 -82 q 629 457 629 194 q 622 539 629 489 q 596 644 614 589 q 547 756 578 700 q 468 856 515 811 q 356 929 421 901 q 204 957 292 957 "},"E":{"ha":517,"x_min":-7,"x_max":538,"o":"m 51 397 q -2 240 3 322 q 33 86 -7 157 q 74 33 47 63 q 144 -22 100 4 q 252 -65 188 -47 q 407 -82 317 -82 l 436 -82 q 457 -73 449 -82 q 465 -51 465 -64 q 455 -31 464 -39 q 433 -22 446 -22 q 335 -18 386 -22 q 238 1 285 -14 q 151 44 192 17 q 86 117 111 71 q 58 238 54 171 q 103 364 63 304 q 167 435 129 406 q 250 485 204 465 q 321 471 282 471 q 386 482 353 471 q 454 517 419 493 q 458 521 457 517 l 461 524 l 461 525 q 463 529 463 526 q 464 532 464 529 l 464 535 l 465 536 l 465 540 q 464 543 465 542 l 464 546 q 463 549 464 547 l 463 551 q 460 556 461 553 l 457 558 q 456 560 457 560 q 456 561 456 560 q 453 563 454 561 q 450 564 451 564 q 447 565 450 565 q 442 568 447 568 l 438 568 q 413 570 425 569 q 388 571 400 571 q 256 550 318 571 q 206 605 224 569 q 189 683 189 640 q 190 700 189 683 q 197 740 192 717 q 215 791 203 764 q 251 842 228 818 q 309 881 274 865 q 394 896 344 896 q 459 872 440 896 q 478 824 478 849 q 449 758 478 788 q 350 725 411 725 q 328 717 338 725 q 319 696 319 708 q 328 674 319 683 q 350 665 338 665 q 419 676 385 665 q 479 706 453 686 q 522 756 506 726 q 538 824 538 786 q 528 873 538 849 q 501 916 519 897 q 457 946 483 935 q 394 957 431 957 q 286 936 335 957 q 203 878 238 915 q 149 792 168 842 q 129 683 129 742 q 146 594 129 636 q 192 524 163 553 q 51 397 107 481 "},"F":{"ha":399,"x_min":-1,"x_max":738,"o":"m 29 454 q 8 445 17 454 q -1 424 -1 436 q 8 403 -1 411 q 29 394 17 394 l 133 394 q 131 324 132 364 q 131 243 131 285 q 130 165 131 206 q 128 90 129 125 q 128 29 128 54 q 128 -1 128 4 q 136 -22 128 -14 q 157 -31 144 -31 l 158 -31 q 179 -22 171 -31 q 188 0 188 -12 q 189 197 188 99 q 193 394 190 296 l 336 394 q 358 403 349 394 q 367 424 367 411 q 358 445 367 436 q 336 454 349 454 l 193 454 q 193 478 193 469 q 194 496 193 488 q 194 514 194 504 q 194 538 194 524 q 195 695 197 619 q 167 835 193 771 q 251 856 207 851 q 339 861 294 861 q 446 854 401 861 q 528 840 490 847 q 588 828 560 833 q 649 824 617 824 q 679 825 664 824 q 711 829 694 826 q 730 842 722 832 q 735 864 738 853 q 723 884 732 879 q 700 889 714 889 q 672 885 685 886 q 647 883 660 883 q 594 888 619 883 q 539 899 568 892 q 431 916 485 911 q 322 921 378 921 q 222 912 268 921 q 139 888 175 903 q 129 901 133 894 q 119 913 125 907 q 97 922 111 922 q 76 914 85 922 q 67 894 68 907 q 75 871 67 881 q 81 865 78 868 q 86 858 83 861 q -1 679 -1 794 q 8 658 -1 667 q 29 649 17 649 q 49 658 40 649 q 58 679 58 667 q 74 753 58 724 q 115 804 89 783 q 136 684 135 751 q 135 539 138 617 q 134 515 135 525 q 133 497 133 506 q 133 479 133 489 q 133 454 133 469 l 29 454 "},"G":{"ha":776,"x_min":-1,"x_max":708,"o":"m 510 479 q 417 465 460 479 q 342 422 374 450 q 292 354 310 394 q 274 263 274 314 q 283 198 274 228 q 310 146 293 168 q 350 111 326 124 q 400 99 374 99 q 422 108 413 99 q 431 129 431 117 q 422 150 431 142 q 400 158 413 158 q 351 191 368 158 q 333 263 333 224 q 347 331 333 301 q 385 380 361 360 q 440 410 408 400 q 510 419 472 419 q 574 400 546 419 q 618 344 603 381 q 644 206 649 276 q 631 130 643 168 q 594 60 619 92 q 531 10 569 29 q 438 -10 492 -10 q 58 417 58 -10 q 65 488 58 444 q 87 581 71 532 q 129 678 103 629 q 196 767 156 728 q 292 831 236 807 q 424 856 349 856 q 489 844 461 856 q 534 816 517 833 q 560 776 551 799 q 569 729 569 753 q 550 655 569 686 q 500 603 531 624 q 431 572 469 582 q 356 561 393 561 q 335 553 344 561 q 326 532 326 544 q 335 510 326 519 q 356 501 344 501 q 455 516 406 501 q 543 560 504 531 q 606 631 582 589 q 629 729 629 674 q 617 797 629 763 q 579 857 604 831 q 515 900 554 883 q 424 917 476 917 q 272 889 338 917 q 160 816 207 861 q 81 715 113 771 q 32 604 50 660 q 6 499 14 549 q -1 417 -1 449 q 39 171 -1 265 q 143 23 79 76 q 285 -50 207 -31 q 438 -69 363 -69 q 553 -46 504 -69 q 635 16 601 -22 q 685 103 668 54 q 704 203 703 151 q 672 369 708 289 q 606 450 649 421 q 510 479 563 479 "},"H":{"ha":799,"x_min":-1,"x_max":864,"o":"m -1 772 q 15 689 -1 726 q 61 625 32 651 q 129 584 90 599 q 213 569 168 569 q 233 578 225 569 q 242 600 242 588 q 233 620 242 611 q 213 629 225 629 q 103 667 149 629 q 58 772 58 706 q 65 817 58 796 q 88 857 72 839 q 126 885 103 875 q 182 896 150 896 q 243 872 221 896 q 274 816 264 851 q 290 736 285 781 q 294 642 294 692 q 293 544 294 593 q 292 499 292 521 q 292 454 292 476 l 182 454 q 160 445 169 454 q 151 424 151 436 q 160 403 151 411 q 182 394 169 394 l 292 394 q 291 324 292 364 q 289 243 290 285 q 288 165 289 206 q 287 90 288 125 q 286 29 286 54 q 286 -1 286 4 q 295 -22 286 -14 q 317 -31 304 -31 q 338 -22 329 -31 q 346 0 346 -12 q 346 31 346 4 q 347 92 346 57 q 348 169 347 128 q 349 243 349 210 q 351 326 350 286 q 351 394 351 365 l 600 394 q 610 193 599 289 q 653 29 622 97 q 690 -34 669 -10 q 733 -72 711 -58 q 776 -92 754 -86 q 818 -97 799 -97 l 836 -97 q 856 -86 849 -96 q 863 -64 864 -76 q 851 -44 861 -51 q 831 -37 842 -36 q 755 -15 782 -37 q 708 53 728 8 q 669 206 681 117 q 660 394 657 296 q 679 404 671 396 q 688 424 688 413 q 661 453 688 450 q 676 607 665 532 q 700 744 686 682 q 731 849 714 806 q 765 908 749 893 q 775 929 775 917 q 767 950 775 942 q 744 960 758 960 q 725 953 732 960 q 682 883 703 932 q 644 766 661 833 q 617 618 628 699 q 601 454 606 538 l 351 454 q 352 497 351 475 q 353 543 353 519 q 354 653 354 599 q 348 757 354 708 q 328 847 342 806 q 286 915 314 888 q 182 956 246 956 q 102 940 136 956 q 45 898 68 924 q 10 840 22 872 q -1 772 -1 807 "},"I":{"ha":425,"x_min":-1,"x_max":354,"o":"m 182 956 q 102 940 136 956 q 45 898 68 924 q 10 840 22 872 q -1 772 -1 807 q 15 689 -1 726 q 61 625 32 651 q 129 584 90 599 q 213 569 168 569 q 233 578 225 569 q 242 600 242 588 q 233 620 242 611 q 213 629 225 629 q 103 667 149 629 q 58 772 58 706 q 65 817 58 796 q 88 857 72 839 q 126 885 103 875 q 182 896 150 896 q 243 872 221 896 q 274 816 264 851 q 290 736 285 781 q 294 642 294 692 q 293 544 294 593 q 292 493 292 518 q 292 444 292 468 q 292 413 292 438 q 290 360 292 389 q 288 277 289 319 q 286 207 286 235 q 274 74 286 121 q 239 6 261 28 q 186 -19 217 -15 q 119 -22 156 -22 q 98 -31 107 -22 q 89 -53 89 -40 q 98 -74 89 -65 q 119 -83 107 -83 q 217 -72 175 -83 q 288 -29 260 -61 q 331 59 317 3 q 346 207 346 115 q 347 276 346 233 q 350 358 349 318 q 352 413 351 390 q 351 446 353 436 q 352 493 351 469 q 353 543 353 517 q 354 653 354 599 q 348 757 354 708 q 328 847 342 806 q 286 915 314 888 q 182 956 246 956 "},"J":{"ha":700,"x_min":-1,"x_max":629,"o":"m 242 957 q 157 941 197 957 q 87 897 117 925 q 40 829 57 868 q 22 744 22 790 q 33 680 22 711 q 68 624 44 649 q 127 585 92 600 q 213 569 163 569 q 233 578 225 569 q 242 600 242 588 q 233 620 242 611 q 213 629 225 629 q 151 640 176 629 q 111 666 126 650 q 89 703 96 682 q 82 744 82 724 q 93 799 82 772 q 124 848 104 826 q 174 883 144 869 q 242 896 204 896 q 413 853 349 896 q 513 742 478 811 q 558 588 547 674 q 569 417 569 503 q 563 345 569 389 q 541 253 557 301 q 499 155 525 204 q 431 66 472 106 q 335 2 390 26 q 204 -22 279 -22 q 139 -11 167 -22 q 94 18 111 0 q 67 59 76 36 q 58 106 58 82 q 78 180 58 149 q 127 232 97 211 q 195 263 157 253 q 271 272 233 272 q 292 281 283 272 q 301 303 301 290 q 292 324 301 315 q 271 332 283 332 q 172 317 221 332 q 84 274 122 303 q 22 203 46 246 q -1 106 -1 161 q 11 38 -1 72 q 49 -22 24 4 q 113 -65 74 -49 q 204 -82 151 -82 q 356 -54 290 -82 q 468 19 421 -26 q 547 119 515 64 q 596 231 578 175 q 622 336 614 286 q 629 418 629 386 q 614 613 629 517 q 556 786 599 710 q 438 910 514 863 q 242 957 363 957 "},"K":{"ha":833,"x_min":-1,"x_max":903,"o":"m 869 -37 q 795 -15 835 -37 q 718 39 756 7 q 647 105 681 71 q 593 164 614 139 q 495 276 544 222 q 397 371 446 331 q 473 435 429 396 q 563 519 517 474 q 654 617 610 565 q 734 718 699 668 q 791 815 769 768 q 813 899 813 861 q 804 919 813 911 q 783 928 796 928 q 762 919 771 928 q 753 899 753 911 q 715 797 753 860 q 617 667 676 735 q 488 531 558 599 q 351 414 417 464 q 352 461 351 438 q 353 511 353 485 q 354 626 354 567 q 348 741 354 686 q 328 842 342 796 q 286 915 314 888 q 182 956 246 956 q 102 940 136 956 q 45 898 68 924 q 10 840 22 872 q -1 772 -1 807 q 15 689 -1 726 q 61 625 32 651 q 129 584 90 599 q 213 569 168 569 q 233 578 225 569 q 242 600 242 588 q 233 620 242 611 q 213 629 225 629 q 103 667 149 629 q 58 772 58 706 q 65 817 58 796 q 88 857 72 839 q 126 885 103 875 q 182 896 150 896 q 243 872 221 896 q 274 811 264 851 q 290 720 285 771 q 294 615 294 669 q 293 513 294 561 q 292 472 293 492 q 292 433 292 453 q 266 440 279 438 q 240 443 253 443 q 188 438 217 443 q 135 419 160 432 q 94 387 111 407 q 78 338 78 367 q 103 285 78 310 q 181 260 128 260 q 231 270 204 260 q 290 299 258 281 q 290 256 290 278 q 289 211 290 233 q 288 138 289 174 q 287 74 288 103 q 286 24 286 44 q 286 -1 286 4 q 295 -22 286 -14 q 317 -31 304 -31 q 338 -22 329 -31 q 346 0 346 -12 q 347 166 346 83 q 351 332 349 249 q 450 238 400 293 q 549 125 500 182 q 614 53 578 92 q 692 -19 650 14 q 779 -75 733 -53 q 874 -97 825 -97 q 894 -87 886 -96 q 901 -65 903 -78 q 891 -44 900 -53 q 869 -37 882 -36 m 181 319 q 149 325 160 319 q 138 338 138 331 q 151 359 138 350 q 181 373 164 368 q 215 380 197 378 q 240 382 232 382 q 292 369 265 382 q 228 333 256 346 q 181 319 200 319 "},"L":{"ha":724,"x_min":-1,"x_max":932,"o":"m 892 -90 q 773 -116 828 -108 q 671 -124 718 -124 q 559 -112 608 -124 q 468 -82 510 -100 q 392 -42 426 -64 q 328 3 358 -19 q 306 17 317 10 q 285 32 296 25 q 328 138 310 79 q 359 262 347 197 q 377 393 371 326 q 383 519 383 460 q 381 596 383 551 q 371 689 378 640 q 350 785 364 738 q 314 871 336 833 q 259 932 292 908 q 182 956 226 956 q 102 940 136 956 q 45 898 68 924 q 10 840 22 872 q -1 772 -1 807 q 15 689 -1 726 q 61 625 32 651 q 129 584 90 599 q 213 569 168 569 q 233 578 225 569 q 242 600 242 588 q 233 620 242 611 q 213 629 225 629 q 103 667 149 629 q 58 772 58 706 q 65 817 58 796 q 88 857 72 839 q 126 885 103 875 q 182 896 150 896 q 237 874 214 896 q 275 817 260 851 q 300 739 290 782 q 315 653 310 696 q 322 576 321 611 q 324 519 324 540 q 317 384 324 450 q 298 258 310 318 q 269 149 286 199 q 233 61 253 99 q 147 83 192 83 q 107 79 128 83 q 68 65 86 75 q 39 38 50 54 q 28 -1 28 22 q 55 -57 28 -31 q 140 -83 82 -83 q 201 -66 172 -83 q 253 -18 229 -49 q 272 -32 263 -25 q 293 -46 282 -39 q 362 -94 325 -69 q 444 -137 399 -118 q 546 -170 490 -157 q 671 -183 601 -183 q 781 -175 722 -183 q 908 -147 839 -167 q 926 -133 919 -144 q 929 -110 932 -122 q 919 -94 926 -100 q 901 -89 911 -89 q 892 -90 894 -89 m 140 -22 q 100 -15 113 -22 q 88 -1 88 -7 q 96 11 88 6 q 113 19 101 14 q 147 24 125 24 q 200 11 174 24 q 140 -22 171 -22 "},"M":{"ha":1185,"x_min":-1,"x_max":1208,"o":"m 739 610 q 764 673 746 629 q 806 762 782 717 q 859 841 831 807 q 914 875 888 875 q 988 846 961 875 q 1026 765 1014 817 q 1040 649 1038 714 q 1040 510 1043 583 q 1031 365 1036 436 q 1022 222 1025 289 q 1022 99 1018 154 q 1038 3 1025 44 q 1079 -64 1051 -37 q 1158 -94 1111 -94 q 1169 -94 1164 -94 q 1181 -93 1174 -93 q 1201 -81 1193 -90 q 1206 -58 1208 -71 q 1194 -39 1203 -44 q 1172 -33 1185 -33 q 1158 -35 1167 -35 q 1134 -30 1143 -35 q 1121 -21 1125 -25 q 1091 36 1100 -1 q 1080 124 1082 74 q 1082 235 1078 174 q 1090 361 1086 296 q 1100 519 1096 440 q 1100 667 1104 597 q 1081 794 1096 738 q 1032 886 1065 851 q 914 935 986 935 q 853 915 882 935 q 802 865 825 894 q 761 803 779 836 q 731 744 743 769 q 714 832 725 792 q 684 901 703 872 q 639 947 665 931 q 575 963 613 963 q 438 890 492 963 q 353 690 385 817 q 344 780 351 733 q 319 865 338 826 q 269 930 301 904 q 182 956 236 956 q 102 940 136 956 q 45 898 68 924 q 10 840 22 872 q -1 772 -1 807 q 15 689 -1 726 q 61 625 32 651 q 129 584 90 599 q 213 569 168 569 q 233 578 225 569 q 242 600 242 588 q 233 620 242 611 q 213 629 225 629 q 103 667 149 629 q 58 772 58 706 q 65 817 58 796 q 88 857 72 839 q 126 885 103 875 q 182 896 150 896 q 243 872 221 896 q 274 816 264 851 q 290 736 285 781 q 294 642 294 692 q 293 544 294 593 q 292 493 292 518 q 292 444 292 468 q 292 410 292 439 q 291 340 292 381 q 290 251 290 299 q 289 161 289 204 q 287 117 288 140 q 286 70 286 93 q 286 28 286 47 q 286 0 286 10 q 301 -28 286 -19 q 317 -32 310 -32 q 331 -28 325 -32 q 341 -19 338 -24 q 346 0 344 -15 q 347 83 346 29 q 352 205 349 136 q 363 352 356 274 q 381 508 369 431 q 410 656 393 585 q 450 782 426 728 q 505 869 474 836 q 575 901 536 901 q 651 831 629 901 q 678 619 672 761 q 652 555 667 601 q 625 451 638 508 q 604 331 613 393 q 598 217 596 268 q 615 132 600 165 q 663 99 629 99 q 713 129 694 99 q 739 207 731 160 q 749 313 747 254 q 748 428 750 372 q 743 533 746 485 q 739 610 740 582 m 689 513 q 690 481 689 508 q 691 414 690 453 q 692 330 692 375 q 690 247 692 285 q 683 183 688 208 q 671 158 679 158 q 656 197 658 158 q 656 289 653 236 q 666 394 658 342 q 681 476 674 447 q 682 482 681 476 q 685 495 683 488 q 688 508 686 503 q 689 513 689 514 "},"N":{"ha":943,"x_min":-1,"x_max":849,"o":"m 849 422 q 840 445 849 438 q 815 453 831 453 l 815 461 q 758 860 815 732 q 596 988 701 988 q 513 960 550 988 q 445 885 475 932 q 393 775 415 838 q 354 643 371 713 q 349 743 354 689 q 328 844 344 797 q 277 924 311 892 q 182 956 243 956 q 102 940 136 956 q 45 898 68 924 q 10 840 22 872 q -1 772 -1 807 q 15 689 -1 726 q 61 625 32 651 q 129 584 90 599 q 213 569 168 569 q 233 578 225 569 q 242 600 242 588 q 233 620 242 611 q 213 629 225 629 q 103 667 149 629 q 58 772 58 706 q 65 817 58 796 q 88 857 72 839 q 126 885 103 875 q 182 896 150 896 q 243 872 221 896 q 274 816 264 851 q 290 736 285 781 q 294 642 294 692 q 293 544 294 593 q 292 493 292 518 q 292 444 292 468 q 292 392 292 436 q 291 291 292 349 q 289 174 290 233 q 288 78 288 115 q 287 55 288 68 q 286 29 286 42 q 286 0 286 15 q 301 -28 286 -19 q 317 -32 310 -32 q 338 -23 332 -32 q 346 0 344 -14 q 357 278 346 140 q 396 553 368 415 q 482 831 431 735 q 596 926 533 926 q 713 812 669 926 q 756 461 756 697 l 756 435 q 698 379 722 415 q 658 299 674 343 q 634 206 642 254 q 626 117 626 158 q 630 66 626 94 q 643 12 633 38 q 671 -31 653 -14 q 718 -49 689 -49 q 777 1 757 -49 q 807 164 797 50 q 814 283 813 222 q 815 392 815 343 q 819 393 817 393 q 840 401 832 393 q 849 422 849 410 m 715 11 q 701 29 707 15 q 692 60 694 43 q 688 94 689 78 q 686 117 686 110 q 705 250 686 185 q 756 356 724 315 q 749 194 754 258 q 739 91 744 129 q 727 35 733 53 q 715 11 721 17 "},"O":{"ha":699,"x_min":-1,"x_max":628,"o":"m 519 593 q 508 574 510 586 q 514 551 507 561 q 552 470 539 519 q 567 366 565 421 q 559 255 569 311 q 526 153 549 199 q 439 42 490 82 q 329 3 388 3 q 218 35 264 3 q 142 117 172 68 q 95 226 113 167 q 70 340 78 286 q 60 433 63 393 q 58 483 58 472 q 60 523 58 488 q 70 609 61 558 q 98 717 79 660 q 151 823 117 774 q 238 904 185 872 q 365 936 290 936 q 440 915 406 936 q 497 853 474 893 q 525 767 521 813 q 511 690 529 722 q 492 663 504 678 q 460 633 479 647 q 412 610 440 619 q 344 601 383 601 q 323 593 332 601 q 314 572 314 585 q 323 551 314 560 q 344 542 332 542 q 475 572 418 542 q 564 661 532 603 q 585 767 589 707 q 549 883 581 828 q 469 967 517 938 q 365 996 422 996 q 196 947 265 996 q 83 824 126 899 q 19 658 39 749 q -1 483 -1 568 q 16 302 -1 397 q 72 127 33 207 q 174 -5 111 47 q 329 -57 238 -57 q 471 -9 404 -57 q 581 126 538 39 q 615 233 603 172 q 628 357 628 293 q 613 481 628 421 q 561 588 597 542 q 538 600 553 600 q 519 593 529 600 "},"P":{"ha":783,"x_min":-1,"x_max":804,"o":"m 596 988 q 513 960 550 988 q 445 885 475 932 q 393 775 415 838 q 354 643 371 713 q 349 743 354 689 q 328 844 344 797 q 277 924 311 892 q 182 956 243 956 q 102 940 136 956 q 45 898 68 924 q 10 840 22 872 q -1 772 -1 807 q 15 689 -1 726 q 61 625 32 651 q 129 584 90 599 q 213 569 168 569 q 233 578 225 569 q 242 600 242 588 q 233 620 242 611 q 213 629 225 629 q 103 667 149 629 q 58 772 58 706 q 65 817 58 796 q 88 857 72 839 q 126 885 103 875 q 182 896 150 896 q 243 872 221 896 q 274 816 264 851 q 290 736 285 781 q 294 642 294 692 q 293 544 294 593 q 292 493 292 518 q 292 444 292 468 q 292 392 292 436 q 291 291 292 349 q 289 174 290 233 q 288 78 288 115 q 287 55 288 68 q 286 29 286 42 q 286 0 286 15 q 301 -28 286 -19 q 317 -32 308 -32 q 332 -28 324 -32 q 342 -19 339 -24 q 346 0 344 -15 q 357 278 346 140 q 396 553 368 415 q 482 831 431 735 q 596 926 533 926 q 670 899 642 926 q 715 831 699 871 q 738 747 732 792 q 744 668 744 703 q 728 533 744 592 q 685 436 711 475 q 624 377 658 397 q 554 357 590 357 q 500 378 517 357 q 486 404 489 389 q 483 432 483 419 q 495 497 483 464 q 528 558 507 531 q 576 603 549 586 q 633 621 603 621 q 654 629 646 621 q 663 650 663 638 q 654 672 663 663 q 633 681 646 681 q 551 658 589 681 q 484 599 513 635 q 440 519 456 564 q 424 432 424 475 q 458 334 424 371 q 554 297 492 297 q 663 329 617 297 q 741 413 710 361 q 788 532 772 465 q 804 668 804 599 q 794 772 804 717 q 760 876 785 828 q 697 956 736 924 q 596 988 657 988 "},"Q":{"ha":614,"x_min":-1,"x_max":728,"o":"m 697 -60 q 547 -29 615 -60 q 415 47 479 1 q 392 65 404 57 q 368 82 379 74 q 447 192 413 128 q 503 328 481 256 q 539 478 526 401 q 551 631 551 556 q 542 749 551 685 q 506 867 532 813 q 435 959 479 922 q 321 996 390 996 q 189 961 244 996 q 97 872 133 926 q 44 749 61 817 q 28 614 28 681 q 48 467 28 529 q 100 365 68 406 q 172 304 132 324 q 253 285 213 285 q 274 294 265 285 q 283 315 283 303 q 274 335 283 326 q 253 344 265 344 q 181 368 213 344 q 129 429 150 392 q 98 515 108 467 q 88 614 88 564 q 100 724 88 667 q 141 828 113 781 q 214 906 169 875 q 321 936 258 936 q 408 903 375 936 q 460 824 442 871 q 485 724 479 776 q 492 631 492 671 q 481 496 492 568 q 447 353 469 424 q 392 222 425 283 q 317 115 360 160 q 234 154 276 139 q 144 169 192 169 q 35 137 72 169 q -1 64 -1 104 q 29 -1 -1 29 q 125 -31 60 -31 q 230 -12 181 -31 q 322 40 279 7 q 381 -1 351 22 q 524 -85 447 -50 q 697 -119 601 -119 q 719 -110 710 -119 q 728 -89 728 -101 q 719 -68 728 -76 q 697 -60 710 -60 m 125 29 q 74 40 90 29 q 58 64 58 51 q 81 95 58 81 q 144 110 103 110 q 207 100 176 110 q 268 74 238 90 q 201 41 236 53 q 125 29 165 29 "},"R":{"ha":872,"x_min":-1,"x_max":963,"o":"m 933 -35 q 788 6 853 -35 q 674 108 722 47 q 590 236 625 168 q 535 358 556 304 q 581 353 553 353 q 689 383 644 353 q 762 459 733 413 q 803 563 790 506 q 817 674 817 619 q 803 788 817 732 q 761 889 789 844 q 692 960 733 933 q 596 988 650 988 q 513 960 550 988 q 445 885 475 932 q 393 775 415 838 q 354 643 371 713 q 349 743 354 689 q 328 844 344 797 q 277 924 311 892 q 182 956 243 956 q 102 940 136 956 q 45 898 68 924 q 10 840 22 872 q -1 772 -1 807 q 15 689 -1 726 q 61 625 32 651 q 129 584 90 599 q 213 569 168 569 q 233 578 225 569 q 242 600 242 588 q 233 620 242 611 q 213 629 225 629 q 103 667 149 629 q 58 772 58 706 q 65 817 58 796 q 88 857 72 839 q 126 885 103 875 q 182 896 150 896 q 243 872 221 896 q 274 816 264 851 q 290 736 285 781 q 294 642 294 692 q 293 544 294 593 q 292 493 292 518 q 292 444 292 468 q 292 417 292 439 q 292 362 292 394 q 291 290 292 329 q 290 213 290 251 q 288 138 289 174 q 288 78 288 103 q 287 55 288 68 q 286 29 286 42 q 286 0 286 15 q 301 -28 286 -19 q 317 -32 308 -32 q 332 -28 324 -32 q 342 -19 339 -24 q 346 0 344 -15 q 357 278 346 140 q 396 553 368 415 q 482 831 431 735 q 596 926 533 926 q 666 904 636 926 q 716 847 696 882 q 747 766 736 811 q 757 674 757 721 q 748 588 757 633 q 719 503 739 542 q 665 438 699 464 q 581 413 631 413 q 523 429 546 413 q 500 482 500 446 q 509 528 500 504 q 535 574 518 553 q 578 608 553 594 q 633 621 603 621 q 654 629 646 621 q 663 650 663 638 q 654 672 663 663 q 633 681 646 681 q 555 663 590 681 q 494 616 519 644 q 454 552 468 588 q 440 482 440 517 q 441 469 440 475 q 443 456 442 463 l 443 444 q 450 419 443 443 q 470 359 457 396 q 504 275 483 322 q 553 179 525 228 q 726 -25 631 44 q 933 -94 822 -94 q 954 -85 946 -94 q 963 -64 963 -76 q 954 -43 963 -51 q 933 -35 946 -35 "},"S":{"ha":642,"x_min":-4,"x_max":571,"o":"m 335 500 q 258 544 294 522 q 193 594 221 567 q 149 655 165 621 q 132 735 132 689 q 189 876 132 826 q 349 926 246 926 q 455 890 414 926 q 496 786 496 853 q 488 738 496 763 q 465 695 481 714 q 426 665 450 676 q 369 653 403 653 q 315 672 336 653 q 293 726 293 692 q 296 748 293 736 q 306 770 299 760 q 326 788 314 781 q 356 794 338 794 q 377 803 368 794 q 386 825 386 813 q 377 846 386 838 q 356 854 368 854 q 302 843 325 854 q 264 814 279 832 q 241 773 249 796 q 233 726 233 750 q 267 635 233 675 q 305 606 281 619 q 369 593 329 593 q 450 610 415 593 q 508 653 485 626 q 544 715 532 681 q 556 786 556 750 q 540 868 556 831 q 496 932 524 906 q 431 973 468 958 q 349 988 393 988 q 235 969 286 988 q 147 918 183 951 q 92 838 111 885 q 72 735 72 792 q 93 631 72 675 q 147 554 114 588 q 222 496 181 521 q 306 449 264 471 q 383 403 346 426 q 448 353 419 381 q 494 290 476 325 q 511 207 511 256 q 488 103 511 146 q 426 35 464 61 q 340 -3 388 8 q 243 -15 292 -15 q 163 0 197 -15 q 108 40 129 15 q 74 93 86 64 q 60 151 63 122 q 64 219 57 185 q 90 284 71 254 q 142 337 110 314 q 219 368 174 360 q 239 381 232 371 q 243 403 246 392 q 231 422 240 418 q 208 426 221 426 q 110 387 151 415 q 43 319 69 358 q 6 235 17 281 q 0 146 -4 190 q 21 65 4 104 q 67 -6 38 25 q 141 -56 97 -37 q 243 -75 185 -75 q 397 -49 335 -75 q 498 17 460 -24 q 553 108 536 58 q 571 207 571 158 q 549 313 571 268 q 494 391 528 357 q 419 451 461 425 q 335 500 376 478 "},"T":{"ha":533,"x_min":-1,"x_max":833,"o":"m 800 924 q 761 922 779 922 q 725 921 743 921 q 640 924 679 921 q 556 935 600 928 q 413 949 494 942 q 204 957 331 957 q 113 940 151 957 q 49 897 74 924 q 11 837 24 871 q -1 769 -1 803 q 22 672 -1 714 q 84 600 46 629 q 172 556 122 571 q 271 542 221 542 q 292 551 283 542 q 301 572 301 560 q 292 593 301 585 q 271 601 283 601 q 195 612 233 601 q 127 643 157 622 q 78 695 97 664 q 58 769 58 726 q 67 816 58 793 q 94 856 76 839 q 139 885 111 874 q 204 896 167 896 q 274 896 242 896 q 336 893 307 896 q 330 465 331 678 q 329 36 329 251 q 338 15 329 24 q 360 7 347 7 q 381 16 372 7 q 389 38 390 25 q 389 84 389 42 q 390 191 389 126 q 391 334 390 256 q 393 489 392 413 q 393 615 393 554 q 394 730 393 676 q 395 824 394 783 q 396 890 396 865 q 478 883 440 888 q 549 875 515 879 q 636 865 593 869 q 729 861 679 861 q 766 862 747 861 q 804 864 785 863 q 825 874 817 865 q 832 896 833 883 q 822 917 831 908 q 800 924 813 925 "},"U":{"ha":675,"x_min":-1,"x_max":696,"o":"m 667 6 q 611 28 633 6 q 576 94 589 51 q 559 190 564 138 q 554 301 554 243 q 554 414 554 360 q 556 467 556 442 q 556 517 556 493 q 556 569 556 525 q 558 670 557 613 q 559 787 558 728 q 561 883 560 846 l 561 924 q 546 951 561 943 q 532 956 540 956 q 517 951 524 956 q 507 943 510 947 q 503 924 504 939 l 501 924 q 488 665 501 794 q 451 408 475 535 q 413 243 435 318 q 365 114 390 168 q 312 30 340 60 q 251 0 283 0 q 185 35 214 0 q 135 134 156 71 q 103 283 114 197 q 92 471 92 369 l 92 497 q 149 553 125 517 q 190 633 174 589 q 213 726 206 678 q 221 815 221 774 q 217 866 221 838 q 204 920 214 894 q 176 963 194 946 q 129 981 158 981 q 71 931 92 981 q 40 768 50 882 q 33 649 35 710 q 32 539 32 589 q 8 532 18 539 q -1 510 -1 525 q 8 487 -1 494 q 32 479 18 479 l 32 471 q 47 255 32 353 q 90 88 61 157 q 159 -21 118 18 q 251 -60 200 -60 q 335 -27 297 -60 q 402 59 372 6 q 455 181 432 113 q 494 318 478 249 q 495 249 494 289 q 501 169 496 210 q 516 88 506 128 q 546 16 526 47 q 594 -35 565 -15 q 667 -54 624 -54 q 688 -45 679 -54 q 696 -24 696 -36 q 688 -3 696 -11 q 667 6 679 6 m 132 921 q 147 903 142 917 q 156 872 153 889 q 160 840 160 856 q 161 815 161 824 q 142 681 161 747 q 93 576 124 615 q 99 739 94 675 q 108 841 103 803 q 120 897 114 879 q 132 921 126 915 "},"V":{"ha":586,"x_min":-1,"x_max":561,"o":"m 532 954 q 510 945 519 954 q 501 924 501 936 q 496 731 501 835 q 479 525 490 628 q 450 328 468 422 q 406 160 432 233 q 347 44 381 88 q 272 0 314 0 q 200 38 233 0 q 143 141 167 76 q 106 291 119 206 q 92 471 92 376 l 92 497 q 149 553 125 517 q 190 633 174 589 q 213 726 206 678 q 221 815 221 774 q 217 866 221 838 q 204 920 214 894 q 176 963 194 946 q 129 981 158 981 q 71 931 92 981 q 40 768 50 882 q 33 649 35 710 q 32 539 32 589 q 8 532 18 539 q -1 510 -1 525 q 8 487 -1 494 q 32 479 18 479 l 32 471 q 49 263 32 360 q 98 94 67 165 q 174 -19 129 22 q 272 -60 218 -60 q 363 -24 324 -60 q 433 72 403 11 q 485 210 464 132 q 519 372 506 288 q 542 542 533 457 q 554 703 550 628 q 560 836 558 778 q 561 924 561 894 q 553 945 561 936 q 532 954 544 954 m 132 921 q 147 903 142 918 q 156 872 153 889 q 160 839 160 856 q 161 815 161 822 q 142 681 161 747 q 93 576 124 615 q 99 739 94 675 q 108 841 103 803 q 120 897 114 879 q 132 921 126 915 "},"W":{"ha":975,"x_min":-1,"x_max":950,"o":"m 950 510 q 940 532 950 525 q 917 539 931 539 q 915 649 917 589 q 908 768 914 710 q 878 931 899 882 q 819 981 857 981 q 773 963 790 981 q 745 920 756 946 q 731 866 735 894 q 728 815 728 838 q 735 726 728 774 q 759 633 743 678 q 799 553 775 589 q 857 497 824 517 l 857 471 q 838 288 857 374 q 790 138 819 201 q 722 37 760 74 q 644 0 683 0 q 590 25 614 0 q 546 118 563 56 q 521 259 529 181 q 512 424 513 338 q 513 588 511 511 q 521 695 518 643 q 525 791 524 747 q 527 869 526 835 q 528 924 528 903 q 519 945 528 936 q 499 954 511 954 q 477 945 486 954 q 468 924 468 936 q 467 872 468 904 q 463 800 465 840 q 458 701 460 751 q 453 601 456 651 q 425 385 443 493 q 381 192 407 278 q 320 53 356 107 q 239 0 285 0 q 167 38 200 0 q 110 141 133 76 q 72 291 86 206 q 58 471 58 376 q 67 609 58 531 q 94 758 75 688 q 148 878 114 829 q 233 926 182 926 q 255 935 246 926 q 264 957 264 944 q 255 978 264 969 q 233 988 246 988 q 138 956 178 988 q 73 873 99 924 q 32 761 47 822 q 10 643 17 700 q 1 540 3 586 q -1 471 -1 493 q 16 263 -1 360 q 65 94 33 165 q 140 -19 96 22 q 239 -60 185 -60 q 315 -31 281 -60 q 376 43 349 -3 q 424 148 403 89 q 461 269 446 207 q 472 173 464 229 q 500 65 481 117 q 554 -24 519 13 q 644 -60 589 -60 q 751 -16 701 -60 q 838 101 801 28 q 896 270 875 174 q 917 471 917 367 l 917 479 q 941 487 932 479 q 950 510 950 494 m 788 815 q 789 838 788 822 q 793 872 790 854 q 802 903 796 889 q 817 921 808 917 q 828 897 822 915 q 840 841 835 879 q 851 739 846 803 q 857 576 856 675 q 806 681 825 615 q 788 815 788 747 "},"X":{"ha":694,"x_min":-4,"x_max":739,"o":"m 710 -32 q 617 -12 663 -32 q 528 44 571 8 q 446 131 485 81 q 372 240 407 181 q 487 430 432 329 q 586 622 542 531 q 663 788 631 714 q 711 900 696 863 q 710 923 715 911 q 694 939 706 935 q 683 942 686 942 q 656 922 663 942 q 511 606 589 761 q 340 301 433 450 q 285 428 310 363 q 240 560 260 493 q 276 624 263 593 q 297 674 290 656 q 313 721 304 692 q 327 784 321 750 q 335 853 333 818 q 328 915 336 888 q 303 961 321 943 q 251 979 285 979 l 242 979 q 178 953 201 976 q 146 897 156 931 q 136 820 136 863 q 142 735 136 778 q 156 656 147 693 q 169 594 164 619 q 172 584 171 589 q 175 572 174 579 q 137 535 156 549 q 100 522 118 522 q 80 514 89 522 q 71 493 71 506 q 80 472 71 481 q 100 463 89 463 q 151 474 128 463 q 194 506 175 486 q 244 369 217 435 q 303 244 271 304 q 169 86 231 140 q 64 32 108 32 q 40 36 51 32 q 29 39 32 39 q 1 19 8 39 q 1 -3 -4 8 q 17 -19 6 -14 q 63 -28 40 -28 q 197 32 128 -28 q 335 186 267 92 q 348 165 342 175 q 361 144 354 156 q 528 -32 440 28 q 710 -92 617 -92 q 731 -83 722 -92 q 739 -61 739 -74 q 731 -40 739 -49 q 710 -32 722 -32 m 215 908 q 242 925 228 925 q 261 915 251 925 q 274 887 269 907 q 276 838 278 867 q 265 772 274 808 q 242 694 257 735 q 231 668 236 681 q 219 643 226 656 q 201 753 206 706 q 199 833 197 800 q 205 884 200 865 q 215 908 210 903 "},"Y":{"ha":665,"x_min":-1,"x_max":594,"o":"m 529 954 q 510 944 518 953 q 501 924 501 936 q 496 734 501 835 q 479 534 490 633 q 450 344 468 435 q 406 185 432 254 q 347 74 381 115 q 272 33 314 33 q 200 66 233 33 q 143 157 167 99 q 106 296 119 215 q 92 471 92 376 l 92 497 q 149 553 125 517 q 190 633 174 589 q 213 726 206 678 q 221 815 221 774 q 217 866 221 838 q 204 920 214 894 q 176 963 194 946 q 129 981 158 981 q 71 931 92 981 q 40 768 50 882 q 33 649 35 710 q 32 539 32 589 q 8 532 18 539 q -1 510 -1 525 q 8 487 -1 494 q 32 479 18 479 l 32 471 q 44 298 32 378 q 80 156 57 218 q 135 51 103 93 q 207 -11 167 8 q 115 -67 151 -28 q 68 -150 79 -103 q 75 -239 57 -197 q 151 -317 97 -289 q 285 -344 206 -344 q 449 -267 379 -344 q 520 -140 492 -217 q 565 27 549 -64 q 588 218 581 118 q 594 416 594 318 q 590 603 594 514 q 578 763 585 693 q 567 876 572 832 q 561 928 563 921 q 551 947 560 939 q 529 954 542 956 m 132 921 q 147 903 142 918 q 156 872 153 889 q 160 839 160 856 q 161 815 161 822 q 142 681 161 747 q 93 576 124 615 q 99 739 94 675 q 108 841 103 803 q 120 897 114 879 q 132 921 126 915 m 403 -228 q 285 -285 353 -285 q 185 -267 225 -285 q 131 -215 144 -249 q 127 -161 119 -190 q 158 -108 135 -132 q 290 -58 207 -58 q 413 -83 349 -58 q 424 -86 421 -86 q 451 -67 444 -86 q 451 -44 456 -56 q 435 -28 446 -33 q 347 -4 386 -10 q 416 70 386 21 q 469 184 446 119 q 508 324 492 249 q 533 475 524 399 q 533 369 533 429 q 528 243 532 308 q 517 110 525 178 q 495 -21 510 42 q 458 -137 481 -83 q 403 -228 436 -190 "},"Z":{"ha":801,"x_min":-6,"x_max":1058,"o":"m 1021 -31 q 932 -46 972 -42 q 856 -50 892 -50 q 767 -43 807 -50 q 691 -24 726 -36 q 623 4 656 -11 q 557 36 590 19 q 488 71 524 54 q 413 103 453 88 q 514 241 463 164 q 613 401 565 318 q 704 565 661 483 q 781 716 747 646 q 840 839 815 786 q 874 917 864 892 q 875 919 875 917 q 876 922 875 919 l 876 925 l 876 928 l 876 931 l 876 933 q 875 936 876 935 l 875 939 q 872 944 875 939 l 868 949 q 865 950 867 950 q 863 953 865 953 q 857 956 860 956 q 853 957 856 957 q 850 958 850 957 l 847 958 q 842 957 844 958 q 836 956 839 957 q 831 953 836 956 q 801 941 815 944 q 761 938 786 938 q 729 938 747 938 q 688 940 711 939 q 590 945 647 943 q 451 947 533 947 q 376 936 414 947 q 310 903 339 925 q 263 849 281 882 q 244 775 244 817 q 257 715 244 744 q 294 661 269 685 q 358 622 319 638 q 447 607 396 607 q 468 616 460 607 q 476 638 476 625 q 468 659 476 650 q 447 668 460 668 q 338 701 372 668 q 304 775 304 735 q 313 816 304 796 q 340 852 322 836 q 386 878 358 868 q 451 888 414 888 q 588 885 532 888 q 685 881 644 883 q 728 878 708 879 q 765 876 749 876 q 778 876 772 876 q 792 878 785 876 q 741 769 771 831 q 676 639 711 707 q 601 499 640 571 q 519 360 561 428 q 435 231 478 292 q 350 122 392 169 q 274 135 314 131 q 186 140 233 140 q 15 93 54 140 q 0 32 -6 67 q 19 -8 4 7 q 54 -33 35 -24 q 97 -45 74 -42 q 140 -49 119 -49 q 268 -24 215 -49 q 369 54 321 1 q 453 21 414 39 q 531 -17 493 3 q 599 -51 564 -33 q 672 -81 633 -68 q 756 -103 711 -94 q 854 -111 801 -111 q 1033 -89 935 -111 q 1052 -76 1046 -86 q 1056 -53 1058 -65 q 1043 -33 1053 -36 q 1021 -31 1033 -31 m 301 71 q 227 25 263 39 q 139 11 192 11 q 117 12 129 11 q 92 16 104 13 q 72 26 81 19 q 58 43 63 32 q 61 54 58 49 q 99 72 69 64 q 186 81 129 81 q 247 78 218 81 q 301 71 275 75 "},"[":{"ha":300,"x_min":68,"x_max":229,"o":"m 199 31 q 192 30 196 31 q 182 29 188 29 l 147 29 l 131 29 q 131 142 131 71 q 131 299 131 214 q 130 476 131 385 q 129 651 129 568 q 128 799 129 733 q 128 900 128 865 l 190 900 q 211 908 203 900 q 219 929 219 917 q 211 951 219 942 q 190 960 203 960 l 99 960 q 77 951 86 960 q 68 929 68 942 q 68 872 68 928 q 69 728 68 815 q 69 536 69 642 q 70 330 69 431 q 71 145 71 229 q 71 18 71 61 q 85 -12 71 -3 q 113 -28 96 -24 q 153 -32 131 -32 q 168 -31 160 -32 q 185 -31 176 -31 q 215 -25 200 -31 q 229 0 229 -19 q 220 22 229 13 q 199 31 211 31 "},"\\":{"ha":657,"x_min":68,"x_max":586,"o":"m 140 975 q 99 996 119 996 q 77 988 86 996 q 68 967 68 979 q 75 947 68 956 q 93 938 82 939 q 135 881 108 928 q 193 765 161 835 q 262 608 225 694 q 334 429 299 521 q 403 249 369 338 q 463 85 436 160 q 506 -41 489 11 q 525 -111 522 -93 q 535 -131 526 -122 q 556 -139 543 -139 q 576 -131 568 -139 q 586 -110 585 -122 q 572 -56 586 -101 q 533 61 557 -10 q 476 220 508 132 q 408 403 444 308 q 334 590 372 497 q 260 760 296 682 q 194 895 225 838 q 140 975 163 953 "},"]":{"ha":300,"x_min":68,"x_max":229,"o":"m 226 910 q 218 936 226 926 q 197 951 210 946 q 170 958 185 956 q 143 960 156 960 q 128 959 136 960 q 113 958 119 958 q 83 953 97 958 q 68 928 68 949 q 84 903 68 907 q 115 899 100 899 l 149 899 l 167 899 q 167 785 167 857 q 167 628 167 714 q 167 451 167 543 q 168 277 168 360 q 168 129 168 194 q 168 29 168 64 l 107 29 q 85 20 94 29 q 76 -1 76 11 q 85 -23 76 -14 q 107 -32 94 -32 l 199 -32 q 219 -22 210 -32 q 229 -1 229 -12 q 229 56 229 0 q 228 199 229 113 q 228 392 228 286 q 227 598 228 497 q 226 783 226 699 q 226 910 226 867 "},"_":{"ha":694,"x_min":68,"x_max":624,"o":"m 593 31 l 99 31 q 77 22 86 31 q 68 0 68 13 q 77 -21 68 -12 q 99 -29 86 -29 l 593 -29 q 615 -21 606 -29 q 624 0 624 -12 q 615 22 624 13 q 593 31 606 31 "},"a":{"ha":582,"x_min":-7,"x_max":674,"o":"m 653 368 q 642 371 644 371 q 614 351 621 371 q 563 247 593 299 q 499 153 532 194 q 437 85 467 111 q 386 60 407 60 q 349 75 367 60 q 322 127 331 93 q 309 199 313 161 q 306 276 306 238 q 307 344 307 315 l 307 382 q 299 403 307 394 q 278 413 290 413 q 271 411 272 413 q 234 442 256 431 q 181 454 213 454 q 104 431 139 454 q 44 371 69 408 q 6 286 19 333 q -7 192 -7 239 q 36 53 -7 106 q 150 0 79 0 q 222 23 190 0 q 274 86 253 46 q 288 58 281 71 q 307 33 296 44 q 386 0 339 0 q 469 35 426 0 q 551 122 513 71 q 622 231 590 174 q 669 331 653 288 q 669 353 674 342 q 653 368 664 364 m 150 60 q 79 95 106 60 q 53 192 53 131 q 63 264 53 228 q 89 329 72 300 q 129 376 106 358 q 181 394 153 394 q 215 383 201 394 q 235 358 228 372 q 244 332 242 344 q 246 317 246 319 q 244 247 246 290 q 235 161 243 203 q 207 90 226 119 q 150 60 188 60 "},"b":{"ha":494,"x_min":-1,"x_max":589,"o":"m 567 368 q 556 371 558 371 q 528 351 538 371 q 497 301 515 321 q 456 272 479 282 q 406 259 433 263 q 347 256 379 256 q 338 328 347 293 q 310 392 329 364 q 262 437 292 419 q 190 454 232 454 q 153 450 172 454 q 115 435 135 446 q 150 565 135 496 q 173 696 165 633 q 178 808 181 758 q 158 885 175 858 q 107 914 140 914 q 63 894 82 914 q 34 844 46 878 q 15 755 22 810 q 5 624 7 700 q 4 444 3 547 q 4 420 4 439 q 3 374 4 401 q 2 313 3 346 q 1 244 1 279 q 1 181 1 213 q 0 122 0 150 q -1 97 -1 110 q -1 72 -1 85 l -1 69 l -1 36 q 8 15 -1 24 q 29 7 17 7 q 50 16 42 7 q 58 38 58 25 q 59 99 58 63 q 63 174 60 135 q 75 253 67 214 q 98 324 83 293 q 135 375 113 356 q 190 394 157 394 q 237 382 218 394 q 267 349 256 369 q 283 305 278 329 q 288 257 288 281 q 215 248 253 257 q 145 219 176 239 q 94 170 114 200 q 74 99 74 140 q 99 28 74 56 q 160 0 124 0 q 224 16 194 0 q 277 59 254 32 q 316 122 300 86 q 340 196 332 157 q 418 201 381 196 q 487 222 456 207 q 542 262 518 236 q 583 329 567 288 q 583 353 589 342 q 567 368 578 364 m 107 854 q 120 810 118 846 q 116 719 122 774 q 97 599 110 665 q 64 468 83 533 q 68 673 63 597 q 81 788 74 749 q 95 840 88 828 q 107 854 103 853 m 160 60 q 140 72 147 60 q 133 99 133 83 q 149 144 133 125 q 185 174 164 163 q 233 190 207 185 q 279 197 258 196 q 234 101 265 142 q 160 60 203 60 "},"c":{"ha":418,"x_min":-7,"x_max":511,"o":"m 490 368 q 479 371 482 371 q 451 351 458 371 q 399 247 431 299 q 328 153 367 194 q 248 85 290 111 q 164 60 206 60 q 123 64 143 60 q 88 82 103 68 q 63 122 72 96 q 53 192 53 149 q 63 264 53 228 q 89 329 72 300 q 129 376 106 358 q 181 394 153 394 q 210 385 204 394 q 219 368 217 376 q 212 319 224 344 q 181 288 200 294 q 165 271 169 282 q 165 249 160 260 q 193 229 172 229 q 204 232 196 229 q 239 256 224 240 q 264 292 254 272 q 278 335 274 313 q 278 379 282 358 q 245 435 271 415 q 181 454 219 454 q 104 431 139 454 q 44 371 69 408 q 6 286 19 333 q -7 192 -7 239 q 9 94 -7 132 q 49 36 25 57 q 104 8 74 15 q 164 0 135 0 q 276 33 222 0 q 374 115 329 65 q 453 223 419 165 q 507 331 488 281 q 506 353 511 342 q 490 368 501 364 "},"d":{"ha":589,"x_min":-6,"x_max":683,"o":"m 661 369 q 651 371 658 371 q 624 351 631 371 q 574 247 604 299 q 512 153 544 194 q 449 85 479 111 q 396 60 418 60 q 365 78 379 60 q 340 126 351 96 q 319 196 328 156 q 307 279 311 236 l 307 310 q 356 451 331 367 q 397 620 381 535 q 414 778 413 706 q 393 885 415 851 q 342 914 375 914 q 297 894 317 914 q 265 831 276 874 q 247 728 253 788 q 240 594 240 668 q 240 439 239 521 q 182 454 214 454 q 106 431 140 454 q 46 371 71 408 q 8 286 21 333 q -6 192 -6 239 q 10 88 -6 126 q 49 31 26 50 q 96 6 72 11 q 136 0 119 0 q 213 28 175 0 q 276 122 251 56 q 323 36 294 72 q 396 0 351 0 q 477 33 435 0 q 558 115 519 65 q 628 222 596 164 q 679 331 661 281 q 678 353 683 342 q 661 369 672 365 m 136 60 q 54 192 54 60 q 64 264 54 228 q 90 329 74 300 q 131 376 107 358 q 182 394 154 394 q 223 377 210 394 q 242 343 236 360 q 244 315 243 331 q 246 279 244 299 q 207 115 239 171 q 136 60 175 60 m 303 685 q 313 778 307 744 q 326 828 319 811 q 342 854 333 849 q 355 810 353 846 q 351 719 357 774 q 331 599 344 665 q 299 468 318 533 q 299 578 299 522 q 303 685 300 633 "},"e":{"ha":419,"x_min":-6,"x_max":513,"o":"m 492 368 q 481 371 483 371 q 453 351 460 371 q 400 247 432 299 q 330 153 368 194 q 249 85 292 111 q 165 60 207 60 q 109 69 136 60 q 67 114 82 79 q 142 146 107 122 q 204 203 178 169 q 245 278 231 238 q 260 358 260 318 q 241 424 260 394 q 182 454 222 454 q 106 431 140 454 q 46 371 71 408 q 8 286 21 333 q -6 192 -6 239 q -1 136 -6 161 q -1 134 -1 135 q 0 132 0 133 q 26 66 8 92 q 66 26 43 40 q 115 6 89 11 q 165 0 140 0 q 278 33 224 0 q 376 115 332 65 q 455 222 421 164 q 508 329 489 279 q 508 353 513 342 q 492 368 503 364 m 54 192 q 64 264 54 228 q 90 329 74 300 q 131 376 107 358 q 182 394 154 394 q 193 389 188 394 q 200 358 200 378 q 190 307 200 336 q 163 250 181 278 q 117 201 144 222 q 56 172 90 179 q 54 192 54 178 "},"f":{"ha":349,"x_min":-1,"x_max":443,"o":"m 43 -253 q 100 -279 65 -279 q 161 -251 139 -279 q 195 -185 183 -224 q 210 -106 207 -147 q 213 -36 213 -64 q 210 16 213 -12 q 206 76 208 44 q 272 113 238 88 q 337 171 306 138 q 394 245 368 204 q 438 331 421 286 q 438 353 443 342 q 421 368 432 364 q 410 371 413 371 q 382 351 392 371 q 346 279 368 314 q 299 217 324 244 q 247 168 274 189 q 196 136 219 147 q 163 257 185 201 q 107 336 142 313 q 138 426 122 376 q 166 531 153 476 q 189 639 179 585 q 202 741 199 693 q 201 826 206 789 q 183 885 197 864 q 132 914 165 914 q 86 894 106 914 q 53 825 65 872 q 35 713 40 778 q 30 567 31 647 q 31 397 29 488 q 30 386 31 392 q 29 374 29 381 q 27 339 28 357 q 26 301 26 321 q 24 277 25 290 q 21 249 24 264 q 5 86 11 165 q -1 -60 -1 7 q 9 -176 -1 -126 q 43 -253 19 -226 m 67 110 q 71 104 69 107 q 75 99 72 101 q 147 67 103 71 q 151 17 150 43 q 153 -36 153 -8 q 151 -76 153 -46 q 143 -137 149 -106 q 127 -194 138 -169 q 100 -219 117 -219 q 94 -219 97 -219 q 88 -214 90 -218 q 67 -165 74 -199 q 58 -85 60 -131 q 60 10 57 -40 q 67 110 63 61 m 93 685 q 103 776 97 743 q 116 827 110 810 q 126 849 122 844 q 131 854 131 854 q 144 810 142 846 q 140 719 146 774 q 122 599 135 665 q 89 468 108 533 q 89 578 88 522 q 93 685 90 633 m 86 274 q 113 219 100 256 q 138 129 126 182 q 119 140 124 135 q 94 197 101 160 q 86 274 88 233 "},"g":{"ha":558,"x_min":-6,"x_max":640,"o":"m 618 346 q 607 349 610 349 q 579 329 589 349 q 533 248 563 286 q 465 176 503 210 q 383 113 426 143 q 299 54 340 82 q 307 244 307 150 q 299 266 307 257 q 278 275 290 275 q 255 265 263 275 q 247 242 247 256 q 219 111 247 163 q 151 60 192 60 q 81 95 107 60 q 54 192 54 131 q 64 264 54 228 q 90 329 74 300 q 131 376 107 358 q 182 394 154 394 q 216 383 203 394 q 236 358 229 372 q 245 332 243 344 q 247 317 247 319 q 258 297 249 303 q 281 290 268 290 q 301 301 293 292 q 307 322 308 310 q 298 362 306 339 q 276 406 290 385 q 238 440 261 426 q 182 454 215 454 q 106 431 140 454 q 46 371 71 408 q 8 286 21 333 q -6 192 -6 239 q 38 53 -6 106 q 151 0 81 0 q 236 35 199 0 q 235 22 236 28 q 235 10 235 17 q 114 -92 164 -39 q 64 -210 64 -144 q 68 -242 64 -225 q 83 -274 72 -260 q 109 -299 93 -289 q 149 -310 125 -310 q 203 -285 181 -310 q 244 -221 226 -261 q 273 -129 261 -181 q 292 -24 285 -78 q 310 -11 300 -17 q 329 1 319 -6 q 420 65 374 32 q 508 135 467 97 q 583 215 549 172 q 636 308 617 258 q 635 331 640 319 q 618 346 629 342 m 149 -250 q 135 -244 140 -250 q 128 -231 131 -237 q 124 -210 125 -221 q 151 -140 124 -174 q 222 -74 178 -107 q 189 -202 208 -154 q 149 -250 169 -250 "},"h":{"ha":513,"x_min":-1,"x_max":606,"o":"m 585 368 q 574 371 576 371 q 546 351 553 371 q 494 247 525 299 q 431 153 464 194 q 369 85 399 111 q 318 60 339 60 q 310 63 310 60 q 301 86 303 69 q 299 124 299 103 q 300 168 299 144 q 303 213 301 192 q 308 278 306 246 q 308 338 310 310 q 299 389 306 365 q 276 429 292 413 q 213 456 250 456 q 147 427 178 456 q 89 354 115 399 q 132 494 111 415 q 165 651 153 574 q 178 791 178 728 q 158 885 178 854 q 107 914 140 914 q 63 894 82 914 q 34 844 46 878 q 15 755 22 810 q 5 624 7 700 q 4 444 3 547 q 4 420 4 439 q 3 374 4 401 q 2 312 3 346 q 1 243 1 278 q 0 143 0 190 q -1 67 0 96 l -1 57 l -1 36 q 8 15 -1 24 q 29 7 17 7 q 50 16 42 7 q 58 38 58 25 l 58 68 q 77 167 61 110 q 116 274 93 224 q 165 360 139 325 q 213 396 192 396 q 225 394 221 396 q 232 389 229 392 q 244 360 240 379 q 248 318 247 342 q 247 268 249 294 q 243 217 246 242 q 238 102 238 154 q 265 22 239 50 q 318 0 285 0 q 401 35 358 0 q 483 122 444 71 q 553 230 522 174 q 601 329 585 286 q 601 353 606 342 q 585 368 596 364 m 107 854 q 120 810 118 846 q 116 719 122 774 q 97 599 110 665 q 64 468 83 533 q 68 673 63 597 q 81 788 74 749 q 95 840 88 828 q 107 854 103 853 "},"i":{"ha":365,"x_min":22,"x_max":458,"o":"m 438 368 q 426 371 429 371 q 399 351 406 371 q 347 247 378 299 q 284 153 317 194 q 221 85 251 111 q 169 60 190 60 q 133 75 149 60 q 106 127 115 93 q 94 199 97 161 q 91 276 90 238 q 92 344 92 315 l 92 382 q 83 403 92 394 q 63 413 75 413 q 41 403 50 413 q 32 382 32 394 l 32 346 q 31 265 31 310 q 36 178 31 221 q 54 97 42 135 q 90 33 67 58 q 169 0 124 0 q 254 35 211 0 q 336 122 297 71 q 406 230 375 174 q 454 329 438 286 q 453 353 458 342 q 438 368 449 364 m 61 461 q 88 474 76 461 q 100 506 100 486 q 88 538 100 525 q 61 550 76 550 q 33 538 44 550 q 22 506 22 525 q 33 474 22 486 q 61 461 44 461 "},"j":{"ha":343,"x_min":-151,"x_max":425,"o":"m 404 346 q 393 349 396 349 q 365 329 372 349 q 318 248 349 286 q 249 176 288 210 q 168 111 211 142 q 83 53 125 81 q 90 165 88 110 q 92 265 92 219 q 91 341 92 310 q 90 383 90 372 q 81 404 90 396 q 60 413 72 413 q 39 403 47 413 q 31 382 31 394 q 31 201 33 300 q 19 10 29 101 q -47 -40 -17 -15 q -101 -92 -78 -65 q -138 -149 -125 -119 q -151 -210 -151 -178 q -147 -242 -151 -225 q -132 -274 -142 -260 q -106 -299 -122 -289 q -67 -310 -90 -310 q -39 -305 -56 -310 q -6 -282 -22 -300 q 45 -179 26 -250 q 75 -25 64 -108 q 94 -12 85 -18 q 114 1 104 -6 q 205 65 158 32 q 293 135 251 97 q 368 215 335 172 q 421 308 401 258 q 420 331 425 319 q 404 346 415 342 m 8 -72 q 1 -112 7 -83 q -15 -172 -6 -142 q -37 -226 -24 -203 q -67 -250 -50 -250 q -80 -244 -75 -250 q -87 -231 -85 -237 q -92 -210 -90 -221 q -64 -140 -92 -174 q 8 -72 -36 -107 m 74 461 q 101 474 90 461 q 113 506 113 486 q 101 538 113 525 q 74 550 90 550 q 47 538 58 550 q 36 506 36 525 q 47 474 36 486 q 74 461 58 461 "},"k":{"ha":483,"x_min":25,"x_max":576,"o":"m 556 368 q 544 371 547 371 q 517 351 524 371 q 465 247 496 299 q 402 153 435 194 q 340 85 369 111 q 289 60 310 60 q 252 72 268 60 q 225 101 236 83 q 206 138 214 118 q 193 175 197 158 q 271 221 232 185 q 306 260 288 238 q 337 308 324 283 q 355 360 350 333 q 351 408 360 386 q 329 438 346 421 q 272 454 313 454 q 173 413 219 454 q 92 307 126 371 l 92 317 q 151 467 124 383 q 192 633 178 551 q 208 781 207 714 q 189 882 208 849 q 136 914 172 914 q 92 894 111 914 q 63 844 75 878 q 44 755 51 810 q 35 624 38 700 q 33 444 32 547 q 30 374 32 415 q 26 281 28 332 q 25 174 25 231 q 28 58 25 117 l 28 36 q 37 15 28 24 q 58 7 46 7 q 79 16 71 7 q 88 38 88 25 l 88 63 q 106 180 89 121 q 149 287 122 239 q 208 365 175 335 q 272 394 240 394 q 285 393 276 394 q 296 386 293 392 q 295 365 299 379 q 283 335 292 351 q 261 300 275 318 q 231 265 247 282 q 202 244 218 254 q 168 233 186 233 q 154 236 160 236 q 138 231 144 236 q 126 203 124 219 q 133 168 126 200 q 157 99 139 136 q 207 31 175 61 q 289 0 239 0 q 372 35 329 0 q 454 122 415 71 q 524 230 493 174 q 572 329 556 286 q 572 353 576 342 q 556 368 567 364 m 136 854 q 148 813 146 847 q 145 726 150 778 q 127 610 140 674 q 93 482 114 547 q 97 678 92 606 q 110 790 103 751 q 124 841 117 829 q 136 854 132 853 "},"l":{"ha":371,"x_min":21,"x_max":465,"o":"m 443 369 q 433 371 440 371 q 404 351 411 371 q 356 247 385 299 q 294 153 326 194 q 231 85 261 111 q 178 60 200 60 q 144 80 160 60 q 117 134 129 100 q 98 212 106 168 q 86 303 90 256 q 87 305 86 304 q 88 307 88 306 q 121 395 104 344 q 152 503 138 446 q 178 618 167 560 q 193 728 189 676 q 194 822 197 781 q 175 885 190 863 q 124 914 157 914 q 78 894 100 914 q 44 822 56 872 q 26 702 32 772 q 21 546 21 632 q 22 365 21 460 l 24 361 q 25 313 24 346 q 32 241 26 281 q 48 158 38 201 q 76 81 58 115 q 118 23 93 46 q 178 0 143 0 q 259 33 217 0 q 340 115 301 65 q 410 222 378 164 q 461 331 443 281 q 460 353 465 342 q 443 369 454 365 m 85 685 q 95 778 89 744 q 108 828 101 811 q 124 854 115 849 q 137 810 135 846 q 133 719 139 774 q 113 599 126 665 q 81 468 100 533 q 81 578 81 522 q 85 685 82 633 "},"m":{"ha":781,"x_min":29,"x_max":875,"o":"m 853 368 q 842 371 844 371 q 814 351 824 371 q 763 247 793 299 q 700 153 732 194 q 638 85 668 111 q 586 60 607 60 q 578 63 581 60 q 569 86 572 69 q 567 124 567 103 q 568 168 567 144 q 571 213 569 192 q 576 278 574 246 q 576 338 578 310 q 567 389 574 365 q 544 429 560 413 q 481 456 518 456 q 408 421 442 456 q 347 335 375 386 q 320 419 344 382 q 243 456 296 456 q 160 410 199 456 q 93 303 122 365 q 95 372 94 343 q 94 410 96 401 q 86 431 94 422 q 65 439 78 439 q 44 430 53 439 q 35 408 35 421 q 35 385 35 403 q 34 343 35 368 q 33 288 33 318 q 32 225 32 257 q 31 134 31 179 q 29 63 31 89 l 29 50 l 29 29 q 38 8 29 17 q 60 0 47 0 q 81 9 72 0 q 89 31 89 18 l 89 63 q 108 162 92 104 q 147 272 124 219 q 196 360 169 324 q 243 396 222 396 q 260 392 254 396 q 271 385 267 389 q 285 348 282 372 q 288 293 289 324 q 284 231 288 263 q 276 169 281 199 q 271 117 274 142 q 268 72 268 93 q 267 58 267 67 q 276 37 267 46 q 297 28 285 28 q 322 42 317 28 q 328 72 328 57 q 347 171 331 115 q 385 276 363 226 q 434 361 408 326 q 481 396 460 396 q 493 394 489 396 q 500 389 497 392 q 512 360 508 379 q 516 318 515 342 q 515 268 517 294 q 511 217 514 242 q 506 102 506 154 q 533 22 507 50 q 586 0 556 0 q 669 35 626 0 q 751 122 713 71 q 822 230 790 174 q 869 329 853 286 q 869 353 875 342 q 853 368 864 364 "},"n":{"ha":544,"x_min":28,"x_max":639,"o":"m 617 368 q 606 371 608 371 q 578 351 588 371 q 526 247 557 299 q 464 153 496 194 q 401 85 432 111 q 350 60 371 60 q 342 63 342 60 q 333 86 335 69 q 331 124 331 103 q 332 168 331 144 q 335 213 333 192 q 340 278 338 246 q 340 338 342 310 q 331 389 338 365 q 308 429 324 413 q 244 456 282 456 q 201 443 222 456 q 160 409 179 431 q 124 358 140 388 q 92 297 107 329 q 94 370 93 339 q 93 410 94 401 q 85 431 93 422 q 64 439 76 439 q 42 430 51 439 q 33 408 33 421 q 33 385 33 403 q 33 343 33 368 q 31 288 32 318 q 31 226 31 257 q 30 160 31 193 q 28 99 29 126 q 28 53 28 72 q 28 29 28 35 q 37 8 28 17 q 58 0 46 0 q 84 15 78 0 q 90 51 90 29 q 98 115 90 79 q 117 190 106 151 q 145 265 129 228 q 178 331 161 301 q 213 378 196 360 q 244 396 231 396 q 257 394 253 396 q 264 389 261 392 q 276 360 272 379 q 280 318 279 342 q 279 268 281 294 q 275 217 278 242 q 270 102 269 154 q 297 22 271 50 q 350 0 319 0 q 433 35 390 0 q 515 122 476 71 q 585 231 554 174 q 633 331 617 288 q 633 353 639 342 q 617 368 628 364 "},"o":{"ha":389,"x_min":-1,"x_max":483,"o":"m 461 368 q 450 371 453 371 q 424 351 431 371 q 311 263 394 279 q 298 334 308 300 q 270 395 288 368 q 228 438 253 422 q 172 454 204 454 q 101 431 133 454 q 47 371 69 408 q 11 286 24 333 q -1 192 -1 239 q 38 53 -1 106 q 144 0 78 0 q 216 18 186 0 q 266 65 246 36 q 297 131 286 94 q 311 201 308 167 q 426 253 388 215 q 479 329 464 292 q 478 353 483 342 q 461 368 474 364 m 250 196 q 242 149 249 174 q 222 106 235 125 q 190 73 210 86 q 144 60 171 60 q 81 95 104 60 q 58 192 58 131 q 66 256 58 224 q 86 317 74 289 q 107 267 90 289 q 147 228 124 244 q 197 204 169 213 q 250 196 224 196 m 251 257 q 194 269 221 257 q 153 308 168 281 q 144 348 142 326 q 183 393 146 369 q 209 376 197 389 q 229 345 221 364 q 244 303 238 326 q 251 257 250 281 "},"p":{"ha":397,"x_min":-1,"x_max":325,"o":"m 183 454 q 131 441 157 454 q 81 399 104 428 q 75 426 81 414 q 50 439 69 439 q 29 430 38 439 q 21 410 21 421 q 19 367 21 400 q 17 286 18 333 q 14 182 15 239 q 10 67 13 125 q 6 -54 8 4 q 2 -159 4 -112 q -1 -237 0 -206 q -1 -279 -1 -269 q 7 -301 -1 -292 q 28 -310 15 -310 l 29 -310 q 49 -301 40 -310 q 58 -281 58 -293 q 59 -244 58 -272 q 61 -174 60 -215 q 65 -81 63 -132 q 68 24 67 -31 q 99 6 82 13 q 139 0 115 0 q 215 23 181 0 q 274 83 249 46 q 312 167 299 121 q 325 261 325 214 q 309 365 325 326 q 270 423 293 403 q 224 449 247 443 q 183 454 200 454 m 139 60 q 106 70 118 60 q 85 94 93 81 q 75 119 78 107 q 72 136 72 132 q 82 248 72 200 q 108 328 92 296 q 143 378 124 361 q 183 394 163 394 q 265 261 265 394 q 256 190 265 226 q 229 125 246 154 q 190 78 213 96 q 139 60 167 60 "},"q":{"ha":385,"x_min":-7,"x_max":313,"o":"m 283 439 q 258 425 265 439 q 224 446 243 438 q 181 454 206 454 q 104 431 139 454 q 44 371 69 408 q 6 286 19 333 q -7 192 -7 239 q 9 88 -7 126 q 48 31 25 50 q 94 6 71 11 q 135 0 118 0 q 190 15 163 0 q 242 61 218 29 q 238 -58 240 0 q 235 -161 236 -115 q 233 -238 233 -207 q 232 -279 232 -269 q 240 -301 231 -292 q 261 -310 249 -310 q 283 -301 274 -310 q 292 -281 292 -293 q 292 -238 292 -271 q 295 -158 293 -206 q 299 -51 297 -110 q 303 67 301 7 q 306 185 304 128 q 310 288 308 242 q 312 366 311 333 q 313 408 313 399 q 304 430 313 421 q 283 439 296 439 m 135 60 q 53 192 53 60 q 63 264 53 228 q 89 329 72 300 q 129 376 106 358 q 181 394 153 394 q 214 384 201 394 q 233 360 226 374 q 243 335 240 347 q 246 318 246 322 q 211 125 246 190 q 135 60 176 60 "},"r":{"ha":461,"x_min":-62,"x_max":554,"o":"m 532 368 q 521 371 524 371 q 494 351 501 371 q 442 247 474 299 q 379 153 411 194 q 317 85 347 111 q 265 60 286 60 q 256 63 258 60 q 249 83 250 69 q 248 116 247 97 q 251 155 249 135 q 256 193 254 175 q 261 249 258 221 q 263 303 264 278 q 256 351 263 329 q 236 389 250 372 q 212 406 228 397 q 171 415 196 415 q 114 424 143 415 q 117 475 118 450 q 106 519 117 500 q 70 555 92 543 q 21 567 49 567 q -44 521 -26 560 q -33 442 -62 482 q 44 386 -8 408 q 38 368 42 376 q 32 351 35 360 q 33 329 28 340 q 50 313 39 318 q 60 311 53 311 q 88 331 81 311 q 94 344 90 335 q 100 365 97 353 q 138 358 119 361 q 171 356 156 356 q 185 353 182 356 q 192 349 189 350 q 201 324 199 340 q 203 288 204 308 q 201 244 203 267 q 196 200 199 221 q 188 96 189 142 q 211 22 188 50 q 231 8 218 15 q 265 0 244 0 q 350 35 307 0 q 432 122 393 71 q 502 230 471 174 q 550 329 533 286 q 549 353 554 342 q 532 368 544 364 m 57 446 q 15 478 28 463 q 10 497 7 488 q 29 507 15 506 q 40 503 33 507 q 54 490 47 500 q 58 472 57 483 q 57 446 58 461 "},"s":{"ha":478,"x_min":-28,"x_max":571,"o":"m 549 368 q 538 371 540 371 q 510 351 519 371 q 484 311 500 331 q 440 273 468 292 q 369 237 413 254 q 260 204 325 219 q 248 232 254 218 q 235 260 242 246 q 220 294 228 276 q 206 329 213 313 q 197 360 200 346 q 197 382 194 374 q 221 406 204 406 q 235 402 228 406 q 250 399 243 399 q 258 401 256 399 q 269 422 268 410 q 261 443 269 435 q 244 458 257 451 q 217 468 232 464 q 187 474 201 472 q 164 476 172 476 q 91 444 126 475 q 32 351 56 413 q 33 329 28 340 q 49 313 38 318 q 60 311 53 311 q 88 329 81 311 q 153 421 118 404 q 144 410 150 418 q 135 372 135 393 q 142 329 136 351 q 159 283 149 307 q 181 233 169 258 q 192 211 186 222 q 201 189 197 200 q 147 176 175 182 q 86 164 118 171 q -1 115 26 151 q -25 44 -28 79 q 1 -13 -22 10 q 60 -40 24 -36 q 127 -35 97 -40 q 192 -12 157 -29 q 259 53 236 10 q 276 146 282 97 q 456 213 378 169 q 565 331 533 257 q 565 353 571 342 q 549 368 560 364 m 218 131 q 204 77 218 99 q 168 43 190 56 q 119 25 146 31 q 65 19 92 19 q 35 47 38 24 q 49 81 33 64 q 97 106 64 99 q 218 131 158 117 "},"t":{"ha":386,"x_min":-106,"x_max":479,"o":"m -106 536 q -97 516 -106 525 q -75 507 -87 507 l 35 507 q 35 437 35 472 q 38 365 36 401 l 38 361 q 40 313 38 346 q 47 241 42 281 q 63 158 53 201 q 90 81 72 115 q 132 23 107 46 q 192 0 157 0 q 273 33 231 0 q 353 115 315 65 q 424 222 392 164 q 475 331 457 281 q 474 353 479 342 q 457 369 468 365 q 447 371 454 371 q 419 351 426 371 q 370 247 400 299 q 308 153 340 194 q 244 85 275 111 q 192 60 214 60 q 158 80 174 60 q 131 134 143 100 q 112 212 119 168 q 100 303 104 256 q 101 305 100 304 q 101 307 101 306 q 135 397 118 344 q 167 507 151 449 l 256 507 q 277 516 268 507 q 286 536 286 525 q 277 558 286 549 q 256 567 268 567 l 181 567 q 199 665 192 617 q 209 756 207 714 q 206 832 211 799 q 189 885 201 865 q 138 914 171 914 q 93 894 113 914 q 49 774 61 861 q 35 567 38 688 l -75 567 q -97 558 -87 567 q -106 536 -106 549 m 94 567 q 97 627 96 597 q 99 685 97 657 q 109 778 103 744 q 122 828 115 811 q 138 854 129 849 q 149 822 146 849 q 149 757 151 796 q 140 669 147 718 q 121 567 132 619 l 94 567 m 96 468 q 94 488 94 478 q 94 507 94 497 l 106 507 q 101 488 103 497 q 96 468 99 478 "},"u":{"ha":642,"x_min":25,"x_max":735,"o":"m 31 325 q 26 231 28 283 q 34 130 25 178 q 68 46 43 82 q 143 0 93 10 q 184 3 168 0 q 224 21 200 6 q 274 78 251 42 q 315 160 297 115 q 328 103 319 132 q 353 52 338 75 q 391 15 368 29 q 447 0 414 0 q 531 35 488 0 q 613 122 574 71 q 683 230 651 174 q 731 329 714 286 q 730 353 735 342 q 714 368 725 364 q 703 371 706 371 q 675 351 682 371 q 624 247 654 299 q 560 153 593 194 q 498 85 528 111 q 447 60 468 60 q 410 75 428 60 q 383 127 392 93 q 370 199 374 161 q 367 276 367 238 q 368 344 368 315 l 368 390 q 367 393 368 390 q 367 394 367 393 l 364 397 q 363 400 364 400 q 360 404 363 399 q 357 407 357 407 q 354 408 356 407 q 351 410 354 408 q 349 411 351 410 l 346 411 q 343 413 346 411 l 335 413 q 332 411 333 413 l 329 411 q 324 408 329 411 l 322 407 q 319 406 322 407 l 317 403 q 315 400 317 401 l 314 399 q 313 396 313 397 l 310 390 l 310 388 q 301 340 307 371 q 287 272 296 308 q 265 197 278 235 q 236 129 253 160 q 199 79 219 99 q 154 60 179 60 q 109 92 124 65 q 90 158 94 119 q 86 240 85 197 q 90 321 88 283 q 92 354 92 339 q 93 382 93 369 q 84 403 93 394 q 63 413 75 413 q 42 403 50 413 q 33 382 33 394 q 33 356 33 371 q 31 325 32 342 "},"v":{"ha":475,"x_min":25,"x_max":568,"o":"m 547 368 q 536 371 539 371 q 508 351 515 371 q 354 257 472 263 q 364 343 364 300 q 325 415 364 396 q 292 424 311 424 q 244 408 268 424 q 208 364 221 393 q 200 299 196 335 q 225 240 203 263 q 278 206 247 217 q 242 129 263 164 q 199 75 222 94 q 177 63 185 65 q 154 60 169 60 q 110 92 125 65 q 90 158 96 119 q 87 240 85 197 q 90 321 89 283 q 92 354 92 339 q 93 382 93 369 q 85 403 93 394 q 64 413 76 413 q 42 403 51 413 q 33 382 33 394 q 33 356 33 371 q 31 325 32 342 q 26 231 28 283 q 35 130 25 178 q 69 46 44 82 q 143 0 93 10 q 192 4 174 0 q 238 29 211 8 q 295 101 269 57 q 338 196 321 146 q 431 210 392 197 q 496 242 469 222 q 539 285 522 261 q 564 331 556 308 q 563 353 568 342 q 547 368 558 364 m 294 263 q 270 279 279 269 q 260 304 261 289 q 278 360 256 344 q 292 364 286 364 q 297 363 296 364 q 303 353 303 360 q 304 343 304 347 q 302 303 304 324 q 294 263 300 283 "},"w":{"ha":749,"x_min":28,"x_max":842,"o":"m 821 368 q 808 371 813 371 q 782 351 789 371 q 628 257 746 263 q 638 343 638 300 q 599 415 638 396 q 565 424 585 424 q 518 408 542 424 q 482 364 494 393 q 474 299 469 335 q 499 240 476 263 q 551 206 521 217 q 516 129 536 164 q 472 75 496 94 q 451 63 458 65 q 428 60 443 60 q 385 92 399 65 q 366 157 371 119 q 363 238 361 194 q 368 317 365 281 q 370 352 369 336 q 371 382 371 368 q 343 413 371 410 q 323 406 332 414 q 311 386 314 397 q 304 338 310 369 q 290 271 299 307 q 268 197 281 235 q 239 129 256 160 q 202 79 222 99 q 157 60 182 60 q 112 92 126 65 q 92 158 97 119 q 89 240 88 197 q 93 321 90 283 q 95 354 94 339 q 96 382 96 369 q 87 403 96 394 q 65 413 78 413 q 44 403 53 413 q 36 382 36 394 q 35 356 36 371 q 33 325 35 342 q 29 231 31 283 q 37 130 28 178 q 71 46 46 82 q 146 0 96 10 q 161 -1 151 -1 q 212 12 189 -1 q 253 46 235 25 q 285 91 271 67 q 308 138 299 115 q 340 49 317 86 q 417 0 364 11 q 466 3 447 0 q 510 29 485 7 q 569 101 543 57 q 611 196 594 146 q 704 210 665 197 q 769 242 743 222 q 813 285 796 261 q 838 331 829 308 q 837 353 842 342 q 821 368 832 364 m 568 263 q 544 279 553 269 q 533 304 535 289 q 551 360 529 344 q 565 364 560 364 q 571 363 569 364 q 577 353 576 360 q 578 343 578 347 q 575 303 578 324 q 568 263 572 283 "},"x":{"ha":453,"x_min":-61,"x_max":547,"o":"m 525 368 q 514 371 517 371 q 486 351 496 371 q 435 249 467 301 q 366 155 403 197 q 291 86 329 113 q 221 60 253 60 q 140 82 176 60 q 198 144 169 110 q 251 217 226 179 q 297 295 276 256 q 332 372 318 335 q 332 394 338 383 q 315 410 326 406 q 304 413 307 413 q 276 393 283 413 q 203 253 250 326 q 101 128 157 181 q 78 234 78 171 q 101 374 78 297 q 99 397 106 386 q 82 411 93 408 q 74 413 79 413 q 44 392 51 413 q 19 222 17 300 q 54 90 22 143 q -32 60 8 60 q -53 51 -44 60 q -61 31 -61 42 q -53 9 -61 18 q -32 0 -44 0 q 92 44 28 0 q 221 0 144 0 q 316 32 268 0 q 408 113 364 64 q 487 221 451 163 q 543 331 522 279 q 542 353 547 342 q 525 368 536 364 "},"y":{"ha":625,"x_min":26,"x_max":707,"o":"m 686 346 q 675 349 678 349 q 647 329 654 349 q 600 248 631 286 q 531 176 569 210 q 450 111 493 142 q 365 53 407 81 q 372 165 369 110 q 374 265 374 219 q 374 341 375 310 q 374 383 374 372 q 364 404 372 396 q 342 413 356 413 q 322 405 331 413 q 311 386 313 397 q 293 283 306 333 q 264 190 281 232 q 228 116 247 147 q 189 69 210 85 q 163 58 175 58 q 159 59 160 58 q 156 60 158 60 q 110 92 125 65 q 91 158 96 119 q 88 240 86 197 q 92 321 89 283 q 94 354 93 339 q 94 382 94 369 q 85 403 94 394 q 64 413 76 413 q 44 403 53 413 q 35 382 35 394 q 34 356 35 371 q 32 325 33 342 q 28 231 29 283 q 36 130 26 178 q 70 46 46 82 q 144 0 94 10 q 185 3 169 0 q 225 21 201 6 q 272 72 250 40 q 311 144 293 104 q 306 76 308 110 q 301 10 304 42 q 235 -40 267 -15 q 181 -92 204 -65 q 144 -149 157 -119 q 131 -210 131 -178 q 135 -242 131 -225 q 150 -274 140 -260 q 176 -299 160 -289 q 215 -310 193 -310 q 243 -305 226 -310 q 276 -282 260 -300 q 327 -179 308 -250 q 357 -25 346 -108 q 376 -12 367 -18 q 396 1 386 -6 q 487 65 440 32 q 575 135 533 97 q 650 215 617 172 q 703 308 683 258 q 702 331 707 319 q 686 346 697 342 m 290 -72 q 283 -112 289 -83 q 267 -172 276 -142 q 245 -226 258 -203 q 215 -250 232 -250 q 202 -244 207 -250 q 194 -231 197 -237 q 190 -210 192 -221 q 218 -140 190 -174 q 290 -72 246 -107 "},"z":{"ha":444,"x_min":-28,"x_max":539,"o":"m 517 371 q 507 372 514 372 q 478 353 486 372 q 447 283 465 319 q 406 212 428 246 q 361 148 385 178 q 313 99 338 118 q 247 67 285 75 q 168 58 208 58 q 125 60 146 58 q 85 65 104 63 q 156 119 117 86 q 233 196 196 151 q 299 296 269 240 q 340 418 328 351 q 331 446 342 435 q 310 454 322 454 q 301 453 304 454 q 246 438 281 446 q 175 429 211 429 q 131 434 151 429 q 96 451 111 439 q 78 458 86 458 q 60 453 71 458 q 49 438 53 447 q 49 419 46 429 q 46 396 49 410 q 38 368 43 385 q 22 328 33 351 q 24 305 17 317 q 44 290 32 293 q 54 289 47 289 q 74 302 65 289 q 90 333 83 315 q 101 367 97 350 q 106 392 106 385 q 211 376 163 376 q 269 382 246 376 q 199 251 246 307 q 106 156 153 194 q 25 98 60 118 q -10 78 -10 78 q -28 49 -28 71 q -6 22 -25 29 q 11 18 -4 22 q 49 10 26 14 q 102 2 72 6 q 165 -1 132 -1 q 263 10 214 -1 q 350 51 311 21 q 407 109 379 75 q 458 181 435 143 q 501 259 482 219 q 533 332 521 299 q 533 354 539 343 q 517 371 528 365 "},"{":{"ha":381,"x_min":68,"x_max":310,"o":"m 281 31 q 273 30 278 31 q 264 29 268 29 l 229 29 l 213 29 q 213 142 213 71 q 212 299 213 214 q 211 476 211 385 q 210 651 211 568 q 210 799 210 733 q 210 900 210 865 l 272 900 q 292 908 283 900 q 301 929 301 917 q 292 951 301 942 q 272 960 283 960 l 179 960 q 158 950 167 960 q 150 929 150 940 q 150 891 150 928 q 150 794 150 854 q 151 656 150 733 q 151 494 151 578 l 75 494 q 70 485 72 494 q 68 464 68 476 q 70 443 68 451 q 75 435 72 435 l 151 435 q 151 306 151 369 q 152 188 151 243 q 153 90 153 133 q 153 18 153 46 q 165 -12 153 -3 q 194 -28 176 -24 q 235 -32 213 -32 q 250 -31 242 -32 q 267 -31 258 -31 q 296 -25 282 -31 q 310 0 310 -19 q 301 22 310 13 q 281 31 293 31 "},"|":{"ha":199,"x_min":68,"x_max":128,"o":"m 99 988 q 77 978 86 988 q 68 957 68 969 l 68 -44 q 77 -66 68 -57 q 99 -75 86 -75 q 119 -66 110 -75 q 128 -44 128 -57 l 128 957 q 119 978 128 969 q 99 988 110 988 "},"}":{"ha":381,"x_min":68,"x_max":310,"o":"m 301 494 l 226 494 l 226 910 q 218 936 226 926 q 197 951 210 946 q 170 958 185 956 q 143 960 156 960 q 128 959 136 960 q 113 958 119 958 q 83 953 97 958 q 68 928 68 949 q 84 903 68 907 q 115 899 100 899 l 149 899 l 167 899 q 167 785 167 857 q 167 628 167 714 q 167 451 167 543 q 168 277 168 360 q 168 129 168 194 q 168 29 168 64 l 107 29 q 85 20 94 29 q 76 -1 76 11 q 85 -23 76 -14 q 107 -32 94 -32 l 199 -32 q 219 -22 210 -32 q 229 -1 229 -12 q 229 38 229 0 q 228 135 229 75 q 228 274 228 196 q 228 435 228 351 l 301 435 q 307 443 304 435 q 310 464 310 451 q 307 485 310 476 q 301 494 304 494 "},"":{"ha":451,"x_min":0,"x_max":0,"o":""},"":{"ha":217,"x_min":68,"x_max":146,"o":"m 107 767 q 85 758 94 767 q 76 738 76 750 l 76 -122 q 85 -144 76 -135 q 107 -153 94 -153 q 128 -144 119 -153 q 136 -122 136 -135 l 136 738 q 128 758 136 750 q 107 767 119 767 m 107 828 q 134 841 122 828 q 146 874 146 854 q 134 906 146 893 q 107 918 122 918 q 80 906 92 918 q 68 874 68 893 q 80 841 68 854 q 107 828 92 828 "},"":{"ha":656,"x_min":68,"x_max":586,"o":"m 68 192 q 76 119 68 150 q 99 66 85 88 q 131 31 113 44 q 169 11 149 18 l 169 -44 q 178 -66 169 -57 q 200 -75 188 -75 q 221 -66 213 -75 q 229 -44 229 -57 l 229 0 l 239 0 q 351 33 297 0 q 450 115 406 65 q 528 222 494 164 q 582 329 563 279 q 581 353 586 342 q 565 368 576 364 q 554 371 557 371 q 526 351 533 371 q 474 247 506 299 q 403 153 442 194 q 323 85 365 111 q 239 60 281 60 l 229 60 l 229 389 q 242 393 236 392 q 256 394 249 394 q 285 385 279 394 q 294 368 292 376 q 287 319 299 344 q 256 288 275 294 q 240 271 244 282 q 240 249 235 260 q 268 229 247 229 q 279 232 271 229 q 314 256 299 240 q 340 292 329 272 q 353 335 350 313 q 353 379 357 358 q 320 435 346 415 q 256 454 294 454 q 242 453 249 454 q 229 451 236 453 l 229 533 q 221 554 229 546 q 200 563 213 563 q 178 554 188 563 q 169 533 169 546 l 169 424 q 95 324 122 389 q 68 192 68 260 m 169 76 q 139 117 150 90 q 128 192 128 143 q 139 269 128 231 q 169 338 150 307 l 169 76 "},"":{"ha":690,"x_min":68,"x_max":619,"o":"m 68 451 q 77 431 68 439 q 99 422 86 422 l 236 422 q 238 394 238 407 q 239 368 238 381 q 246 270 243 318 q 248 181 249 222 q 240 109 247 140 q 217 60 233 78 q 163 40 199 40 q 133 18 140 40 q 146 -15 126 -3 q 160 -24 147 -15 q 195 -43 174 -32 q 247 -66 217 -54 q 311 -87 276 -78 q 418 -103 369 -103 q 526 -82 476 -103 q 611 -19 575 -61 q 619 2 619 -10 q 610 22 619 14 q 589 31 601 31 q 567 21 576 31 q 497 -28 535 -15 q 418 -42 458 -42 q 322 -27 369 -42 q 240 3 275 -12 q 260 19 251 10 q 294 81 283 44 q 307 163 304 117 q 306 261 310 208 q 299 372 303 314 q 298 397 299 385 q 296 422 297 410 l 442 422 q 463 431 454 422 q 472 451 472 439 q 463 473 472 464 q 442 482 454 482 l 292 482 q 290 584 289 533 q 297 680 290 635 q 319 764 304 725 q 361 832 335 803 q 553 900 424 900 q 574 908 565 900 q 582 929 582 917 q 574 951 582 942 q 553 960 565 960 q 317 872 399 960 q 267 793 285 838 q 240 698 249 749 q 230 592 231 647 q 232 482 229 538 l 99 482 q 77 473 86 482 q 68 451 68 464 "},"":{"ha":881,"x_min":68,"x_max":771,"o":"m 99 539 q 77 531 86 539 q 68 510 68 522 q 77 488 68 497 q 99 479 86 479 l 101 479 l 101 471 q 342 69 101 69 q 414 88 378 69 q 406 68 406 82 q 415 47 406 56 q 436 39 424 39 l 575 39 q 553 -60 568 -4 q 513 -165 539 -115 q 449 -250 488 -215 q 354 -285 411 -285 q 254 -267 294 -285 q 200 -215 214 -249 q 197 -161 189 -190 q 228 -108 204 -132 q 360 -58 276 -58 q 482 -83 418 -58 q 493 -86 490 -86 q 521 -67 514 -86 q 520 -44 525 -56 q 504 -28 515 -33 q 360 1 429 1 q 185 -67 253 1 q 138 -150 149 -103 q 144 -239 126 -197 q 221 -317 167 -289 q 354 -344 275 -344 q 476 -306 426 -344 q 558 -209 525 -267 q 608 -85 590 -151 q 636 39 626 -18 l 742 39 q 763 47 754 39 q 771 68 771 56 q 763 90 771 81 q 742 99 754 99 l 646 99 q 650 141 649 119 q 654 185 651 163 l 742 185 q 763 193 754 185 q 771 214 771 201 q 763 235 771 226 q 742 244 754 244 l 658 244 q 663 405 663 325 q 660 559 664 485 q 653 698 657 633 q 644 812 649 763 q 635 892 639 861 q 631 928 632 922 q 620 947 629 939 q 599 954 611 956 q 579 944 588 953 q 571 924 571 936 q 566 760 571 851 q 549 574 561 668 q 517 394 538 481 q 468 244 497 307 q 451 206 461 226 q 427 169 442 186 q 392 140 413 151 q 342 129 371 129 q 313 131 331 129 q 276 142 296 132 q 235 172 256 151 q 198 231 214 193 q 172 327 182 268 q 161 471 161 386 l 161 497 q 219 553 194 517 q 259 633 243 589 q 283 726 275 678 q 290 815 290 774 q 286 875 290 847 q 272 922 282 903 q 235 971 257 961 q 199 981 214 981 q 140 931 161 981 q 110 768 119 882 q 103 649 104 710 q 101 539 101 589 l 99 539 m 231 815 q 212 681 231 747 q 163 576 193 615 q 168 739 164 675 q 178 841 172 803 q 190 897 183 879 q 201 921 196 915 q 217 903 211 918 q 226 872 222 889 q 230 839 229 856 q 231 815 231 822 m 436 99 l 432 99 q 503 185 472 131 l 594 185 q 590 140 592 161 q 585 99 588 118 l 436 99 m 532 244 q 574 372 557 303 q 601 514 590 442 q 603 474 603 494 q 603 435 603 454 q 599 244 603 332 l 532 244 "},"":{"ha":867,"x_min":65,"x_max":796,"o":"m 558 500 q 481 544 518 522 q 417 594 444 567 q 373 655 389 621 q 357 735 357 689 q 414 876 357 826 q 572 926 471 926 q 679 890 638 926 q 721 786 721 853 q 713 738 721 763 q 690 695 706 714 q 650 665 674 676 q 593 653 626 653 q 572 644 581 653 q 564 622 564 635 q 572 601 564 610 q 593 593 581 593 q 674 610 639 593 q 733 653 710 626 q 769 715 757 681 q 781 786 781 750 q 765 869 781 832 q 721 932 749 906 q 655 973 693 958 q 572 988 617 988 q 397 938 467 988 q 306 804 326 889 q 245 786 275 800 q 192 746 215 772 q 156 679 169 719 q 142 583 142 639 q 163 480 142 524 q 217 403 183 436 q 292 344 250 369 q 375 297 333 319 q 452 253 415 275 q 517 203 489 231 q 563 140 546 175 q 581 56 581 104 q 557 -48 581 -6 q 495 -117 533 -90 q 409 -154 457 -143 q 313 -165 361 -165 q 233 -150 267 -165 q 177 -111 199 -135 q 144 -58 156 -87 q 129 0 132 -29 q 133 68 126 33 q 160 133 140 103 q 211 186 179 164 q 289 217 243 208 q 308 230 301 219 q 313 253 315 240 q 299 271 310 265 q 278 276 289 276 q 180 237 221 265 q 113 169 139 208 q 76 84 86 129 q 69 -6 65 39 q 90 -86 74 -47 q 137 -156 107 -125 q 210 -206 167 -187 q 313 -225 254 -225 q 506 -181 435 -225 q 610 -74 578 -137 q 747 7 697 -67 q 796 207 796 81 q 774 313 796 268 q 719 391 753 357 q 642 451 685 425 q 558 500 600 478 m 633 -8 q 639 24 638 7 q 640 56 640 40 q 619 162 640 117 q 564 241 597 207 q 488 301 531 275 q 404 350 446 328 q 327 394 364 372 q 263 443 290 417 q 218 503 235 469 q 201 583 201 538 q 210 654 201 625 q 233 701 219 683 q 263 728 246 719 q 297 742 281 738 q 316 638 297 682 q 367 561 335 594 q 440 501 399 528 q 529 447 482 474 q 607 403 569 425 q 673 353 644 381 q 719 290 701 325 q 736 207 736 256 q 633 -8 736 24 "},"":{"ha":1149,"x_min":68,"x_max":1078,"o":"m 856 556 q 844 557 851 557 q 817 539 824 557 q 764 433 796 486 q 694 339 732 381 q 613 272 656 297 q 529 246 571 246 q 488 250 508 246 q 453 269 468 254 q 428 310 438 283 q 418 379 418 336 q 428 451 418 415 q 454 515 438 486 q 494 563 471 544 q 546 581 518 581 q 576 572 569 581 q 585 554 582 563 q 577 506 589 532 q 546 474 565 481 q 530 457 535 468 q 531 435 525 446 q 558 417 538 417 q 569 418 565 417 q 604 442 589 426 q 630 478 619 458 q 644 522 640 499 q 643 565 647 544 q 610 621 636 601 q 546 640 585 640 q 469 617 504 640 q 410 557 435 594 q 372 473 385 519 q 358 379 358 426 q 374 282 358 319 q 415 223 390 244 q 469 194 439 201 q 529 186 500 186 q 642 219 588 186 q 740 301 696 251 q 819 409 785 351 q 872 517 853 467 q 872 539 878 528 q 856 556 867 550 m 574 935 q 377 895 469 935 q 216 787 285 856 q 108 626 147 718 q 68 431 68 535 q 108 234 68 326 q 216 73 147 142 q 377 -35 285 4 q 574 -75 469 -75 q 769 -35 678 -75 q 930 73 861 4 q 1038 234 999 142 q 1078 431 1078 326 q 1038 626 1078 535 q 930 787 999 718 q 769 895 861 856 q 574 935 678 935 m 574 -15 q 401 20 482 -15 q 259 116 319 56 q 163 258 199 176 q 128 431 128 339 q 163 603 128 522 q 259 745 199 685 q 401 840 319 806 q 574 875 482 875 q 747 840 665 875 q 888 745 828 806 q 983 603 949 685 q 1018 431 1018 522 q 983 258 1018 339 q 888 116 949 176 q 747 20 828 56 q 574 -15 665 -15 "},"":{"ha":617,"x_min":68,"x_max":561,"o":"m 381 539 q 356 551 372 551 q 339 546 346 551 l 81 357 q 68 332 68 349 q 82 307 68 317 l 294 176 q 310 172 301 172 q 335 186 325 172 q 339 209 342 197 q 325 228 336 221 l 151 335 l 374 497 q 386 517 385 504 q 381 539 388 529 m 554 539 q 529 551 546 551 q 513 546 519 551 l 254 357 q 242 332 242 349 q 256 307 242 317 l 468 176 q 483 172 475 172 q 508 186 499 172 q 513 209 515 197 q 499 228 510 221 l 325 335 l 547 497 q 560 517 558 504 q 554 539 561 529 "},"":{"ha":0,"x_min":0,"x_max":0,"o":""},"":{"ha":369,"x_min":68,"x_max":299,"o":"m 183 935 q 101 901 135 935 q 68 819 68 868 q 101 738 68 771 q 183 704 135 704 q 265 738 232 704 q 299 819 299 771 q 265 901 299 868 q 183 935 232 935 m 183 764 q 144 780 160 764 q 128 819 128 796 q 144 859 128 843 q 183 875 160 875 q 223 859 207 875 q 239 819 239 843 q 223 780 239 796 q 183 764 207 764 "},"":{"ha":379,"x_min":68,"x_max":308,"o":"m 269 442 l 136 442 q 193 517 163 475 q 249 606 224 560 q 292 699 275 651 q 308 792 308 747 q 285 878 308 842 q 201 915 261 915 q 160 906 179 915 q 128 882 142 897 q 106 847 114 867 q 99 807 99 828 q 103 779 99 796 q 117 748 108 763 q 138 723 126 733 q 164 713 150 713 q 180 719 174 713 q 186 736 186 726 q 178 751 186 743 q 165 765 169 760 q 152 782 158 772 q 146 807 146 792 q 163 850 146 831 q 201 869 179 869 q 249 846 238 869 q 261 789 261 822 q 251 728 261 760 q 225 667 240 697 q 192 609 210 638 q 158 557 174 581 q 126 508 142 531 q 97 467 110 486 q 76 438 85 450 q 71 426 72 432 q 68 418 68 421 q 74 401 68 410 q 92 393 81 393 l 269 393 q 287 401 281 393 q 293 418 293 410 q 287 435 293 428 q 269 442 281 442 "},"":{"ha":419,"x_min":68,"x_max":349,"o":"m 349 558 q 322 649 349 611 q 246 707 294 686 q 297 754 278 726 q 315 822 315 782 q 290 889 315 863 q 219 915 264 915 q 152 888 179 915 q 125 821 125 860 q 128 801 125 813 q 138 778 132 789 q 154 760 144 768 q 176 753 164 753 q 194 760 188 753 q 201 775 201 767 q 194 792 201 785 q 189 796 192 793 q 183 799 183 799 q 176 806 179 801 q 174 822 174 810 q 187 856 174 842 q 219 869 200 869 q 267 822 267 869 q 256 779 267 797 q 226 749 244 761 q 185 732 208 738 q 139 726 163 726 q 122 720 129 726 q 114 703 114 714 q 122 685 114 692 q 139 679 129 679 q 199 672 169 679 q 251 651 228 665 q 288 613 274 636 q 301 558 301 590 q 277 471 301 506 q 196 436 253 436 q 140 459 165 436 q 115 513 115 482 q 122 541 115 531 q 139 560 129 551 q 157 572 147 563 q 167 590 167 581 q 160 607 167 600 q 143 614 153 614 q 133 611 139 614 q 85 571 103 596 q 68 513 68 546 q 78 465 68 488 q 107 426 89 443 q 148 399 125 410 q 196 389 171 389 q 312 438 275 389 q 349 558 349 488 "},"":{"ha":217,"x_min":68,"x_max":146,"o":"m 107 411 q 134 424 122 411 q 146 457 146 438 q 134 488 146 475 q 107 501 122 501 q 80 488 92 501 q 68 457 68 475 q 80 424 68 438 q 107 411 92 411 "},"":{"ha":263,"x_min":68,"x_max":192,"o":"m 186 875 q 192 890 192 881 q 185 908 192 900 q 169 915 179 915 q 151 907 163 915 q 136 893 147 904 q 117 880 128 886 q 90 872 106 874 q 68 847 68 869 q 76 830 68 835 q 93 825 83 825 q 126 832 108 825 q 117 708 118 771 q 117 585 117 646 q 117 503 117 544 q 118 419 118 461 l 118 415 q 126 400 119 407 q 143 393 132 393 q 160 401 154 393 q 167 418 167 410 q 165 502 167 460 q 164 588 164 544 q 164 621 164 597 q 165 674 164 644 q 167 735 165 703 q 169 794 168 767 q 174 842 171 822 q 179 868 176 863 q 182 872 182 871 q 184 874 183 874 q 186 875 185 874 "},"":{"ha":442,"x_min":68,"x_max":371,"o":"m 371 671 q 365 745 371 703 q 343 825 360 788 q 297 889 326 863 q 218 915 267 915 q 142 889 171 915 q 96 825 113 863 q 74 745 79 788 q 68 671 68 703 q 75 590 68 638 q 99 497 82 542 q 144 420 115 451 q 215 389 172 389 q 218 390 218 389 q 226 389 221 389 q 299 423 271 389 q 342 503 326 457 q 365 597 358 550 q 371 671 371 644 m 218 869 q 271 848 250 869 q 303 796 292 826 q 318 731 314 765 q 322 671 322 697 q 315 586 322 631 q 292 504 308 542 q 266 459 282 482 q 226 436 250 436 q 218 435 221 436 q 215 436 218 436 q 167 464 186 436 q 136 530 147 492 q 120 608 125 568 q 115 671 115 647 q 119 731 115 697 q 135 796 124 765 q 167 848 147 826 q 218 869 188 869 "},"":{"ha":617,"x_min":71,"x_max":564,"o":"m 78 189 q 103 176 86 176 q 119 182 113 176 l 378 371 q 390 396 390 379 q 376 421 390 411 l 164 551 q 149 556 158 556 q 124 542 133 556 q 119 519 117 531 q 133 500 122 507 l 307 393 l 85 231 q 72 211 74 224 q 78 189 71 199 m 251 189 q 276 176 260 176 q 293 182 286 176 l 551 371 q 564 396 564 379 q 550 421 564 411 l 338 551 q 322 556 332 556 q 297 542 307 556 q 293 519 290 531 q 307 500 296 507 l 481 393 l 258 231 q 246 211 247 224 q 251 189 244 199 "},"":{"ha":488,"x_min":53,"x_max":426,"o":"m 331 186 q 314 190 322 190 q 289 178 297 190 q 284 155 282 167 q 297 136 286 143 q 349 75 335 111 q 351 -1 364 39 q 310 -65 340 -40 q 244 -89 281 -89 q 161 -57 189 -89 q 132 126 115 -4 q 174 277 142 200 q 242 432 206 354 q 309 590 279 515 q 339 729 339 665 q 330 750 339 742 q 308 758 321 758 q 288 750 297 758 q 279 729 279 742 q 251 605 279 675 q 186 458 222 535 q 117 295 150 376 q 72 133 83 214 q 115 -96 53 -25 q 244 -149 161 -149 q 346 -113 300 -149 q 408 -19 392 -78 q 406 95 426 40 q 331 186 385 150 m 307 828 q 334 841 322 828 q 346 874 346 854 q 334 906 346 893 q 307 918 322 918 q 280 906 292 918 q 268 874 268 893 q 280 841 268 854 q 307 828 292 828 "},"":{"ha":878,"x_min":-1,"x_max":924,"o":"m 894 600 l 813 601 q 743 888 799 788 q 596 988 688 988 q 354 642 436 988 q 350 742 354 688 q 328 844 346 796 q 277 924 311 892 q 182 956 243 956 q 102 940 136 956 q 45 898 68 924 q 10 840 22 872 q -1 772 -1 807 q 15 689 -1 726 q 61 625 32 651 q 129 584 90 599 q 213 569 168 569 q 233 578 225 569 q 242 600 242 588 q 233 620 242 611 q 213 629 225 629 q 103 667 149 629 q 58 772 58 706 q 65 817 58 796 q 88 857 72 839 q 126 885 103 875 q 182 896 150 896 q 243 872 221 896 q 273 822 263 854 q 288 751 283 790 q 294 668 293 713 q 293 579 294 624 l 293 544 q 292 493 292 518 q 292 444 292 468 q 292 397 292 438 q 291 303 292 357 q 289 193 290 250 q 288 96 288 136 q 286 63 286 76 q 286 38 286 49 q 301 10 286 18 q 317 6 310 6 q 346 36 343 6 l 346 38 q 394 547 346 292 l 756 542 l 756 499 q 708 404 729 457 q 674 299 688 351 q 652 196 660 246 q 644 110 644 146 q 647 69 644 92 q 656 27 649 47 q 678 -6 664 7 q 718 -19 693 -19 q 776 30 756 -19 q 807 193 797 79 q 812 271 810 231 q 815 349 814 311 q 815 421 815 388 q 815 478 815 454 l 815 482 q 855 525 835 510 q 893 540 875 540 q 915 549 906 540 q 924 569 924 557 q 915 590 924 582 q 894 600 906 599 m 751 601 l 407 607 q 490 844 442 763 q 596 926 538 926 q 700 841 660 926 q 751 601 740 756 m 717 42 q 705 122 706 54 q 733 293 704 189 q 754 360 744 329 q 749 213 753 271 q 739 118 744 154 q 728 65 733 82 q 717 42 722 49 m 538 1115 l 601 1043 q 624 1033 610 1033 q 643 1040 633 1033 q 653 1061 653 1049 q 646 1083 654 1074 l 583 1156 q 560 1165 574 1165 q 540 1158 550 1165 q 530 1138 531 1150 q 538 1115 529 1125 "},"":{"ha":878,"x_min":-1,"x_max":924,"o":"m 894 600 l 813 601 q 743 888 799 788 q 596 988 688 988 q 354 642 436 988 q 350 742 354 688 q 328 844 346 796 q 277 924 311 892 q 182 956 243 956 q 102 940 136 956 q 45 898 68 924 q 10 840 22 872 q -1 772 -1 807 q 15 689 -1 726 q 61 625 32 651 q 129 584 90 599 q 213 569 168 569 q 233 578 225 569 q 242 600 242 588 q 233 620 242 611 q 213 629 225 629 q 103 667 149 629 q 58 772 58 706 q 65 817 58 796 q 88 857 72 839 q 126 885 103 875 q 182 896 150 896 q 243 872 221 896 q 273 822 263 854 q 288 751 283 790 q 294 668 293 713 q 293 579 294 624 l 293 544 q 292 493 292 518 q 292 444 292 468 q 292 397 292 438 q 291 303 292 357 q 289 193 290 250 q 288 96 288 136 q 286 63 286 76 q 286 38 286 49 q 301 10 286 18 q 317 6 310 6 q 346 36 343 6 l 346 38 q 394 547 346 292 l 756 542 l 756 499 q 708 404 729 457 q 674 299 688 351 q 652 196 660 246 q 644 110 644 146 q 647 69 644 92 q 656 27 649 47 q 678 -6 664 7 q 718 -19 693 -19 q 776 30 756 -19 q 807 193 797 79 q 812 271 810 231 q 815 349 814 311 q 815 421 815 388 q 815 478 815 454 l 815 482 q 855 525 835 510 q 893 540 875 540 q 915 549 906 540 q 924 569 924 557 q 915 590 924 582 q 894 600 906 599 m 751 601 l 407 607 q 490 844 442 763 q 596 926 538 926 q 700 841 660 926 q 751 601 740 756 m 717 42 q 705 122 706 54 q 733 293 704 189 q 754 360 744 329 q 749 213 753 271 q 739 118 744 154 q 728 65 733 82 q 717 42 722 49 m 554 1033 q 576 1043 568 1033 l 640 1115 q 648 1138 649 1125 q 638 1158 647 1150 q 618 1165 628 1165 q 594 1156 604 1165 l 532 1083 q 524 1061 524 1074 q 535 1040 525 1049 q 554 1033 544 1033 "},"":{"ha":878,"x_min":-1,"x_max":924,"o":"m 182 956 q 102 940 136 956 q 45 898 68 924 q 10 840 22 872 q -1 772 -1 807 q 15 689 -1 726 q 61 625 32 651 q 129 584 90 599 q 213 569 168 569 q 233 578 225 569 q 242 600 242 588 q 233 620 242 611 q 213 629 225 629 q 103 667 149 629 q 58 772 58 706 q 65 817 58 796 q 88 857 72 839 q 126 885 103 875 q 182 896 150 896 q 243 872 221 896 q 273 822 263 854 q 288 751 283 790 q 294 668 293 713 q 293 579 294 624 l 293 544 q 292 493 292 518 q 292 444 292 468 q 292 397 292 438 q 291 303 292 357 q 289 193 290 250 q 288 96 288 136 q 286 63 286 76 q 286 38 286 49 q 301 10 286 18 q 317 6 310 6 q 346 36 343 6 l 346 47 q 358 299 346 172 q 394 547 371 425 l 756 542 l 756 499 q 708 404 729 457 q 674 299 688 351 q 652 196 660 246 q 644 110 644 146 q 647 69 644 92 q 656 27 649 47 q 678 -6 664 7 q 718 -19 693 -19 q 776 30 756 -19 q 807 193 797 79 q 812 271 810 231 q 815 349 814 311 q 815 421 815 388 q 815 478 815 454 l 815 482 q 855 525 835 510 q 893 540 875 540 q 915 549 906 540 q 924 569 924 557 q 915 590 924 582 q 894 600 906 599 l 813 601 q 743 888 799 788 q 596 988 688 988 q 354 642 436 988 q 350 742 354 688 q 328 844 346 796 q 277 924 311 892 q 182 956 243 956 m 751 601 l 407 607 q 490 844 442 763 q 596 926 538 926 q 700 841 660 926 q 751 601 740 756 m 501 1083 q 494 1061 493 1074 q 504 1040 494 1049 q 524 1033 514 1033 q 546 1043 538 1033 l 586 1090 l 628 1043 q 650 1033 636 1033 q 669 1040 660 1033 q 680 1061 679 1049 q 672 1083 681 1074 l 610 1156 q 607 1157 608 1156 l 607 1158 l 606 1158 q 604 1159 604 1158 q 603 1160 604 1160 q 600 1161 601 1161 q 597 1163 600 1163 q 594 1164 597 1164 l 592 1164 q 589 1165 592 1165 l 583 1165 q 581 1164 583 1165 l 578 1164 q 575 1163 578 1164 q 574 1163 575 1163 l 571 1160 q 568 1158 569 1160 l 567 1158 q 566 1157 567 1157 q 565 1156 565 1157 l 564 1156 l 501 1083 m 717 42 q 705 122 706 54 q 733 293 704 189 q 754 360 744 329 q 749 213 753 271 q 739 118 744 154 q 728 65 733 82 q 717 42 722 49 "},"":{"ha":878,"x_min":-1,"x_max":924,"o":"m 894 600 l 813 601 q 743 888 799 788 q 596 988 688 988 q 354 642 436 988 q 350 742 354 688 q 328 844 346 796 q 277 924 311 892 q 182 956 243 956 q 102 940 136 956 q 45 898 68 924 q 10 840 22 872 q -1 772 -1 807 q 15 689 -1 726 q 61 625 32 651 q 129 584 90 599 q 213 569 168 569 q 233 578 225 569 q 242 600 242 588 q 233 620 242 611 q 213 629 225 629 q 103 667 149 629 q 58 772 58 706 q 65 817 58 796 q 88 857 72 839 q 126 885 103 875 q 182 896 150 896 q 243 872 221 896 q 273 822 263 854 q 288 751 283 790 q 294 668 293 713 q 293 579 294 624 l 293 544 q 292 493 292 518 q 292 444 292 468 q 292 397 292 438 q 291 303 292 357 q 289 193 290 250 q 288 96 288 136 q 286 63 286 76 q 286 38 286 49 q 301 10 286 18 q 317 6 310 6 q 346 36 343 6 l 346 38 q 394 547 346 292 l 756 542 l 756 499 q 708 404 729 457 q 674 299 688 351 q 652 196 660 246 q 644 110 644 146 q 647 69 644 92 q 656 27 649 47 q 678 -6 664 7 q 718 -19 693 -19 q 776 30 756 -19 q 807 193 797 79 q 812 271 810 231 q 815 349 814 311 q 815 421 815 388 q 815 478 815 454 l 815 482 q 855 525 835 510 q 893 540 875 540 q 915 549 906 540 q 924 569 924 557 q 915 590 924 582 q 894 600 906 599 m 751 601 l 407 607 q 490 844 442 763 q 596 926 538 926 q 700 841 660 926 q 751 601 740 756 m 717 42 q 705 122 706 54 q 733 293 704 189 q 754 360 744 329 q 749 213 753 271 q 739 118 744 154 q 728 65 733 82 q 717 42 722 49 m 501 1067 q 514 1064 510 1064 q 540 1079 532 1064 q 546 1078 542 1079 q 558 1074 550 1078 q 611 1058 583 1058 q 646 1065 631 1058 q 669 1079 661 1072 q 681 1098 681 1086 q 675 1119 682 1110 q 651 1132 667 1132 q 633 1126 644 1132 q 626 1122 632 1125 q 611 1118 621 1118 q 588 1125 601 1118 q 542 1139 564 1139 q 533 1139 538 1139 q 522 1136 528 1139 q 497 1120 506 1131 q 488 1107 489 1110 q 486 1085 482 1096 q 501 1067 490 1074 "},"":{"ha":878,"x_min":-1,"x_max":924,"o":"m 894 600 l 813 601 q 743 888 799 788 q 596 988 688 988 q 354 642 436 988 q 350 742 354 688 q 328 844 346 796 q 277 924 311 892 q 182 956 243 956 q 102 940 136 956 q 45 898 68 924 q 10 840 22 872 q -1 772 -1 807 q 15 689 -1 726 q 61 625 32 651 q 129 584 90 599 q 213 569 168 569 q 233 578 225 569 q 242 600 242 588 q 233 620 242 611 q 213 629 225 629 q 103 667 149 629 q 58 772 58 706 q 65 817 58 796 q 88 857 72 839 q 126 885 103 875 q 182 896 150 896 q 243 872 221 896 q 273 822 263 854 q 288 751 283 790 q 294 668 293 713 q 293 579 294 624 l 293 544 q 292 493 292 518 q 292 444 292 468 q 292 397 292 438 q 291 303 292 357 q 289 193 290 250 q 288 96 288 136 q 286 63 286 76 q 286 38 286 49 q 301 10 286 18 q 317 6 310 6 q 346 36 343 6 l 346 38 q 394 547 346 292 l 756 542 l 756 499 q 708 404 729 457 q 674 299 688 351 q 652 196 660 246 q 644 110 644 146 q 647 69 644 92 q 656 27 649 47 q 678 -6 664 7 q 718 -19 693 -19 q 776 30 756 -19 q 807 193 797 79 q 812 271 810 231 q 815 349 814 311 q 815 421 815 388 q 815 478 815 454 l 815 482 q 855 525 835 510 q 893 540 875 540 q 915 549 906 540 q 924 569 924 557 q 915 590 924 582 q 894 600 906 599 m 751 601 l 407 607 q 490 844 442 763 q 596 926 538 926 q 700 841 660 926 q 751 601 740 756 m 717 42 q 705 122 706 54 q 733 293 704 189 q 754 360 744 329 q 749 213 753 271 q 739 118 744 154 q 728 65 733 82 q 717 42 722 49 m 626 1054 q 653 1067 642 1054 q 665 1099 665 1079 q 653 1131 665 1118 q 626 1144 642 1144 q 599 1131 610 1144 q 588 1099 588 1118 q 599 1067 588 1079 q 626 1054 610 1054 m 526 1054 q 554 1067 543 1054 q 565 1099 565 1079 q 554 1131 565 1118 q 526 1144 543 1144 q 499 1131 511 1144 q 488 1099 488 1118 q 499 1067 488 1079 q 526 1054 511 1054 "},"":{"ha":878,"x_min":-1,"x_max":924,"o":"m 894 600 l 813 601 q 743 888 799 788 q 596 988 688 988 q 354 642 436 988 q 350 742 354 688 q 328 844 346 796 q 277 924 311 892 q 182 956 243 956 q 102 940 136 956 q 45 898 68 924 q 10 840 22 872 q -1 772 -1 807 q 15 689 -1 726 q 61 625 32 651 q 129 584 90 599 q 213 569 168 569 q 233 578 225 569 q 242 600 242 588 q 233 620 242 611 q 213 629 225 629 q 103 667 149 629 q 58 772 58 706 q 65 817 58 796 q 88 857 72 839 q 126 885 103 875 q 182 896 150 896 q 243 872 221 896 q 273 822 263 854 q 288 751 283 790 q 294 668 293 713 q 293 579 294 624 l 293 544 q 292 493 292 518 q 292 444 292 468 q 292 397 292 438 q 291 303 292 357 q 289 193 290 250 q 288 96 288 136 q 286 63 286 76 q 286 38 286 49 q 301 10 286 18 q 317 6 310 6 q 346 36 343 6 l 346 38 q 394 547 346 292 l 756 542 l 756 499 q 708 404 729 457 q 674 299 688 351 q 652 196 660 246 q 644 110 644 146 q 647 69 644 92 q 656 27 649 47 q 678 -6 664 7 q 718 -19 693 -19 q 776 30 756 -19 q 807 193 797 79 q 812 271 810 231 q 815 349 814 311 q 815 421 815 388 q 815 478 815 454 l 815 482 q 855 525 835 510 q 893 540 875 540 q 915 549 906 540 q 924 569 924 557 q 915 590 924 582 q 894 600 906 599 m 751 601 l 407 607 q 490 844 442 763 q 596 926 538 926 q 700 841 660 926 q 751 601 740 756 m 717 42 q 705 122 706 54 q 733 293 704 189 q 754 360 744 329 q 749 213 753 271 q 739 118 744 154 q 728 65 733 82 q 717 42 722 49 m 590 1015 q 651 1040 626 1015 q 675 1099 675 1064 q 651 1159 675 1135 q 590 1183 626 1183 q 531 1159 556 1183 q 507 1099 507 1135 q 531 1040 507 1064 q 590 1015 556 1015 m 590 1140 q 619 1128 607 1140 q 632 1099 632 1115 q 619 1070 632 1082 q 590 1058 607 1058 q 562 1070 574 1058 q 550 1099 550 1082 q 562 1128 550 1115 q 590 1140 574 1140 "},"":{"ha":1265,"x_min":-1,"x_max":1288,"o":"m 1100 725 q 1078 717 1088 725 q 1069 696 1069 708 q 1078 674 1069 683 q 1100 665 1088 665 q 1168 676 1135 665 q 1228 706 1201 686 q 1271 756 1254 726 q 1288 824 1288 786 q 1278 873 1288 849 q 1251 916 1269 897 q 1206 946 1232 935 q 1143 957 1179 957 q 1035 935 1085 957 q 951 877 986 914 q 897 790 917 840 q 878 683 878 740 q 893 600 878 639 l 813 601 q 743 888 799 788 q 596 988 688 988 q 354 642 436 988 q 350 742 354 688 q 328 844 346 796 q 277 924 311 892 q 182 956 243 956 q 102 940 136 956 q 45 898 68 924 q 10 840 22 872 q -1 772 -1 807 q 15 689 -1 726 q 61 625 32 651 q 129 584 90 599 q 213 569 168 569 q 233 578 225 569 q 242 600 242 588 q 233 620 242 611 q 213 629 225 629 q 103 667 149 629 q 58 772 58 706 q 65 817 58 796 q 88 857 72 839 q 126 885 103 875 q 182 896 150 896 q 243 872 221 896 q 273 822 263 854 q 288 751 283 790 q 294 668 293 713 q 293 579 294 624 l 293 544 q 292 493 292 518 q 292 444 292 468 q 292 397 292 438 q 291 303 292 357 q 289 193 290 250 q 288 96 288 136 q 286 63 286 76 q 286 38 286 49 q 301 10 286 18 q 317 6 310 6 q 338 15 332 6 q 346 38 344 24 q 394 547 346 292 l 756 542 l 756 499 q 708 404 729 457 q 674 299 688 351 q 652 196 660 246 q 644 110 644 146 q 647 69 644 92 q 656 27 649 47 q 678 -6 664 7 q 718 -19 693 -19 q 762 3 744 -19 q 790 75 779 25 q 868 -6 822 25 q 966 -53 914 -36 q 1075 -76 1018 -71 q 1186 -82 1132 -82 q 1206 -73 1197 -82 q 1214 -51 1215 -64 q 1205 -31 1214 -39 q 1183 -22 1196 -22 q 1085 -18 1136 -22 q 988 1 1035 -14 q 901 44 942 17 q 835 117 861 71 q 808 211 811 161 q 810 236 810 224 q 811 261 811 249 q 876 397 824 339 q 1000 485 929 456 q 1069 471 1032 471 q 1135 482 1101 471 q 1204 517 1169 493 q 1208 521 1204 517 q 1209 522 1208 522 q 1210 524 1210 522 q 1211 526 1211 525 q 1213 529 1213 526 q 1214 532 1213 529 l 1214 538 l 1214 540 l 1214 543 l 1214 546 q 1213 549 1213 547 q 1211 551 1213 550 q 1207 558 1211 553 l 1203 563 q 1200 564 1201 564 q 1197 565 1199 565 l 1192 568 l 1188 568 q 1163 570 1175 569 q 1138 571 1150 571 q 1004 550 1067 571 q 956 605 974 569 q 939 683 939 640 q 940 700 939 683 q 947 740 942 717 q 965 791 953 764 q 1000 842 978 818 q 1058 881 1022 865 q 1143 896 1093 896 q 1209 872 1190 896 q 1228 824 1228 849 q 1199 758 1228 788 q 1100 725 1161 725 m 751 601 l 407 607 q 490 844 442 763 q 596 926 538 926 q 700 841 660 926 q 751 601 740 756 m 751 267 q 749 213 747 236 q 733 88 742 124 q 717 42 724 51 q 705 122 706 54 q 733 293 704 189 q 754 360 744 329 q 753 310 754 333 q 751 267 753 288 m 942 524 q 872 478 904 504 q 815 417 840 451 l 815 478 l 815 482 q 855 525 835 510 q 893 540 875 540 q 918 553 910 540 q 942 524 928 538 "},"":{"ha":561,"x_min":-1,"x_max":629,"o":"m 356 601 q 335 593 344 601 q 326 572 326 585 q 335 551 326 560 q 356 542 344 542 q 455 556 406 542 q 543 599 504 571 q 606 671 582 628 q 629 769 629 714 q 617 837 629 803 q 579 897 604 871 q 515 940 554 924 q 424 957 476 957 q 272 929 338 957 q 160 856 207 901 q 81 756 113 811 q 32 644 50 700 q 6 539 14 589 q -1 457 -1 489 q 81 100 -1 233 q 321 -69 164 -33 q 324 -117 328 -94 q 303 -151 319 -140 q 295 -155 299 -154 q 289 -156 292 -156 q 278 -151 282 -156 q 266 -127 268 -142 q 271 -103 264 -112 q 267 -81 279 -90 q 257 -78 261 -78 q 243 -85 250 -78 q 234 -131 231 -104 q 254 -174 238 -157 q 289 -189 269 -189 q 321 -178 303 -189 q 352 -135 344 -162 q 354 -75 360 -107 q 394 -80 374 -78 q 438 -82 415 -82 q 458 -73 450 -82 q 467 -51 467 -64 q 458 -31 467 -40 q 438 -22 450 -22 q 246 22 319 -22 q 131 136 172 67 q 74 290 89 206 q 58 457 58 375 q 65 528 58 485 q 87 621 71 572 q 129 719 103 669 q 196 808 156 768 q 292 872 236 847 q 424 896 349 896 q 489 885 461 896 q 534 856 517 874 q 560 816 551 839 q 569 769 569 793 q 550 695 569 726 q 500 643 531 664 q 431 612 469 622 q 356 601 393 601 "},"":{"ha":515,"x_min":-7,"x_max":538,"o":"m 51 397 q -2 240 3 322 q 33 86 -7 157 q 74 33 47 63 q 144 -22 100 4 q 252 -65 188 -47 q 407 -82 317 -82 l 436 -82 q 457 -73 449 -82 q 465 -51 465 -64 q 455 -31 464 -39 q 433 -22 446 -22 q 335 -18 386 -22 q 238 1 285 -14 q 151 44 192 17 q 86 117 111 71 q 58 238 54 171 q 103 364 63 304 q 167 435 129 406 q 250 485 204 465 q 321 471 282 471 q 386 482 353 471 q 454 517 419 493 q 458 521 457 517 l 461 524 l 461 525 q 463 529 463 526 q 464 532 464 529 l 464 535 l 465 536 l 465 540 q 464 543 465 542 l 464 546 q 463 549 464 547 l 463 551 q 460 556 461 553 l 457 558 q 456 560 457 560 q 456 561 456 560 q 453 563 454 561 q 450 564 451 564 q 447 565 450 565 q 442 568 447 568 l 438 568 q 413 570 425 569 q 388 571 400 571 q 256 550 318 571 q 206 605 224 569 q 189 683 189 640 q 190 700 189 683 q 197 740 192 717 q 215 791 203 764 q 251 842 228 818 q 309 881 274 865 q 394 896 344 896 q 459 872 440 896 q 478 824 478 849 q 449 758 478 788 q 350 725 411 725 q 328 717 338 725 q 319 696 319 708 q 328 674 319 683 q 350 665 338 665 q 419 676 385 665 q 479 706 453 686 q 522 756 506 726 q 538 824 538 786 q 528 873 538 849 q 501 916 519 897 q 457 946 483 935 q 394 957 431 957 q 286 936 335 957 q 203 878 238 915 q 149 792 168 842 q 129 683 129 742 q 146 594 129 636 q 192 524 163 553 q 51 397 107 481 m 314 1158 q 305 1138 306 1150 q 311 1115 304 1125 l 375 1043 q 397 1033 383 1033 q 418 1040 407 1033 q 427 1061 426 1049 q 419 1083 428 1074 l 357 1156 q 335 1165 349 1165 q 314 1158 324 1165 "},"":{"ha":515,"x_min":-7,"x_max":538,"o":"m 51 397 q -2 240 3 322 q 33 86 -7 157 q 74 33 47 63 q 144 -22 100 4 q 252 -65 188 -47 q 407 -82 317 -82 l 436 -82 q 457 -73 449 -82 q 465 -51 465 -64 q 455 -31 464 -39 q 433 -22 446 -22 q 335 -18 386 -22 q 238 1 285 -14 q 151 44 192 17 q 86 117 111 71 q 58 238 54 171 q 103 364 63 304 q 167 435 129 406 q 250 485 204 465 q 321 471 282 471 q 386 482 353 471 q 454 517 419 493 q 458 521 457 517 l 461 524 l 461 525 q 463 529 463 526 q 464 532 464 529 l 464 535 l 465 536 l 465 540 q 464 543 465 542 l 464 546 q 463 549 464 547 l 463 551 q 460 556 461 553 l 457 558 q 456 560 457 560 q 456 561 456 560 q 453 563 454 561 q 450 564 451 564 q 447 565 450 565 q 442 568 447 568 l 438 568 q 413 570 425 569 q 388 571 400 571 q 256 550 318 571 q 206 605 224 569 q 189 683 189 640 q 190 700 189 683 q 197 740 192 717 q 215 791 203 764 q 251 842 228 818 q 309 881 274 865 q 394 896 344 896 q 459 872 440 896 q 478 824 478 849 q 449 758 478 788 q 350 725 411 725 q 328 717 338 725 q 319 696 319 708 q 328 674 319 683 q 350 665 338 665 q 419 676 385 665 q 479 706 453 686 q 522 756 506 726 q 538 824 538 786 q 528 873 538 849 q 501 916 519 897 q 457 946 483 935 q 394 957 431 957 q 286 936 335 957 q 203 878 238 915 q 149 792 168 842 q 129 683 129 742 q 146 594 129 636 q 192 524 163 553 q 51 397 107 481 m 275 1083 q 269 1061 268 1074 q 278 1040 269 1049 q 299 1033 289 1033 q 321 1043 313 1033 l 385 1115 q 391 1138 392 1125 q 382 1158 390 1150 q 361 1165 372 1165 q 339 1156 347 1165 l 275 1083 "},"":{"ha":515,"x_min":-7,"x_max":538,"o":"m 51 397 q -2 240 3 322 q 33 86 -7 157 q 74 33 47 63 q 144 -22 100 4 q 252 -65 188 -47 q 407 -82 317 -82 l 436 -82 q 457 -73 449 -82 q 465 -51 465 -64 q 455 -31 464 -39 q 433 -22 446 -22 q 335 -18 386 -22 q 238 1 285 -14 q 151 44 192 17 q 86 117 111 71 q 58 238 54 171 q 103 364 63 304 q 167 435 129 406 q 250 485 204 465 q 321 471 282 471 q 386 482 353 471 q 454 517 419 493 q 458 521 457 517 l 461 524 l 461 525 q 463 529 463 526 q 464 532 464 529 l 464 535 l 465 536 l 465 540 q 464 543 465 542 l 464 546 q 463 549 464 547 l 463 551 q 460 556 461 553 l 457 558 q 456 560 457 560 q 456 561 456 560 q 453 563 454 561 q 450 564 451 564 q 447 565 450 565 q 442 568 447 568 l 438 568 q 413 570 425 569 q 388 571 400 571 q 256 550 318 571 q 206 605 224 569 q 189 683 189 640 q 190 700 189 683 q 197 740 192 717 q 215 791 203 764 q 251 842 228 818 q 309 881 274 865 q 394 896 344 896 q 459 872 440 896 q 478 824 478 849 q 449 758 478 788 q 350 725 411 725 q 328 717 338 725 q 319 696 319 708 q 328 674 319 683 q 350 665 338 665 q 419 676 385 665 q 479 706 453 686 q 522 756 506 726 q 538 824 538 786 q 528 873 538 849 q 501 916 519 897 q 457 946 483 935 q 394 957 431 957 q 286 936 335 957 q 203 878 238 915 q 149 792 168 842 q 129 683 129 742 q 146 594 129 636 q 192 524 163 553 q 51 397 107 481 m 275 1083 q 269 1061 268 1074 q 278 1040 269 1049 q 299 1033 289 1033 q 321 1043 313 1033 l 361 1090 l 403 1043 q 425 1033 411 1033 q 444 1040 435 1033 q 455 1061 454 1049 q 447 1083 456 1074 l 382 1157 l 382 1158 l 381 1158 q 379 1159 379 1158 q 378 1160 379 1160 q 375 1161 376 1161 q 372 1163 375 1163 q 369 1164 372 1164 l 367 1164 q 364 1165 367 1165 l 358 1165 q 356 1164 358 1165 l 353 1164 q 350 1163 353 1164 q 349 1163 350 1163 l 346 1160 q 343 1158 343 1160 l 342 1158 q 341 1157 342 1157 q 340 1156 340 1157 l 339 1156 l 275 1083 "},"":{"ha":515,"x_min":-7,"x_max":538,"o":"m 51 397 q -2 240 3 322 q 33 86 -7 157 q 74 33 47 63 q 144 -22 100 4 q 252 -65 188 -47 q 407 -82 317 -82 l 436 -82 q 457 -73 449 -82 q 465 -51 465 -64 q 455 -31 464 -39 q 433 -22 446 -22 q 335 -18 386 -22 q 238 1 285 -14 q 151 44 192 17 q 86 117 111 71 q 58 238 54 171 q 103 364 63 304 q 167 435 129 406 q 250 485 204 465 q 321 471 282 471 q 386 482 353 471 q 454 517 419 493 q 458 521 457 517 l 461 524 l 461 525 q 463 529 463 526 q 464 532 464 529 l 464 535 l 465 536 l 465 540 q 464 543 465 542 l 464 546 q 463 549 464 547 l 463 551 q 460 556 461 553 l 457 558 q 456 560 457 560 q 456 561 456 560 q 453 563 454 561 q 450 564 451 564 q 447 565 450 565 q 442 568 447 568 l 438 568 q 413 570 425 569 q 388 571 400 571 q 256 550 318 571 q 206 605 224 569 q 189 683 189 640 q 190 700 189 683 q 197 740 192 717 q 215 791 203 764 q 251 842 228 818 q 309 881 274 865 q 394 896 344 896 q 459 872 440 896 q 478 824 478 849 q 449 758 478 788 q 350 725 411 725 q 328 717 338 725 q 319 696 319 708 q 328 674 319 683 q 350 665 338 665 q 419 676 385 665 q 479 706 453 686 q 522 756 506 726 q 538 824 538 786 q 528 873 538 849 q 501 916 519 897 q 457 946 483 935 q 394 957 431 957 q 286 936 335 957 q 203 878 238 915 q 149 792 168 842 q 129 683 129 742 q 146 594 129 636 q 192 524 163 553 q 51 397 107 481 m 407 1144 q 379 1131 390 1144 q 368 1099 368 1118 q 379 1067 368 1079 q 407 1054 390 1054 q 434 1067 422 1054 q 446 1099 446 1079 q 434 1131 446 1118 q 407 1144 422 1144 m 307 1144 q 280 1131 292 1144 q 268 1099 268 1118 q 280 1067 268 1079 q 307 1054 292 1054 q 335 1067 324 1054 q 346 1099 346 1079 q 335 1131 346 1118 q 307 1144 324 1144 "},"":{"ha":425,"x_min":-1,"x_max":354,"o":"m 286 915 q 182 956 246 956 q 102 940 136 956 q 45 898 68 924 q 10 840 22 872 q -1 772 -1 807 q 15 689 -1 726 q 61 625 32 651 q 129 584 90 599 q 213 569 168 569 q 233 578 225 569 q 242 600 242 588 q 233 620 242 611 q 213 629 225 629 q 103 667 149 629 q 58 772 58 706 q 65 817 58 796 q 88 857 72 839 q 126 885 103 875 q 182 896 150 896 q 243 872 221 896 q 274 816 264 851 q 290 736 285 781 q 294 642 294 692 q 293 544 294 593 q 292 493 292 518 q 292 444 292 468 q 292 413 292 438 q 290 360 292 389 q 288 276 289 319 q 286 206 286 233 q 274 74 286 121 q 239 6 261 28 q 186 -19 217 -15 q 119 -22 156 -22 q 98 -31 107 -22 q 89 -53 89 -40 q 98 -74 89 -65 q 119 -83 107 -83 q 217 -72 175 -83 q 288 -30 260 -61 q 331 58 317 1 q 346 206 346 115 q 347 276 346 233 q 350 358 349 318 q 352 413 351 390 q 351 446 353 436 q 352 493 351 469 q 353 543 353 517 q 354 653 354 599 q 348 757 354 708 q 328 847 342 806 q 286 915 314 888 m 122 1115 l 185 1043 q 208 1033 194 1033 q 228 1040 218 1033 q 238 1061 238 1049 q 231 1083 239 1074 l 167 1156 q 144 1165 158 1165 q 125 1158 135 1165 q 115 1138 115 1150 q 122 1115 114 1125 "},"":{"ha":425,"x_min":-1,"x_max":354,"o":"m 286 915 q 182 956 246 956 q 102 940 136 956 q 45 898 68 924 q 10 840 22 872 q -1 772 -1 807 q 15 689 -1 726 q 61 625 32 651 q 129 584 90 599 q 213 569 168 569 q 233 578 225 569 q 242 600 242 588 q 233 620 242 611 q 213 629 225 629 q 103 667 149 629 q 58 772 58 706 q 65 817 58 796 q 88 857 72 839 q 126 885 103 875 q 182 896 150 896 q 243 872 221 896 q 274 816 264 851 q 290 736 285 781 q 294 642 294 692 q 293 544 294 593 q 292 493 292 518 q 292 444 292 468 q 292 413 292 438 q 290 360 292 389 q 288 276 289 319 q 286 206 286 233 q 274 74 286 121 q 239 6 261 28 q 186 -19 217 -15 q 119 -22 156 -22 q 98 -31 107 -22 q 89 -53 89 -40 q 98 -74 89 -65 q 119 -83 107 -83 q 217 -72 175 -83 q 288 -30 260 -61 q 331 58 317 1 q 346 206 346 115 q 347 276 346 233 q 350 358 349 318 q 352 413 351 390 q 351 446 353 436 q 352 493 351 469 q 353 543 353 517 q 354 653 354 599 q 348 757 354 708 q 328 847 342 806 q 286 915 314 888 m 144 1033 q 167 1043 158 1033 l 231 1115 q 238 1138 239 1125 q 228 1158 238 1150 q 207 1165 218 1165 q 185 1156 193 1165 l 122 1083 q 115 1061 114 1074 q 125 1040 115 1049 q 144 1033 135 1033 "},"":{"ha":425,"x_min":-1,"x_max":354,"o":"m -1 772 q 15 689 -1 726 q 61 625 32 651 q 129 584 90 599 q 213 569 168 569 q 233 578 225 569 q 242 600 242 588 q 233 620 242 611 q 213 629 225 629 q 103 667 149 629 q 58 772 58 706 q 65 817 58 796 q 88 857 72 839 q 126 885 103 875 q 182 896 150 896 q 243 872 221 896 q 274 816 264 851 q 290 736 285 781 q 294 642 294 692 q 293 544 294 593 q 292 493 292 518 q 292 444 292 468 q 292 413 292 438 q 290 360 292 389 q 288 276 289 319 q 286 206 286 233 q 274 74 286 121 q 239 6 261 28 q 186 -19 217 -15 q 119 -22 156 -22 q 98 -31 107 -22 q 89 -53 89 -40 q 98 -74 89 -65 q 119 -83 107 -83 q 217 -72 175 -83 q 288 -30 260 -61 q 331 58 317 1 q 346 206 346 115 q 347 276 346 233 q 350 358 349 318 q 352 413 351 390 q 351 446 353 436 q 352 493 351 469 q 353 543 353 517 q 354 653 354 599 q 348 757 354 708 q 328 847 342 806 q 286 915 314 888 q 182 956 246 956 q 102 940 136 956 q 45 898 68 924 q 10 840 22 872 q -1 772 -1 807 m 90 1083 q 83 1061 82 1074 q 93 1040 83 1049 q 113 1033 103 1033 q 135 1043 126 1033 l 176 1090 l 217 1043 q 239 1033 226 1033 q 260 1040 250 1033 q 270 1061 269 1049 q 263 1083 271 1074 l 199 1156 q 196 1158 196 1158 l 194 1158 l 193 1160 q 190 1161 192 1161 q 188 1163 189 1163 q 185 1164 186 1164 l 182 1164 q 179 1165 181 1165 l 174 1165 q 171 1164 171 1165 l 168 1164 q 165 1163 165 1164 q 163 1161 163 1163 q 160 1160 161 1161 q 157 1158 158 1160 l 90 1083 "},"":{"ha":425,"x_min":-1,"x_max":354,"o":"m 286 915 q 182 956 246 956 q 102 940 136 956 q 45 898 68 924 q 10 840 22 872 q -1 772 -1 807 q 15 689 -1 726 q 61 625 32 651 q 129 584 90 599 q 213 569 168 569 q 233 578 225 569 q 242 600 242 588 q 233 620 242 611 q 213 629 225 629 q 103 667 149 629 q 58 772 58 706 q 65 817 58 796 q 88 857 72 839 q 126 885 103 875 q 182 896 150 896 q 243 872 221 896 q 274 816 264 851 q 290 736 285 781 q 294 642 294 692 q 293 544 294 593 q 292 493 292 518 q 292 444 292 468 q 292 413 292 438 q 290 360 292 389 q 288 276 289 319 q 286 206 286 233 q 274 74 286 121 q 239 6 261 28 q 186 -19 217 -15 q 119 -22 156 -22 q 98 -31 107 -22 q 89 -53 89 -40 q 98 -74 89 -65 q 119 -83 107 -83 q 217 -72 175 -83 q 288 -30 260 -61 q 331 58 317 1 q 346 206 346 115 q 347 276 346 233 q 350 358 349 318 q 352 413 351 390 q 351 446 353 436 q 352 493 351 469 q 353 543 353 517 q 354 653 354 599 q 348 757 354 708 q 328 847 342 806 q 286 915 314 888 m 226 1054 q 253 1067 242 1054 q 265 1099 265 1079 q 253 1131 265 1118 q 226 1144 242 1144 q 199 1131 210 1144 q 188 1099 188 1118 q 199 1067 188 1079 q 226 1054 210 1054 m 126 1054 q 153 1067 142 1054 q 165 1099 165 1079 q 153 1131 165 1118 q 126 1144 142 1144 q 99 1131 111 1144 q 88 1099 88 1118 q 99 1067 88 1079 q 126 1054 111 1054 "},"":{"ha":919,"x_min":-1,"x_max":849,"o":"m 849 451 q 840 474 849 467 q 815 482 831 482 l 815 490 q 758 858 815 728 q 596 988 701 988 q 513 960 550 988 q 445 885 475 932 q 393 775 415 838 q 354 643 371 713 q 349 743 354 689 q 328 844 344 797 q 277 924 311 892 q 182 956 243 956 q 102 940 136 956 q 45 898 68 924 q 10 840 22 872 q -1 772 -1 807 q 15 689 -1 726 q 61 625 32 651 q 129 584 90 599 q 213 569 168 569 q 233 578 225 569 q 242 600 242 588 q 233 620 242 611 q 213 629 225 629 q 103 667 149 629 q 58 772 58 706 q 65 817 58 796 q 88 857 72 839 q 126 885 103 875 q 182 896 150 896 q 243 872 221 896 q 274 816 264 851 q 290 736 285 781 q 294 642 294 692 q 293 544 294 593 q 292 493 292 518 q 292 444 292 468 q 292 392 292 436 q 291 291 292 349 q 289 174 290 233 q 288 78 288 115 q 287 61 288 68 q 286 49 286 54 q 286 38 286 42 q 301 10 286 18 q 317 6 310 6 q 338 15 332 6 q 346 38 344 24 q 396 553 346 299 q 482 831 431 735 q 596 926 533 926 q 661 899 635 926 q 706 828 688 871 q 733 731 724 785 q 748 626 743 678 q 754 531 753 575 q 756 464 756 488 q 698 408 722 444 q 658 328 674 372 q 634 235 642 283 q 626 146 626 188 q 630 95 626 124 q 643 41 633 67 q 671 -2 653 15 q 718 -19 689 -19 q 777 30 757 -19 q 807 193 797 79 q 814 312 813 251 q 815 421 815 372 q 819 422 817 422 q 840 431 832 422 q 849 451 849 439 m 715 40 q 701 58 707 44 q 692 90 694 72 q 688 123 689 107 q 686 146 686 139 q 705 279 686 214 q 756 385 724 344 q 749 223 754 288 q 739 120 744 158 q 727 64 733 82 q 715 40 721 46 m 440 1067 q 454 1064 449 1064 q 479 1079 471 1064 q 485 1078 481 1079 q 497 1074 489 1078 q 550 1058 522 1058 q 585 1065 569 1058 q 610 1079 600 1072 q 620 1098 619 1086 q 614 1119 621 1110 q 590 1132 606 1132 q 572 1126 583 1132 q 565 1122 571 1125 q 550 1118 560 1118 q 526 1125 540 1118 q 482 1139 504 1139 q 463 1136 468 1139 q 437 1120 444 1131 q 426 1107 429 1110 q 425 1085 421 1096 q 440 1067 429 1074 "},"":{"ha":699,"x_min":-1,"x_max":628,"o":"m 561 588 q 538 600 553 600 q 519 593 529 600 q 508 574 510 586 q 514 551 507 561 q 552 477 539 519 q 567 388 565 435 q 559 292 569 342 q 526 197 549 243 q 439 87 490 126 q 329 47 388 47 q 218 76 264 47 q 142 151 172 106 q 95 249 113 196 q 70 350 78 301 q 60 435 63 399 q 58 483 58 472 q 60 523 58 488 q 70 609 61 558 q 98 717 79 660 q 151 823 117 774 q 238 904 185 872 q 365 936 290 936 q 440 915 406 936 q 497 853 474 893 q 525 767 521 813 q 511 690 529 722 q 492 663 504 678 q 460 633 479 647 q 412 610 440 619 q 344 601 383 601 q 323 593 332 601 q 314 572 314 585 q 323 551 314 560 q 344 542 332 542 q 475 572 418 542 q 564 661 532 603 q 585 767 589 707 q 549 883 581 828 q 469 967 517 938 q 365 996 422 996 q 196 947 265 996 q 83 824 126 899 q 19 658 39 749 q -1 483 -1 568 q 16 309 -1 397 q 72 149 33 221 q 174 33 111 78 q 329 -12 238 -12 q 471 35 404 -12 q 581 171 538 83 q 615 270 603 217 q 628 379 628 324 q 613 488 628 435 q 561 588 597 542 m 260 1115 l 322 1043 q 344 1033 331 1033 q 365 1040 356 1033 q 375 1061 375 1049 q 368 1083 375 1074 l 304 1156 q 282 1165 296 1165 q 263 1158 272 1165 q 252 1138 253 1150 q 260 1115 251 1125 "},"":{"ha":699,"x_min":-1,"x_max":628,"o":"m 561 588 q 538 600 553 600 q 519 593 529 600 q 508 574 510 586 q 514 551 507 561 q 552 477 539 519 q 567 388 565 435 q 559 292 569 342 q 526 197 549 243 q 439 87 490 126 q 329 47 388 47 q 218 76 264 47 q 142 151 172 106 q 95 249 113 196 q 70 350 78 301 q 60 435 63 399 q 58 483 58 472 q 60 523 58 488 q 70 609 61 558 q 98 717 79 660 q 151 823 117 774 q 238 904 185 872 q 365 936 290 936 q 440 915 406 936 q 497 853 474 893 q 525 767 521 813 q 511 690 529 722 q 492 663 504 678 q 460 633 479 647 q 412 610 440 619 q 344 601 383 601 q 323 593 332 601 q 314 572 314 585 q 323 551 314 560 q 344 542 332 542 q 475 572 418 542 q 564 661 532 603 q 585 767 589 707 q 549 883 581 828 q 469 967 517 938 q 365 996 422 996 q 196 947 265 996 q 83 824 126 899 q 19 658 39 749 q -1 483 -1 568 q 16 309 -1 397 q 72 149 33 221 q 174 33 111 78 q 329 -12 238 -12 q 471 35 404 -12 q 581 171 538 83 q 615 270 603 217 q 628 379 628 324 q 613 488 628 435 q 561 588 597 542 m 282 1033 q 304 1043 296 1033 l 368 1115 q 375 1138 375 1125 q 365 1158 375 1150 q 344 1165 356 1165 q 322 1156 331 1165 l 260 1083 q 252 1061 251 1074 q 263 1040 253 1049 q 282 1033 272 1033 "},"":{"ha":699,"x_min":-1,"x_max":628,"o":"m 365 996 q 196 947 265 996 q 83 824 126 899 q 19 658 39 749 q -1 483 -1 568 q 16 309 -1 397 q 72 149 33 221 q 174 33 111 78 q 329 -12 238 -12 q 471 35 404 -12 q 581 171 538 83 q 615 270 603 217 q 628 379 628 324 q 613 488 628 435 q 561 588 597 542 q 538 600 553 600 q 519 593 529 600 q 508 574 510 586 q 514 551 507 561 q 552 477 539 519 q 567 388 565 435 q 559 292 569 342 q 526 197 549 243 q 439 87 490 126 q 329 47 388 47 q 218 76 264 47 q 142 151 172 106 q 95 249 113 196 q 70 350 78 301 q 60 435 63 399 q 58 483 58 472 q 60 523 58 488 q 70 609 61 558 q 98 717 79 660 q 151 823 117 774 q 238 904 185 872 q 365 936 290 936 q 440 915 406 936 q 497 853 474 893 q 525 767 521 813 q 511 690 529 722 q 492 663 504 678 q 460 633 479 647 q 412 610 440 619 q 344 601 383 601 q 323 593 332 601 q 314 572 314 585 q 323 551 314 560 q 344 542 332 542 q 475 572 418 542 q 564 661 532 603 q 585 767 589 707 q 549 883 581 828 q 469 967 517 938 q 365 996 422 996 m 228 1083 q 220 1061 219 1074 q 231 1040 221 1049 q 250 1033 240 1033 q 272 1043 264 1033 l 314 1090 l 354 1043 q 376 1033 363 1033 q 396 1040 386 1033 q 406 1061 406 1049 q 399 1083 407 1074 l 336 1156 q 333 1158 333 1157 l 332 1158 l 331 1160 q 328 1161 331 1160 q 325 1163 326 1163 q 322 1164 324 1164 l 319 1164 q 317 1165 318 1165 l 311 1165 q 307 1164 308 1165 l 304 1164 q 303 1164 304 1164 l 300 1161 q 297 1160 297 1161 q 294 1158 296 1160 l 293 1158 q 290 1156 292 1156 l 228 1083 "},"":{"ha":699,"x_min":-1,"x_max":628,"o":"m 561 588 q 538 600 553 600 q 519 593 529 600 q 508 574 510 586 q 514 551 507 561 q 552 477 539 519 q 567 388 565 435 q 559 292 569 342 q 526 197 549 243 q 439 87 490 126 q 329 47 388 47 q 218 76 264 47 q 142 151 172 106 q 95 249 113 196 q 70 350 78 301 q 60 435 63 399 q 58 483 58 472 q 60 523 58 488 q 70 609 61 558 q 98 717 79 660 q 151 823 117 774 q 238 904 185 872 q 365 936 290 936 q 440 915 406 936 q 497 853 474 893 q 525 767 521 813 q 511 690 529 722 q 492 663 504 678 q 460 633 479 647 q 412 610 440 619 q 344 601 383 601 q 323 593 332 601 q 314 572 314 585 q 323 551 314 560 q 344 542 332 542 q 475 572 418 542 q 564 661 532 603 q 585 767 589 707 q 549 883 581 828 q 469 967 517 938 q 365 996 422 996 q 196 947 265 996 q 83 824 126 899 q 19 658 39 749 q -1 483 -1 568 q 16 309 -1 397 q 72 149 33 221 q 174 33 111 78 q 329 -12 238 -12 q 471 35 404 -12 q 581 171 538 83 q 615 270 603 217 q 628 379 628 324 q 613 488 628 435 q 561 588 597 542 m 232 1067 q 244 1064 240 1064 q 271 1079 263 1064 q 276 1078 272 1079 q 289 1074 281 1078 q 342 1058 314 1058 q 376 1065 361 1058 q 400 1079 392 1072 q 411 1098 410 1086 q 406 1119 413 1110 q 382 1132 397 1132 q 364 1126 375 1132 q 356 1122 361 1125 q 340 1118 350 1118 q 318 1125 332 1118 q 272 1139 294 1139 q 263 1139 268 1139 q 253 1136 258 1139 q 227 1120 235 1131 q 218 1107 219 1110 q 217 1085 213 1096 q 232 1067 221 1074 "},"":{"ha":699,"x_min":-1,"x_max":628,"o":"m 561 588 q 538 600 553 600 q 519 593 529 600 q 508 574 510 586 q 514 551 507 561 q 552 477 539 519 q 567 388 565 435 q 559 292 569 342 q 526 197 549 243 q 439 87 490 126 q 329 47 388 47 q 218 76 264 47 q 142 151 172 106 q 95 249 113 196 q 70 350 78 301 q 60 435 63 399 q 58 483 58 472 q 60 523 58 488 q 70 609 61 558 q 98 717 79 660 q 151 823 117 774 q 238 904 185 872 q 365 936 290 936 q 440 915 406 936 q 497 853 474 893 q 525 767 521 813 q 511 690 529 722 q 492 663 504 678 q 460 633 479 647 q 412 610 440 619 q 344 601 383 601 q 323 593 332 601 q 314 572 314 585 q 323 551 314 560 q 344 542 332 542 q 475 572 418 542 q 564 661 532 603 q 585 767 589 707 q 549 883 581 828 q 469 967 517 938 q 365 996 422 996 q 196 947 265 996 q 83 824 126 899 q 19 658 39 749 q -1 483 -1 568 q 16 309 -1 397 q 72 149 33 221 q 174 33 111 78 q 329 -12 238 -12 q 471 35 404 -12 q 581 171 538 83 q 615 270 603 217 q 628 379 628 324 q 613 488 628 435 q 561 588 597 542 m 363 1054 q 390 1067 379 1054 q 401 1099 401 1079 q 390 1131 401 1118 q 363 1144 379 1144 q 335 1131 347 1144 q 324 1099 324 1118 q 335 1067 324 1079 q 363 1054 347 1054 m 264 1054 q 291 1067 279 1054 q 303 1099 303 1079 q 291 1131 303 1118 q 264 1144 279 1144 q 236 1131 247 1144 q 225 1099 225 1118 q 236 1067 225 1079 q 264 1054 247 1054 "},"":{"ha":543,"x_min":68,"x_max":474,"o":"m 76 306 q 68 284 68 296 q 76 263 68 272 q 99 254 88 254 q 119 263 111 254 l 271 414 l 422 263 q 443 254 431 254 q 464 263 456 254 q 474 284 474 272 q 464 306 474 296 l 313 457 l 464 607 q 474 629 474 617 q 464 650 474 642 q 443 658 456 658 q 422 650 431 658 l 271 499 l 119 650 q 99 658 111 658 q 76 650 88 658 q 68 629 68 642 q 76 607 68 617 l 228 457 l 76 306 "},"":{"ha":699,"x_min":-1,"x_max":628,"o":"m 561 588 q 538 600 553 600 q 519 593 529 600 q 508 574 510 586 q 514 551 507 561 q 552 477 539 519 q 567 388 565 435 q 559 292 569 342 q 526 197 549 243 q 439 87 490 126 q 329 47 388 47 q 241 65 279 47 q 175 110 203 82 q 245 317 206 203 q 326 547 285 432 q 344 542 338 542 q 475 572 418 542 q 564 661 532 603 q 585 767 589 707 q 549 883 581 828 q 489 953 522 928 q 522 1015 508 990 q 547 1046 536 1039 q 565 1057 558 1049 q 572 1078 572 1065 q 563 1101 572 1092 q 542 1111 554 1111 q 500 1088 521 1111 q 472 1046 488 1072 q 438 982 456 1019 q 365 996 406 996 q 196 947 265 996 q 83 824 126 899 q 19 658 39 749 q -1 483 -1 568 q 5 378 -1 432 q 24 274 11 325 q 58 178 38 224 q 108 94 79 132 q 69 -35 83 15 q 54 -96 54 -86 q 64 -118 56 -108 q 85 -128 72 -128 q 106 -118 97 -126 q 114 -97 114 -110 q 127 -44 117 -82 q 156 47 138 -7 q 233 3 190 19 q 329 -12 276 -12 q 471 35 404 -12 q 581 171 538 83 q 615 270 603 217 q 628 379 628 324 q 613 488 628 435 q 561 588 597 542 m 464 896 q 497 853 483 876 q 525 767 521 813 q 511 690 529 722 q 492 663 504 678 q 460 634 481 647 q 413 611 440 621 q 346 601 385 601 q 407 760 378 685 q 464 896 436 835 m 132 167 q 91 263 106 211 q 69 360 76 314 q 60 440 61 406 q 58 483 58 474 q 60 523 58 488 q 70 609 61 558 q 98 717 79 660 q 151 823 117 774 q 238 904 185 872 q 365 936 290 936 q 413 928 390 936 q 342 757 379 853 q 267 559 304 661 q 194 356 229 457 q 132 167 160 254 "},"":{"ha":674,"x_min":-1,"x_max":696,"o":"m 667 6 q 611 28 633 6 q 576 94 589 51 q 559 190 564 138 q 554 301 554 243 q 554 414 554 360 q 556 467 556 442 q 556 517 556 493 q 556 569 556 525 q 558 670 557 613 q 559 787 558 728 q 561 883 560 846 l 561 924 q 546 951 561 943 q 532 956 540 956 q 517 951 524 956 q 507 943 510 947 q 503 924 504 939 l 501 924 q 488 665 501 794 q 451 408 475 535 q 365 130 417 226 q 251 33 314 33 q 185 64 214 33 q 135 151 156 94 q 103 289 114 208 q 92 471 92 369 l 92 497 q 149 553 125 517 q 190 633 174 589 q 213 726 206 678 q 221 815 221 774 q 217 875 221 847 q 203 922 213 903 q 166 971 188 961 q 129 981 144 981 q 71 931 92 981 q 40 768 50 882 q 33 649 35 710 q 32 539 32 589 q 8 532 18 539 q -1 510 -1 525 q 8 487 -1 494 q 32 479 18 479 l 32 471 q 90 103 32 233 q 251 -26 147 -26 q 335 1 297 -26 q 402 76 372 29 q 455 186 432 124 q 494 318 478 249 q 495 249 494 289 q 501 169 496 210 q 516 88 506 128 q 546 16 526 47 q 594 -35 565 -15 q 667 -54 624 -54 q 688 -45 679 -54 q 696 -24 696 -36 q 688 -3 696 -11 q 667 6 679 6 m 132 921 q 147 903 142 917 q 156 872 153 889 q 160 840 160 856 q 161 815 161 824 q 142 681 161 747 q 93 576 124 615 q 99 739 94 675 q 108 841 103 803 q 120 897 114 879 q 132 921 126 915 m 293 1115 l 357 1043 q 379 1033 365 1033 q 399 1040 389 1033 q 409 1061 408 1049 q 401 1083 410 1074 l 338 1156 q 315 1165 328 1165 q 296 1158 306 1165 q 285 1138 286 1150 q 293 1115 285 1125 "},"":{"ha":674,"x_min":-1,"x_max":696,"o":"m 667 6 q 611 28 633 6 q 576 94 589 51 q 559 190 564 138 q 554 301 554 243 q 554 414 554 360 q 556 467 556 442 q 556 517 556 493 q 556 569 556 525 q 558 670 557 613 q 559 787 558 728 q 561 883 560 846 l 561 924 q 546 951 561 943 q 532 956 540 956 q 517 951 524 956 q 507 943 510 947 q 503 924 504 939 l 501 924 q 488 665 501 794 q 451 408 475 535 q 365 130 417 226 q 251 33 314 33 q 185 64 214 33 q 135 151 156 94 q 103 289 114 208 q 92 471 92 369 l 92 497 q 149 553 125 517 q 190 633 174 589 q 213 726 206 678 q 221 815 221 774 q 217 875 221 847 q 203 922 213 903 q 166 971 188 961 q 129 981 144 981 q 71 931 92 981 q 40 768 50 882 q 33 649 35 710 q 32 539 32 589 q 8 532 18 539 q -1 510 -1 525 q 8 487 -1 494 q 32 479 18 479 l 32 471 q 90 103 32 233 q 251 -26 147 -26 q 335 1 297 -26 q 402 76 372 29 q 455 186 432 124 q 494 318 478 249 q 495 249 494 289 q 501 169 496 210 q 516 88 506 128 q 546 16 526 47 q 594 -35 565 -15 q 667 -54 624 -54 q 688 -45 679 -54 q 696 -24 696 -36 q 688 -3 696 -11 q 667 6 679 6 m 132 921 q 147 903 142 917 q 156 872 153 889 q 160 840 160 856 q 161 815 161 824 q 142 681 161 747 q 93 576 124 615 q 99 739 94 675 q 108 841 103 803 q 120 897 114 879 q 132 921 126 915 m 315 1033 q 338 1043 329 1033 l 401 1115 q 409 1138 410 1125 q 399 1158 408 1150 q 379 1165 389 1165 q 357 1156 367 1165 l 293 1083 q 285 1061 285 1074 q 296 1040 286 1049 q 315 1033 306 1033 "},"":{"ha":674,"x_min":-1,"x_max":696,"o":"m 29 539 q 8 531 17 539 q -1 510 -1 522 q 8 487 -1 494 q 32 479 18 479 l 32 471 q 90 103 32 233 q 251 -26 147 -26 q 335 1 297 -26 q 402 76 372 29 q 455 186 432 124 q 494 318 478 249 q 495 249 494 289 q 501 169 496 210 q 516 88 506 128 q 546 16 526 47 q 594 -35 565 -15 q 667 -54 624 -54 q 688 -45 679 -54 q 696 -24 696 -36 q 688 -3 696 -11 q 667 6 679 6 q 611 28 633 6 q 576 94 589 51 q 559 190 564 138 q 554 301 554 243 q 554 414 554 360 q 556 467 556 442 q 556 517 556 493 q 556 569 556 525 q 558 670 557 613 q 559 787 558 728 q 561 883 560 846 l 561 924 q 546 951 561 943 q 532 956 540 956 q 517 951 524 956 q 507 943 510 947 q 503 924 504 939 l 501 924 q 488 665 501 794 q 451 408 475 535 q 365 130 417 226 q 251 33 314 33 q 185 64 214 33 q 135 151 156 94 q 103 289 114 208 q 92 471 92 369 l 92 497 q 149 553 125 517 q 190 633 174 589 q 213 726 206 678 q 221 815 221 774 q 217 875 221 847 q 203 922 213 903 q 166 971 188 961 q 129 981 144 981 q 71 931 92 981 q 40 768 50 882 q 33 649 35 710 q 32 539 32 589 l 29 539 m 161 815 q 142 681 161 747 q 93 576 124 615 q 99 739 94 675 q 108 841 103 803 q 120 897 114 879 q 132 921 126 915 q 147 903 142 917 q 156 872 153 889 q 160 840 160 856 q 161 815 161 824 m 261 1083 q 253 1061 253 1074 q 264 1040 254 1049 q 283 1033 274 1033 q 307 1043 297 1033 l 347 1090 l 389 1043 q 411 1033 397 1033 q 431 1040 421 1033 q 441 1061 440 1049 q 433 1083 442 1074 l 367 1158 q 364 1160 365 1158 q 361 1161 363 1161 q 358 1163 360 1163 q 356 1164 357 1164 l 353 1164 q 350 1165 351 1165 l 344 1165 q 342 1164 343 1165 l 339 1164 q 336 1163 338 1164 q 333 1161 335 1163 q 331 1160 332 1161 l 329 1158 l 328 1157 q 325 1156 328 1157 l 261 1083 "},"":{"ha":674,"x_min":-1,"x_max":696,"o":"m 667 6 q 611 28 633 6 q 576 94 589 51 q 559 190 564 138 q 554 301 554 243 q 554 414 554 360 q 556 467 556 442 q 556 517 556 493 q 556 569 556 525 q 558 670 557 613 q 559 787 558 728 q 561 883 560 846 l 561 924 q 546 951 561 943 q 532 956 540 956 q 517 951 524 956 q 507 943 510 947 q 503 924 504 939 l 501 924 q 488 665 501 794 q 451 408 475 535 q 365 130 417 226 q 251 33 314 33 q 185 64 214 33 q 135 151 156 94 q 103 289 114 208 q 92 471 92 369 l 92 497 q 149 553 125 517 q 190 633 174 589 q 213 726 206 678 q 221 815 221 774 q 217 875 221 847 q 203 922 213 903 q 166 971 188 961 q 129 981 144 981 q 71 931 92 981 q 40 768 50 882 q 33 649 35 710 q 32 539 32 589 q 8 532 18 539 q -1 510 -1 525 q 8 487 -1 494 q 32 479 18 479 l 32 471 q 90 103 32 233 q 251 -26 147 -26 q 335 1 297 -26 q 402 76 372 29 q 455 186 432 124 q 494 318 478 249 q 495 249 494 289 q 501 169 496 210 q 516 88 506 128 q 546 16 526 47 q 594 -35 565 -15 q 667 -54 624 -54 q 688 -45 679 -54 q 696 -24 696 -36 q 688 -3 696 -11 q 667 6 679 6 m 132 921 q 147 903 142 917 q 156 872 153 889 q 160 840 160 856 q 161 815 161 824 q 142 681 161 747 q 93 576 124 615 q 99 739 94 675 q 108 841 103 803 q 120 897 114 879 q 132 921 126 915 m 397 1054 q 424 1067 413 1054 q 436 1099 436 1079 q 424 1131 436 1118 q 397 1144 413 1144 q 370 1131 382 1144 q 358 1099 358 1118 q 370 1067 358 1079 q 397 1054 382 1054 m 297 1054 q 325 1067 314 1054 q 336 1099 336 1079 q 325 1131 336 1118 q 297 1144 314 1144 q 270 1131 282 1144 q 258 1099 258 1118 q 270 1067 258 1079 q 297 1054 282 1054 "},"":{"ha":665,"x_min":-1,"x_max":594,"o":"m 561 928 q 551 947 560 939 q 529 954 542 956 q 510 944 518 953 q 501 924 501 936 q 496 734 501 835 q 479 534 490 633 q 450 344 468 435 q 406 185 432 254 q 347 74 381 115 q 272 33 314 33 q 200 66 233 33 q 143 157 167 99 q 106 296 119 215 q 92 471 92 376 l 92 497 q 149 553 125 517 q 190 633 174 589 q 213 726 206 678 q 221 815 221 774 q 217 875 221 847 q 203 922 213 903 q 166 971 188 961 q 129 981 144 981 q 71 931 92 981 q 40 768 50 882 q 33 649 35 710 q 32 539 32 589 q 8 532 18 539 q -1 510 -1 525 q 8 487 -1 494 q 32 479 18 479 l 32 471 q 44 298 32 378 q 80 156 57 218 q 135 51 103 93 q 207 -11 167 8 q 115 -67 151 -28 q 68 -150 79 -103 q 75 -239 57 -197 q 151 -317 97 -289 q 285 -344 206 -344 q 449 -267 379 -344 q 520 -140 492 -217 q 565 27 549 -64 q 588 218 581 118 q 594 416 594 318 q 590 603 594 514 q 578 763 585 693 q 567 876 572 832 q 561 928 563 921 m 132 921 q 147 903 142 918 q 156 872 153 889 q 160 839 160 856 q 161 815 161 822 q 142 681 161 747 q 93 576 124 615 q 99 739 94 675 q 108 841 103 803 q 120 897 114 879 q 132 921 126 915 m 403 -228 q 285 -285 353 -285 q 185 -267 225 -285 q 131 -215 144 -249 q 127 -161 119 -190 q 158 -108 135 -132 q 290 -58 207 -58 q 413 -83 349 -58 q 424 -86 421 -86 q 451 -67 444 -86 q 451 -44 456 -56 q 435 -28 446 -33 q 347 -4 386 -10 q 416 70 386 21 q 469 184 446 119 q 508 324 492 249 q 533 475 524 399 q 533 369 533 429 q 528 243 532 308 q 517 110 525 178 q 495 -21 510 42 q 458 -137 481 -83 q 403 -228 436 -190 m 264 1033 q 288 1043 278 1033 l 350 1115 q 358 1138 358 1125 q 347 1158 357 1150 q 328 1165 338 1165 q 306 1156 314 1165 l 242 1083 q 234 1061 233 1074 q 244 1040 235 1049 q 264 1033 254 1033 "},"":{"ha":586,"x_min":-1,"x_max":679,"o":"m 658 368 q 647 371 650 371 q 619 351 626 371 q 568 247 599 299 q 505 153 538 194 q 442 85 472 111 q 392 60 413 60 q 354 75 372 60 q 327 127 336 93 q 315 199 318 161 q 312 276 311 238 q 313 344 313 315 l 313 382 q 304 403 313 394 q 283 413 296 413 q 276 411 278 413 q 240 442 261 431 q 186 454 218 454 q 110 431 144 454 q 50 371 75 408 q 12 286 25 333 q -1 192 -1 239 q 42 53 -1 106 q 156 0 85 0 q 227 23 196 0 q 279 86 258 46 q 294 58 286 71 q 313 33 301 44 q 392 0 344 0 q 475 35 432 0 q 557 122 518 71 q 627 231 596 174 q 675 331 658 288 q 674 353 679 342 q 658 368 669 364 m 251 246 q 224 112 251 164 q 156 60 197 60 q 85 95 111 60 q 58 192 58 131 q 68 264 58 228 q 94 329 78 300 q 135 376 111 358 q 186 394 158 394 q 220 383 207 394 q 240 358 233 372 q 249 332 247 344 q 251 317 251 319 q 251 283 251 300 q 253 249 251 267 q 251 246 251 247 m 140 579 l 204 507 q 226 496 213 496 q 246 504 238 496 q 256 524 256 511 q 249 546 257 536 l 186 618 q 163 628 178 628 q 143 621 150 628 q 133 600 133 613 q 140 579 132 588 "},"":{"ha":582,"x_min":-6,"x_max":675,"o":"m 654 368 q 643 371 646 371 q 615 351 622 371 q 564 247 594 299 q 501 153 533 194 q 438 85 468 111 q 388 60 408 60 q 350 75 368 60 q 323 127 332 93 q 310 199 314 161 q 308 276 307 238 q 308 344 308 315 l 308 382 q 300 403 308 394 q 279 413 292 413 q 272 411 274 413 q 235 442 257 431 q 182 454 214 454 q 106 431 140 454 q 46 371 71 408 q 8 286 21 333 q -6 192 -6 239 q 38 53 -6 106 q 151 0 81 0 q 223 23 192 0 q 275 86 254 46 q 290 58 282 71 q 308 33 297 44 q 388 0 340 0 q 471 35 428 0 q 553 122 514 71 q 623 231 592 174 q 671 331 654 288 q 670 353 675 342 q 654 368 665 364 m 247 246 q 220 112 247 164 q 151 60 193 60 q 81 95 107 60 q 54 192 54 131 q 64 264 54 228 q 90 329 74 300 q 131 376 107 358 q 182 394 154 394 q 216 383 203 394 q 236 358 229 372 q 245 332 243 344 q 247 317 247 319 q 247 283 247 300 q 249 249 247 267 q 247 246 247 247 m 168 496 q 192 507 181 496 l 254 579 q 262 600 263 588 q 251 621 261 613 q 232 628 244 628 q 210 618 218 628 l 146 546 q 138 524 138 536 q 149 504 139 511 q 168 496 157 496 "},"":{"ha":579,"x_min":-8,"x_max":672,"o":"m -8 192 q 35 53 -8 106 q 149 0 78 0 q 220 23 189 0 q 272 86 251 46 q 287 58 279 71 q 306 33 294 44 q 385 0 338 0 q 468 35 425 0 q 550 122 511 71 q 620 231 589 174 q 668 331 651 288 q 667 353 672 342 q 651 368 663 364 q 640 371 643 371 q 613 351 619 371 q 561 247 592 299 q 498 153 531 194 q 435 85 465 111 q 385 60 406 60 q 347 75 365 60 q 320 127 329 93 q 308 199 311 161 q 305 276 304 238 q 306 344 306 315 l 306 382 q 297 403 306 394 q 276 413 289 413 q 269 411 271 413 q 233 442 254 431 q 179 454 211 454 q 103 431 138 454 q 43 371 68 408 q 5 286 18 333 q -8 192 -8 239 m 149 60 q 78 95 104 60 q 51 192 51 131 q 61 264 51 228 q 88 329 71 300 q 128 376 104 358 q 179 394 151 394 q 213 383 200 394 q 233 358 226 372 q 242 332 240 344 q 244 317 244 319 q 244 283 244 300 q 246 249 244 267 q 244 246 244 247 q 217 112 244 164 q 149 60 190 60 m 92 546 q 84 524 83 536 q 94 504 85 513 q 114 496 103 496 q 138 507 126 496 l 178 553 l 218 507 q 242 496 229 496 q 261 504 253 496 q 272 524 271 513 q 264 546 272 536 l 199 619 q 194 624 194 624 l 189 626 l 186 626 q 183 628 185 628 l 172 628 q 169 626 169 628 l 167 626 l 161 624 q 156 618 161 624 l 92 546 "},"":{"ha":579,"x_min":-8,"x_max":672,"o":"m 651 368 q 640 371 643 371 q 613 351 619 371 q 561 247 592 299 q 498 153 531 194 q 435 85 465 111 q 385 60 406 60 q 347 75 365 60 q 320 127 329 93 q 308 199 311 161 q 305 276 304 238 q 306 344 306 315 l 306 382 q 297 403 306 394 q 276 413 289 413 q 269 411 271 413 q 233 442 254 431 q 179 454 211 454 q 103 431 138 454 q 43 371 68 408 q 5 286 18 333 q -8 192 -8 239 q 35 53 -8 106 q 149 0 78 0 q 220 23 189 0 q 272 86 251 46 q 287 58 279 71 q 306 33 294 44 q 385 0 338 0 q 468 35 425 0 q 550 122 511 71 q 620 231 589 174 q 668 331 651 288 q 667 353 672 342 q 651 368 663 364 m 244 246 q 217 112 244 164 q 149 60 190 60 q 78 95 104 60 q 51 192 51 131 q 61 264 51 228 q 88 329 71 300 q 128 376 104 358 q 179 394 151 394 q 213 383 200 394 q 233 358 226 372 q 242 332 240 344 q 244 317 244 319 q 244 283 244 300 q 246 249 244 267 q 244 246 244 247 m 85 531 q 97 528 93 528 q 124 542 114 528 q 142 536 128 546 q 193 522 168 522 q 228 528 213 522 q 253 542 244 535 q 264 560 263 549 q 258 583 265 572 q 235 594 250 594 q 217 589 224 594 q 208 585 214 588 q 194 582 203 582 q 171 589 182 582 q 124 603 143 603 q 106 600 117 603 q 80 583 88 593 q 71 571 72 574 q 69 548 65 560 q 85 531 74 536 "},"":{"ha":581,"x_min":-7,"x_max":674,"o":"m 653 368 q 642 371 644 371 q 614 351 621 371 q 563 247 593 299 q 499 153 532 194 q 437 85 467 111 q 386 60 407 60 q 349 75 367 60 q 322 127 331 93 q 309 199 313 161 q 306 276 306 238 q 307 344 307 315 l 307 382 q 299 403 307 394 q 278 413 290 413 q 271 411 272 413 q 234 442 256 431 q 181 454 213 454 q 104 431 139 454 q 44 371 69 408 q 6 286 19 333 q -7 192 -7 239 q 36 53 -7 106 q 150 0 79 0 q 222 23 190 0 q 274 86 253 46 q 288 58 281 71 q 307 33 296 44 q 386 0 339 0 q 469 35 426 0 q 551 122 513 71 q 622 231 590 174 q 669 331 653 288 q 669 353 674 342 q 653 368 664 364 m 246 246 q 219 112 246 164 q 150 60 192 60 q 79 95 106 60 q 53 192 53 131 q 63 264 53 228 q 89 329 72 300 q 129 376 106 358 q 181 394 153 394 q 215 383 201 394 q 235 358 228 372 q 244 332 242 344 q 246 317 246 319 q 246 283 246 300 q 247 249 246 267 q 246 246 246 247 m 210 517 q 237 530 225 517 q 249 563 249 543 q 237 594 249 582 q 210 607 225 607 q 182 594 193 607 q 171 563 171 582 q 182 530 171 543 q 210 517 193 517 m 110 517 q 138 530 126 517 q 149 563 149 543 q 138 594 149 582 q 110 607 126 607 q 83 594 94 607 q 71 563 71 582 q 83 530 71 543 q 110 517 94 517 "},"":{"ha":581,"x_min":-7,"x_max":674,"o":"m 179 478 q 238 502 214 478 q 263 563 263 526 q 238 622 263 597 q 179 647 214 647 q 119 622 143 647 q 94 563 94 597 q 119 502 94 526 q 179 478 143 478 m 179 603 q 208 591 196 603 q 219 563 219 579 q 208 534 219 546 q 179 522 196 522 q 150 534 163 522 q 138 563 138 546 q 149 591 138 579 q 179 603 161 603 m 653 368 q 642 371 644 371 q 614 351 621 371 q 563 247 593 299 q 499 153 532 194 q 437 85 467 111 q 386 60 407 60 q 349 75 367 60 q 322 127 331 93 q 309 199 313 161 q 306 276 306 238 q 307 344 307 315 l 307 382 q 299 403 307 394 q 278 413 290 413 q 271 411 272 413 q 234 442 256 431 q 181 454 213 454 q 104 431 139 454 q 44 371 69 408 q 6 286 19 333 q -7 192 -7 239 q 36 53 -7 106 q 150 0 79 0 q 222 23 190 0 q 274 86 253 46 q 288 58 281 71 q 307 33 296 44 q 386 0 339 0 q 469 35 426 0 q 551 122 513 71 q 622 231 590 174 q 669 331 653 288 q 669 353 674 342 q 653 368 664 364 m 246 246 q 219 112 246 164 q 150 60 192 60 q 79 95 106 60 q 53 192 53 131 q 63 264 53 228 q 89 329 72 300 q 129 376 106 358 q 181 394 153 394 q 215 383 201 394 q 235 358 228 372 q 244 332 242 344 q 246 317 246 319 q 246 283 246 300 q 247 249 246 267 q 246 246 246 247 "},"":{"ha":674,"x_min":-7,"x_max":768,"o":"m 746 368 q 735 371 738 371 q 707 351 717 371 q 654 247 686 299 q 584 153 622 194 q 503 85 546 111 q 419 60 461 60 q 364 69 390 60 q 322 114 338 79 q 398 146 363 122 q 459 203 433 169 q 499 278 485 238 q 514 358 514 318 q 496 424 514 394 q 436 454 478 454 q 364 433 396 454 q 307 379 332 413 l 307 382 q 299 403 307 394 q 278 413 290 413 q 271 411 272 413 q 234 442 256 431 q 181 454 213 454 q 104 431 139 454 q 44 371 69 408 q 6 286 19 333 q -7 192 -7 239 q 36 53 -7 106 q 150 0 79 0 q 219 22 189 0 q 271 82 250 43 q 337 17 294 33 q 419 0 379 0 q 532 33 478 0 q 631 115 586 65 q 710 223 675 165 q 764 331 744 281 q 763 353 768 342 q 746 368 757 364 m 246 246 q 219 112 246 164 q 150 60 192 60 q 79 95 106 60 q 53 192 53 131 q 63 264 53 228 q 89 329 72 300 q 129 376 106 358 q 181 394 153 394 q 215 383 201 394 q 235 358 228 372 q 244 332 242 344 q 246 317 246 319 q 246 283 246 300 q 247 249 246 267 q 246 246 246 247 m 310 203 q 321 272 311 238 q 348 333 331 306 q 388 377 365 360 q 436 394 410 394 q 447 389 444 394 q 454 358 454 381 q 445 308 454 336 q 418 251 436 279 q 374 202 400 224 q 313 172 347 181 q 310 188 311 179 q 310 203 310 196 "},"":{"ha":422,"x_min":-3,"x_max":515,"o":"m 494 368 q 483 371 486 371 q 456 351 463 371 q 403 247 435 299 q 333 153 371 194 q 252 85 294 111 q 168 60 210 60 q 127 64 147 60 q 92 82 107 68 q 67 122 76 96 q 57 192 57 149 q 67 264 57 228 q 93 329 76 300 q 133 376 110 358 q 185 394 157 394 q 215 385 208 394 q 224 368 221 376 q 216 319 228 344 q 185 288 204 294 q 169 271 174 282 q 169 249 164 260 q 197 229 176 229 q 208 232 200 229 q 243 256 228 240 q 268 292 258 272 q 282 335 278 313 q 282 379 286 358 q 249 435 275 415 q 185 454 224 454 q 108 431 143 454 q 49 371 74 408 q 10 286 24 333 q -3 192 -3 239 q 12 97 -3 133 q 50 38 26 60 q 103 8 74 17 q 161 0 132 0 q 164 -48 168 -25 q 143 -82 160 -71 q 129 -87 136 -87 q 118 -82 124 -87 q 107 -58 110 -74 q 111 -33 104 -43 q 114 -22 115 -28 q 107 -11 113 -15 q 99 -8 101 -8 q 85 -15 89 -8 q 75 -61 72 -35 q 94 -104 78 -87 q 128 -119 108 -119 q 161 -108 146 -119 q 194 -61 188 -92 q 194 1 201 -31 q 298 44 249 10 q 389 127 347 79 q 462 229 431 175 q 511 331 493 283 q 510 353 515 342 q 494 368 506 364 "},"":{"ha":417,"x_min":-8,"x_max":510,"o":"m 489 368 q 478 371 481 371 q 450 351 457 371 q 397 247 429 299 q 327 153 365 194 q 247 85 289 111 q 163 60 204 60 q 106 69 133 60 q 64 114 79 79 q 140 146 104 122 q 201 203 175 169 q 242 278 228 238 q 257 358 257 318 q 239 424 257 394 q 179 454 221 454 q 103 431 138 454 q 43 371 68 408 q 5 286 18 333 q -8 192 -8 239 q -4 136 -8 161 q -3 134 -4 135 q -3 132 -3 133 q 23 66 6 92 q 63 26 40 40 q 112 6 86 11 q 163 0 138 0 q 275 33 221 0 q 374 115 329 65 q 452 222 418 164 q 506 329 486 279 q 505 353 510 342 q 489 368 500 364 m 51 192 q 61 264 51 228 q 88 329 71 300 q 128 376 104 358 q 179 394 151 394 q 190 389 185 394 q 197 358 197 378 q 188 307 197 336 q 160 250 178 278 q 115 201 142 222 q 53 172 88 179 q 51 192 51 178 m 89 579 l 153 507 q 175 496 161 496 q 194 504 186 496 q 205 524 204 511 q 197 546 206 536 l 135 618 q 111 628 126 628 q 92 621 99 628 q 81 600 82 613 q 89 579 81 588 "},"":{"ha":407,"x_min":-7,"x_max":511,"o":"m 490 368 q 479 371 482 371 q 451 351 458 371 q 399 247 431 299 q 328 153 367 194 q 248 85 290 111 q 164 60 206 60 q 108 69 135 60 q 65 114 81 79 q 141 146 106 122 q 203 203 176 169 q 244 278 229 238 q 258 358 258 318 q 240 424 258 394 q 181 454 222 454 q 104 431 139 454 q 44 371 69 408 q 6 286 19 333 q -7 192 -7 239 q -3 136 -7 161 q -2 134 -3 135 q -1 132 -1 133 q 24 66 7 92 q 65 26 42 40 q 113 6 88 11 q 164 0 139 0 q 276 33 222 0 q 375 115 331 65 q 453 222 419 164 q 507 329 488 279 q 506 353 511 342 q 490 368 501 364 m 53 192 q 63 264 53 228 q 89 329 72 300 q 129 376 106 358 q 181 394 153 394 q 192 389 186 394 q 199 358 199 378 q 189 307 199 336 q 161 250 179 278 q 116 201 143 222 q 54 172 89 179 q 53 192 53 178 m 111 496 q 133 507 125 496 l 197 579 q 205 600 206 588 q 194 621 204 613 q 175 628 188 628 q 153 618 161 628 l 89 546 q 81 524 81 536 q 92 504 82 511 q 111 496 100 496 "},"":{"ha":431,"x_min":6,"x_max":524,"o":"m 193 454 q 117 431 151 454 q 57 371 82 408 q 19 286 32 333 q 6 192 6 239 q 10 136 6 161 q 10 134 10 135 q 11 132 11 133 q 37 66 19 92 q 77 26 54 40 q 126 6 100 11 q 176 0 151 0 q 289 33 235 0 q 388 115 343 65 q 466 222 432 164 q 519 329 500 279 q 519 353 524 342 q 503 368 514 364 q 492 371 494 371 q 464 351 471 371 q 411 247 443 299 q 341 153 379 194 q 260 85 303 111 q 176 60 218 60 q 120 69 147 60 q 78 114 93 79 q 153 146 118 122 q 215 203 189 169 q 256 278 242 238 q 271 358 271 318 q 253 424 271 394 q 193 454 235 454 m 65 192 q 75 264 65 228 q 101 329 85 300 q 142 376 118 358 q 193 394 165 394 q 204 389 199 394 q 211 358 211 378 q 201 307 211 336 q 174 250 192 278 q 128 201 156 222 q 67 172 101 179 q 65 192 65 178 m 85 546 q 77 524 76 536 q 88 504 78 513 q 107 496 96 496 q 129 507 121 496 l 171 553 l 211 507 q 233 496 219 496 q 253 504 244 496 q 263 524 263 513 q 256 546 264 536 l 193 618 q 190 619 192 619 l 190 621 l 189 621 q 186 624 189 621 l 185 625 q 182 626 182 625 l 179 626 q 176 628 178 628 l 164 628 q 163 626 164 628 l 160 626 q 157 625 158 625 q 154 624 156 625 l 151 621 l 150 621 q 147 618 147 618 l 85 546 "},"":{"ha":417,"x_min":-8,"x_max":510,"o":"m 489 368 q 478 371 481 371 q 450 351 457 371 q 397 247 429 299 q 327 153 365 194 q 247 85 289 111 q 163 60 204 60 q 106 69 133 60 q 64 114 79 79 q 140 146 104 122 q 201 203 175 169 q 242 278 228 238 q 257 358 257 318 q 239 424 257 394 q 179 454 221 454 q 103 431 138 454 q 43 371 68 408 q 5 286 18 333 q -8 192 -8 239 q -4 136 -8 161 q -3 134 -4 135 q -3 132 -3 133 q 23 66 6 92 q 63 26 40 40 q 112 6 86 11 q 163 0 138 0 q 275 33 221 0 q 374 115 329 65 q 452 222 418 164 q 506 329 486 279 q 505 353 510 342 q 489 368 500 364 m 51 192 q 61 264 51 228 q 88 329 71 300 q 128 376 104 358 q 179 394 151 394 q 190 389 185 394 q 197 358 197 378 q 188 307 197 336 q 160 250 178 278 q 115 201 142 222 q 53 172 88 179 q 51 192 51 178 m 201 517 q 228 530 217 517 q 240 563 240 543 q 228 594 240 582 q 201 607 217 607 q 174 594 185 607 q 163 563 163 582 q 174 530 163 543 q 201 517 185 517 m 101 517 q 128 530 117 517 q 140 563 140 543 q 128 594 140 582 q 101 607 117 607 q 74 594 86 607 q 63 563 63 582 q 74 530 63 543 q 101 517 86 517 "},"":{"ha":371,"x_min":36,"x_max":465,"o":"m 444 368 q 433 371 436 371 q 406 351 413 371 q 353 247 385 299 q 290 153 322 194 q 228 85 258 111 q 176 60 197 60 q 140 75 156 60 q 113 127 122 93 q 101 199 104 161 q 97 276 97 238 q 99 344 97 315 l 99 382 q 90 403 99 394 q 69 413 82 413 q 48 403 57 413 q 39 382 39 394 l 39 346 q 38 265 38 310 q 43 178 38 221 q 61 97 49 135 q 97 33 74 58 q 176 0 131 0 q 261 35 218 0 q 343 122 304 71 q 413 231 382 174 q 461 331 444 288 q 460 353 465 342 q 444 368 456 364 m 44 579 l 108 507 q 131 496 117 496 q 150 504 142 496 q 160 524 160 511 q 153 546 161 536 l 90 618 q 67 628 82 628 q 47 621 54 628 q 37 600 38 613 q 44 579 36 588 "},"":{"ha":365,"x_min":-3,"x_max":460,"o":"m 438 368 q 426 371 429 371 q 400 351 407 371 q 348 247 379 299 q 285 153 317 194 q 222 85 253 111 q 171 60 192 60 q 135 75 150 60 q 108 127 117 93 q 95 199 99 161 q 92 276 92 238 q 93 344 92 315 l 93 382 q 84 403 93 394 q 63 413 75 413 q 42 403 51 413 q 33 382 33 394 q 33 366 33 375 q 32 346 33 357 q 32 265 32 310 q 37 178 32 221 q 54 97 42 135 q 92 33 67 58 q 171 0 125 0 q 256 35 213 0 q 338 122 299 71 q 408 231 376 174 q 456 331 439 288 q 455 353 460 342 q 438 368 450 364 m 50 507 l 113 579 q 120 600 121 588 q 110 621 119 613 q 90 628 103 628 q 68 618 76 628 l 4 546 q -3 524 -3 536 q 7 504 -3 511 q 28 496 15 496 q 50 507 39 496 "},"":{"ha":367,"x_min":-6,"x_max":461,"o":"m 33 346 q 32 265 32 310 q 38 178 32 221 q 56 97 43 135 q 93 33 68 58 q 172 0 125 0 q 256 35 213 0 q 338 122 299 71 q 408 231 376 174 q 456 331 439 288 q 456 353 461 342 q 439 368 450 364 q 428 371 431 371 q 400 351 410 371 q 349 247 379 299 q 285 153 318 194 q 223 85 253 111 q 172 60 193 60 q 136 75 151 60 q 109 127 118 93 q 97 199 100 161 q 93 276 93 238 q 93 344 93 315 q 94 365 93 356 q 94 382 94 375 q 85 403 94 394 q 64 413 76 413 q 43 403 51 413 q 35 382 35 394 q 34 366 35 375 q 33 346 33 357 m 3 546 q -5 524 -6 536 q 6 504 -4 513 q 26 496 14 496 q 49 507 38 496 l 89 553 l 131 507 q 153 496 139 496 q 172 504 164 496 q 183 524 182 513 q 175 546 183 536 l 111 618 q 108 621 108 621 l 106 624 l 100 626 l 97 626 q 94 628 97 628 l 83 628 q 81 626 82 628 l 78 626 q 72 624 75 624 q 67 618 72 624 l 3 546 "},"":{"ha":365,"x_min":-19,"x_max":458,"o":"m 438 368 q 426 371 429 371 q 399 351 406 371 q 347 247 378 299 q 284 153 317 194 q 222 85 251 111 q 171 60 192 60 q 133 75 151 60 q 106 127 115 93 q 94 199 97 161 q 91 276 90 238 q 92 344 92 315 l 92 382 q 83 403 92 394 q 63 413 75 413 q 41 403 50 413 q 32 382 32 394 l 32 346 q 31 265 31 310 q 36 178 31 221 q 54 97 42 135 q 92 33 67 58 q 171 0 124 0 q 254 35 211 0 q 336 122 297 71 q 406 231 375 174 q 454 331 438 288 q 453 353 458 342 q 438 368 449 364 m 119 517 q 147 530 135 517 q 158 563 158 543 q 147 594 158 582 q 119 607 135 607 q 92 594 103 607 q 81 563 81 582 q 92 530 81 543 q 119 517 103 517 m 19 517 q 47 530 35 517 q 58 563 58 543 q 47 594 58 582 q 19 607 35 607 q -8 594 4 607 q -19 563 -19 582 q -8 530 -19 543 q 19 517 4 517 "},"":{"ha":544,"x_min":28,"x_max":639,"o":"m 617 368 q 606 371 608 371 q 578 351 588 371 q 526 247 557 299 q 464 153 496 194 q 401 85 432 111 q 350 60 371 60 q 342 63 342 60 q 333 86 335 69 q 331 124 331 103 q 332 168 331 144 q 335 213 333 192 q 340 278 338 246 q 340 338 342 310 q 331 389 338 365 q 308 429 324 413 q 244 456 282 456 q 201 443 222 456 q 160 409 179 431 q 124 358 140 388 q 92 297 107 329 q 94 370 93 339 q 93 410 94 401 q 85 431 93 422 q 64 439 76 439 q 42 430 51 439 q 33 408 33 421 q 33 385 33 403 q 33 343 33 368 q 31 288 32 318 q 31 226 31 257 q 30 161 31 193 q 28 103 29 129 q 28 59 28 76 q 28 36 28 42 q 37 15 28 24 q 58 7 46 7 q 82 19 76 7 q 88 46 88 31 q 90 58 90 51 q 106 158 90 100 q 146 268 122 215 q 196 358 169 321 q 244 396 222 396 q 257 394 253 396 q 264 389 261 392 q 276 360 272 379 q 280 318 279 342 q 279 268 281 294 q 275 217 278 242 q 270 102 269 154 q 297 22 271 50 q 350 0 319 0 q 433 35 390 0 q 515 122 476 71 q 585 231 554 174 q 633 331 617 288 q 633 353 639 342 q 617 368 628 364 m 96 531 q 108 528 104 528 q 135 542 125 528 q 153 536 139 546 q 206 522 179 522 q 240 528 225 522 q 264 542 256 535 q 276 560 275 549 q 269 583 276 572 q 246 594 261 594 q 228 589 235 594 q 221 585 226 588 q 207 582 215 582 q 182 589 194 582 q 136 603 154 603 q 118 600 129 603 q 92 583 100 593 q 82 571 83 574 q 81 548 76 560 q 96 531 85 536 "},"":{"ha":389,"x_min":-1,"x_max":483,"o":"m 461 368 q 450 371 453 371 q 424 351 431 371 q 311 263 394 279 q 298 334 308 300 q 270 395 288 368 q 228 438 253 422 q 172 454 204 454 q 101 431 133 454 q 47 371 69 408 q 11 286 24 333 q -1 192 -1 239 q 38 53 -1 106 q 144 0 78 0 q 216 18 186 0 q 266 65 246 36 q 297 131 286 94 q 311 201 308 167 q 426 253 388 215 q 479 331 464 292 q 478 353 483 342 q 461 368 474 364 m 250 196 q 242 149 249 174 q 222 106 235 125 q 190 73 210 86 q 144 60 171 60 q 81 95 104 60 q 58 192 58 131 q 66 256 58 224 q 86 317 74 289 q 107 267 90 289 q 147 228 124 244 q 197 204 169 213 q 250 196 224 196 m 251 256 q 194 268 221 256 q 153 308 168 281 q 144 348 142 326 q 183 393 146 369 q 229 345 211 386 q 251 256 247 304 m 124 579 l 188 507 q 210 496 196 496 q 229 504 221 496 q 240 524 239 511 q 232 546 240 536 l 169 618 q 146 628 161 628 q 126 621 133 628 q 116 600 117 613 q 124 579 115 588 "},"":{"ha":389,"x_min":-1,"x_max":483,"o":"m 461 368 q 450 371 453 371 q 424 351 431 371 q 311 263 394 279 q 298 334 308 300 q 270 395 288 368 q 228 438 253 422 q 172 454 204 454 q 101 431 133 454 q 47 371 69 408 q 11 286 24 333 q -1 192 -1 239 q 38 53 -1 106 q 144 0 78 0 q 216 18 186 0 q 266 65 246 36 q 297 131 286 94 q 311 201 308 167 q 426 253 388 215 q 479 331 464 292 q 478 353 483 342 q 461 368 474 364 m 250 196 q 242 149 249 174 q 222 106 235 125 q 190 73 210 86 q 144 60 171 60 q 81 95 104 60 q 58 192 58 131 q 66 256 58 224 q 86 317 74 289 q 107 267 90 289 q 147 228 124 244 q 197 204 169 213 q 250 196 224 196 m 251 256 q 194 268 221 256 q 153 308 168 281 q 144 348 142 326 q 183 393 146 369 q 229 345 211 386 q 251 256 247 304 m 146 496 q 169 507 158 496 l 232 579 q 240 600 240 588 q 229 621 239 613 q 210 628 222 628 q 188 618 196 628 l 124 546 q 116 524 115 536 q 126 504 117 511 q 146 496 135 496 "},"":{"ha":389,"x_min":-1,"x_max":483,"o":"m -1 192 q 38 53 -1 106 q 144 0 78 0 q 216 18 186 0 q 266 65 246 36 q 297 131 286 94 q 311 201 308 167 q 426 253 388 215 q 479 331 464 292 q 478 353 483 342 q 461 368 474 364 q 450 371 453 371 q 424 351 431 371 q 311 263 394 279 q 298 334 308 300 q 270 395 288 368 q 228 438 253 422 q 172 454 204 454 q 101 431 133 454 q 47 371 69 408 q 11 286 24 333 q -1 192 -1 239 m 58 192 q 66 256 58 224 q 86 317 74 289 q 106 267 90 290 q 145 229 122 244 q 194 205 168 214 q 247 196 221 196 l 250 196 q 242 149 249 174 q 222 106 235 125 q 190 73 210 86 q 144 60 171 60 q 81 95 104 60 q 58 192 58 131 m 61 546 q 53 524 53 536 q 64 504 54 513 q 83 496 72 496 q 106 507 97 496 l 146 553 l 188 507 q 210 496 196 496 q 229 504 221 496 q 240 524 239 513 q 232 546 240 536 l 169 618 q 167 619 168 619 l 167 621 l 165 621 l 163 624 q 160 625 163 624 q 157 626 160 625 l 156 626 q 151 628 154 628 l 140 628 q 138 626 140 628 l 135 626 q 132 625 135 625 l 131 624 q 128 621 128 621 l 126 621 q 124 618 124 618 l 61 546 m 153 308 q 144 348 142 326 q 183 393 146 369 q 229 345 211 386 q 251 256 247 304 l 247 256 q 192 270 217 256 q 153 308 167 285 "},"":{"ha":389,"x_min":-1,"x_max":483,"o":"m 461 368 q 450 371 453 371 q 424 351 431 371 q 311 263 394 279 q 298 334 308 300 q 270 395 288 368 q 228 438 253 422 q 172 454 204 454 q 101 431 133 454 q 47 371 69 408 q 11 286 24 333 q -1 192 -1 239 q 38 53 -1 106 q 144 0 78 0 q 216 18 186 0 q 266 65 246 36 q 297 131 286 94 q 311 201 308 167 q 426 253 388 215 q 479 331 464 292 q 478 353 483 342 q 461 368 474 364 m 250 196 q 242 149 249 174 q 222 106 235 125 q 190 73 210 86 q 144 60 171 60 q 81 95 104 60 q 58 192 58 131 q 66 256 58 224 q 86 317 74 289 q 107 267 90 289 q 147 228 124 244 q 197 204 169 213 q 250 196 224 196 m 251 256 q 194 268 221 256 q 153 308 168 281 q 144 348 142 326 q 183 393 146 369 q 229 345 211 386 q 251 256 247 304 m 90 531 q 103 528 99 528 q 129 542 119 528 q 147 536 133 546 q 200 522 174 522 q 235 528 219 522 q 258 542 250 535 q 269 560 268 549 q 264 583 271 572 q 240 594 256 594 q 222 589 229 594 q 214 585 219 588 q 200 582 208 582 q 176 589 188 582 q 129 603 149 603 q 111 600 122 603 q 85 583 93 593 q 76 571 78 574 q 75 548 71 560 q 90 531 79 536 "},"":{"ha":389,"x_min":-1,"x_max":483,"o":"m 461 368 q 450 371 453 371 q 424 351 431 371 q 311 263 394 279 q 298 334 308 300 q 270 395 288 368 q 228 438 253 422 q 172 454 204 454 q 101 431 133 454 q 47 371 69 408 q 11 286 24 333 q -1 192 -1 239 q 38 53 -1 106 q 144 0 78 0 q 216 18 186 0 q 266 65 246 36 q 297 131 286 94 q 311 201 308 167 q 426 253 388 215 q 479 331 464 292 q 478 353 483 342 q 461 368 474 364 m 250 196 q 242 149 249 174 q 222 106 235 125 q 190 73 210 86 q 144 60 171 60 q 81 95 104 60 q 58 192 58 131 q 66 256 58 224 q 86 317 74 289 q 107 267 90 289 q 147 228 124 244 q 197 204 169 213 q 250 196 224 196 m 251 256 q 194 268 221 256 q 153 308 168 281 q 144 348 142 326 q 183 393 146 369 q 229 345 211 386 q 251 256 247 304 m 201 517 q 228 530 217 517 q 240 563 240 543 q 228 594 240 582 q 201 607 217 607 q 174 594 185 607 q 163 563 163 582 q 174 530 163 543 q 201 517 185 517 m 101 517 q 128 530 117 517 q 140 563 140 543 q 128 594 140 582 q 101 607 117 607 q 74 594 85 607 q 63 563 63 582 q 74 530 63 543 q 101 517 85 517 "},"":{"ha":389,"x_min":-1,"x_max":483,"o":"m 461 368 q 450 371 453 371 q 424 351 431 371 q 311 263 394 279 q 294 343 307 306 q 338 419 317 383 q 378 484 360 456 q 413 531 397 513 q 440 556 429 550 q 464 575 464 560 q 451 588 461 586 q 432 590 440 590 q 392 574 410 588 q 335 508 368 554 q 267 400 303 463 q 226 440 249 425 q 172 454 203 454 q 101 431 133 454 q 47 371 69 408 q 11 286 24 333 q -1 192 -1 239 q 18 88 -1 132 q 74 21 38 44 q 31 -76 46 -37 q 15 -122 15 -115 q 28 -134 17 -132 q 49 -136 40 -136 q 75 -117 75 -133 q 90 -74 78 -106 q 124 1 103 -43 q 144 0 131 0 q 216 18 186 0 q 266 65 246 36 q 297 131 286 94 q 311 201 308 167 q 426 253 388 215 q 479 329 464 292 q 478 353 483 342 q 461 368 474 364 m 183 393 q 210 374 199 389 q 232 339 222 360 q 213 305 222 322 q 194 269 204 288 q 153 308 168 282 q 144 348 142 326 q 183 393 146 369 m 99 76 q 58 192 58 110 q 66 256 58 224 q 86 317 74 289 q 116 258 93 285 q 167 215 139 231 q 131 144 149 179 q 99 76 114 108 m 250 196 q 242 151 249 174 q 223 108 235 128 q 193 76 211 89 q 150 60 175 63 q 183 127 165 92 q 218 199 200 163 q 234 197 226 197 q 250 196 242 196 m 249 256 q 251 261 249 258 l 251 256 l 249 256 "},"":{"ha":646,"x_min":29,"x_max":740,"o":"m 35 325 q 31 231 32 283 q 39 130 29 178 q 73 46 49 82 q 147 0 97 10 q 188 3 172 0 q 228 21 204 6 q 278 78 256 42 q 319 160 301 115 q 333 103 324 132 q 357 52 342 75 q 395 15 372 29 q 451 0 418 0 q 535 35 492 0 q 617 122 578 71 q 687 231 656 174 q 735 331 718 288 q 735 353 740 342 q 718 368 729 364 q 707 371 710 371 q 679 351 689 371 q 628 247 658 299 q 565 153 597 194 q 503 85 533 111 q 451 60 472 60 q 415 75 431 60 q 388 127 397 93 q 376 199 379 161 q 372 276 372 238 q 372 344 372 315 q 374 365 374 356 q 374 382 374 375 l 374 383 q 372 388 374 386 l 372 390 q 371 393 372 390 l 371 396 q 368 399 368 399 l 368 400 l 361 407 q 357 410 357 410 q 354 411 354 410 l 351 411 q 349 413 350 411 l 339 413 q 338 412 338 413 q 336 411 338 411 l 333 411 q 329 408 333 411 q 324 406 329 408 q 319 401 324 406 q 318 399 319 400 q 317 397 318 397 q 317 396 317 397 q 316 394 317 394 q 315 393 315 394 l 315 390 q 314 388 314 389 l 314 386 q 296 283 308 333 q 267 190 283 232 q 231 116 250 147 q 192 69 213 85 q 165 58 178 58 q 162 59 163 58 q 158 60 161 60 q 113 92 128 65 q 94 158 99 119 q 90 240 89 197 q 94 321 92 283 q 97 354 96 339 q 97 382 97 369 q 88 403 97 394 q 67 413 79 413 q 47 403 56 413 q 38 382 38 394 q 37 356 38 371 q 35 325 36 342 m 151 621 q 141 600 142 613 q 149 579 140 588 l 211 507 q 235 496 222 496 q 254 504 246 496 q 265 524 264 511 q 257 546 265 536 l 193 618 q 171 628 185 628 q 151 621 158 628 "},"":{"ha":643,"x_min":26,"x_max":738,"o":"m 32 325 q 28 231 29 283 q 36 130 26 178 q 70 46 46 82 q 144 0 94 10 q 185 3 169 0 q 225 21 201 6 q 276 78 253 42 q 317 160 299 115 q 330 103 321 132 q 354 52 339 75 q 392 15 369 29 q 449 0 415 0 q 532 35 489 0 q 614 122 575 71 q 684 231 653 174 q 732 331 715 288 q 732 353 738 342 q 715 368 726 364 q 704 371 707 371 q 676 351 686 371 q 625 247 656 299 q 563 153 594 194 q 500 85 531 111 q 449 60 469 60 q 413 75 428 60 q 385 127 394 93 q 373 199 376 161 q 369 276 369 238 q 369 344 369 315 q 371 365 371 356 q 371 382 371 375 l 371 383 q 369 388 371 386 l 369 390 q 368 393 369 390 l 368 396 q 365 399 365 399 l 365 400 l 358 407 q 354 410 354 410 q 351 411 351 410 l 349 411 q 346 413 347 411 l 336 413 q 335 412 335 413 q 333 411 335 411 l 331 411 q 326 408 331 411 q 321 406 326 408 q 317 401 321 406 q 315 399 317 400 q 315 397 315 397 q 314 396 314 397 q 313 394 314 394 q 313 393 313 394 l 313 390 q 311 388 311 389 l 311 386 q 293 283 306 333 q 264 190 281 232 q 228 116 247 147 q 189 69 210 85 q 163 58 175 58 q 159 59 160 58 q 156 60 158 60 q 110 92 125 65 q 91 158 96 119 q 88 240 86 197 q 92 321 89 283 q 94 354 93 339 q 94 382 94 369 q 85 403 94 394 q 64 413 76 413 q 44 403 53 413 q 35 382 35 394 q 34 356 35 371 q 32 325 33 342 m 165 546 q 158 524 157 536 q 168 504 158 511 q 188 496 176 496 q 211 507 200 496 l 274 579 q 281 600 282 588 q 271 621 281 613 q 251 628 264 628 q 229 618 238 628 l 165 546 "},"":{"ha":643,"x_min":26,"x_max":738,"o":"m 32 325 q 28 231 29 283 q 36 130 26 178 q 70 46 46 82 q 144 0 94 10 q 185 3 169 0 q 225 21 201 6 q 276 78 253 42 q 317 160 299 115 q 330 103 321 132 q 354 52 339 75 q 392 15 369 29 q 449 0 415 0 q 532 35 489 0 q 614 122 575 71 q 684 231 653 174 q 732 331 715 288 q 732 353 738 342 q 715 368 726 364 q 704 371 707 371 q 676 351 686 371 q 625 247 656 299 q 563 153 594 194 q 500 85 531 111 q 449 60 469 60 q 413 75 428 60 q 385 127 394 93 q 373 199 376 161 q 369 276 369 238 q 369 344 369 315 q 371 365 371 356 q 371 382 371 375 l 371 383 q 369 388 371 386 l 369 390 q 368 393 369 390 l 368 396 q 365 399 365 399 l 365 400 l 358 407 q 354 410 354 410 q 351 411 351 410 l 349 411 q 346 413 347 411 l 336 413 q 335 412 335 413 q 333 411 335 411 l 331 411 q 326 408 331 411 q 321 406 326 408 q 317 401 321 406 q 315 399 317 400 q 315 397 315 397 q 314 396 314 397 q 313 394 314 394 q 313 393 313 394 l 313 390 q 311 388 311 389 l 311 386 q 293 283 306 333 q 264 190 281 232 q 228 116 247 147 q 189 69 210 85 q 163 58 175 58 q 159 59 160 58 q 156 60 158 60 q 110 92 125 65 q 91 158 96 119 q 88 240 86 197 q 92 321 89 283 q 94 354 93 339 q 94 382 94 369 q 85 403 94 394 q 64 413 76 413 q 44 403 53 413 q 35 382 35 394 q 34 356 35 371 q 32 325 33 342 m 142 546 q 134 524 133 536 q 144 504 135 513 q 164 496 153 496 q 186 507 178 496 l 228 553 l 268 507 q 290 496 276 496 q 311 504 301 496 q 321 524 321 513 q 314 546 321 536 l 247 621 l 246 621 q 243 624 246 621 l 242 625 q 239 626 239 625 l 236 626 q 233 628 235 628 l 222 628 q 219 626 219 628 l 217 626 l 208 621 l 207 621 l 207 619 q 206 618 206 619 l 142 546 "},"":{"ha":643,"x_min":26,"x_max":738,"o":"m 32 325 q 28 231 29 283 q 36 130 26 178 q 70 46 46 82 q 144 0 94 10 q 185 3 169 0 q 225 21 201 6 q 276 78 253 42 q 317 160 299 115 q 330 103 321 132 q 354 52 339 75 q 392 15 369 29 q 449 0 415 0 q 532 35 489 0 q 614 122 575 71 q 684 231 653 174 q 732 331 715 288 q 732 353 738 342 q 715 368 726 364 q 704 371 707 371 q 676 351 686 371 q 625 247 656 299 q 563 153 594 194 q 500 85 531 111 q 449 60 469 60 q 413 75 428 60 q 385 127 394 93 q 373 199 376 161 q 369 276 369 238 q 369 344 369 315 q 371 365 371 356 q 371 382 371 375 l 371 383 q 369 388 371 386 l 369 390 q 368 393 369 390 l 368 396 q 365 399 365 399 l 365 400 l 358 407 q 354 410 354 410 q 351 411 351 410 l 349 411 q 346 413 347 411 l 336 413 q 335 412 335 413 q 333 411 335 411 l 331 411 q 326 408 331 411 q 321 406 326 408 q 317 401 321 406 q 315 399 317 400 q 315 397 315 397 q 314 396 314 397 q 313 394 314 394 q 313 393 313 394 l 313 390 q 311 388 311 389 l 311 386 q 293 283 306 333 q 264 190 281 232 q 228 116 247 147 q 189 69 210 85 q 163 58 175 58 q 159 59 160 58 q 156 60 158 60 q 110 92 125 65 q 91 158 96 119 q 88 240 86 197 q 92 321 89 283 q 94 354 93 339 q 94 382 94 369 q 85 403 94 394 q 64 413 76 413 q 44 403 53 413 q 35 382 35 394 q 34 356 35 371 q 32 325 33 342 m 210 563 q 221 530 210 543 q 249 517 232 517 q 276 530 264 517 q 288 563 288 543 q 276 594 288 582 q 249 607 264 607 q 221 594 232 607 q 210 563 210 582 m 149 607 q 122 594 133 607 q 110 563 110 582 q 122 530 110 543 q 149 517 133 517 q 176 530 165 517 q 188 563 188 543 q 176 594 188 582 q 149 607 165 607 "},"":{"ha":613,"x_min":25,"x_max":706,"o":"m 685 346 q 674 349 676 349 q 646 329 653 349 q 599 248 629 286 q 530 176 568 210 q 449 111 492 142 q 364 53 406 81 q 370 165 368 110 q 373 265 372 219 q 373 341 374 310 q 372 383 372 372 q 363 404 371 396 q 340 413 354 413 q 320 405 329 413 q 310 386 311 397 q 292 283 304 333 q 263 190 279 232 q 227 116 246 147 q 188 69 208 85 q 161 58 174 58 q 158 59 158 58 q 154 60 157 60 q 109 92 124 65 q 90 158 94 119 q 86 240 85 197 q 90 321 88 283 q 92 354 92 339 q 93 382 93 369 q 84 403 93 394 q 63 413 75 413 q 42 403 51 413 q 33 382 33 394 q 33 356 33 371 q 31 325 32 342 q 26 231 28 283 q 35 130 25 178 q 69 46 44 82 q 143 0 93 10 q 184 3 168 0 q 224 21 200 6 q 270 72 249 40 q 310 144 292 104 q 305 76 307 110 q 300 10 303 42 q 234 -40 265 -15 q 179 -92 203 -65 q 142 -149 156 -119 q 129 -210 129 -178 q 134 -242 129 -225 q 149 -274 139 -260 q 175 -299 158 -289 q 214 -310 192 -310 q 242 -305 225 -310 q 275 -282 258 -300 q 326 -179 307 -250 q 356 -25 344 -108 q 375 -12 365 -18 q 394 1 385 -6 q 485 65 439 32 q 574 135 532 97 q 649 215 615 172 q 701 308 682 258 q 701 331 706 319 q 685 346 696 342 m 289 -72 q 281 -112 288 -83 q 266 -172 275 -142 q 244 -226 257 -203 q 214 -250 231 -250 q 201 -244 206 -250 q 193 -231 196 -237 q 189 -210 190 -221 q 217 -140 189 -174 q 289 -72 244 -107 m 182 496 q 204 507 196 496 l 268 579 q 276 600 276 588 q 265 621 275 613 q 246 628 258 628 q 222 618 231 628 l 160 546 q 152 524 151 536 q 163 504 153 511 q 182 496 171 496 "},"":{"ha":617,"x_min":29,"x_max":710,"o":"m 689 346 q 678 349 681 349 q 650 329 657 349 q 603 248 633 286 q 534 176 572 210 q 453 111 496 142 q 368 53 410 81 q 374 165 372 110 q 377 265 376 219 q 377 341 378 310 q 376 383 376 372 q 367 404 375 396 q 344 413 358 413 q 324 405 333 413 q 314 386 315 397 q 296 283 308 333 q 267 190 283 232 q 231 116 250 147 q 192 69 213 85 q 165 58 178 58 q 162 59 163 58 q 158 60 161 60 q 113 92 128 65 q 94 158 99 119 q 90 240 89 197 q 94 321 92 283 q 97 354 96 339 q 97 382 97 369 q 88 403 97 394 q 67 413 79 413 q 47 403 56 413 q 38 382 38 394 q 37 356 38 371 q 35 325 36 342 q 31 231 32 283 q 39 130 29 178 q 73 46 49 82 q 147 0 97 10 q 188 3 172 0 q 228 21 204 6 q 274 72 253 40 q 314 144 296 104 q 309 76 311 110 q 304 10 307 42 q 238 -40 269 -15 q 183 -92 207 -65 q 147 -149 160 -119 q 133 -210 133 -178 q 138 -242 133 -225 q 153 -274 143 -260 q 179 -299 163 -289 q 218 -310 196 -310 q 246 -305 229 -310 q 279 -282 263 -300 q 330 -179 311 -250 q 360 -25 349 -108 q 379 -12 369 -18 q 399 1 389 -6 q 490 65 443 32 q 578 135 536 97 q 653 215 619 172 q 706 308 686 258 q 705 331 710 319 q 689 346 700 342 m 293 -72 q 285 -112 292 -83 q 270 -172 279 -142 q 248 -226 261 -203 q 218 -250 235 -250 q 205 -244 210 -250 q 197 -231 200 -237 q 193 -210 194 -221 q 221 -140 193 -174 q 293 -72 249 -107 m 254 517 q 281 530 269 517 q 293 563 293 543 q 281 594 293 582 q 254 607 269 607 q 227 594 239 607 q 215 563 215 582 q 227 530 215 543 q 254 517 239 517 m 154 517 q 182 530 171 517 q 193 563 193 543 q 182 594 193 582 q 154 607 171 607 q 127 594 139 607 q 115 563 115 582 q 127 530 115 543 q 154 517 139 517 "},"":{"ha":367,"x_min":33,"x_max":461,"o":"m 440 368 q 429 371 432 371 q 401 351 408 371 q 349 247 381 299 q 286 153 318 194 q 224 85 254 111 q 172 60 193 60 q 136 75 151 60 q 109 127 118 93 q 97 199 100 161 q 93 276 93 238 q 94 344 93 315 l 94 382 q 86 403 94 394 q 65 413 78 413 q 44 403 53 413 q 35 382 35 394 l 35 346 q 33 265 33 310 q 39 178 33 221 q 57 97 44 135 q 93 33 69 58 q 172 0 126 0 q 257 35 214 0 q 339 122 300 71 q 409 231 378 174 q 457 331 440 288 q 456 353 461 342 q 440 368 451 364 "},"":{"ha":1071,"x_min":-1,"x_max":1093,"o":"m -1 483 q 16 309 -1 397 q 72 149 33 221 q 174 33 111 78 q 329 -12 238 -12 q 460 28 399 -12 q 564 143 521 68 q 624 36 582 79 q 721 -33 665 -7 q 839 -71 776 -60 q 961 -82 901 -82 l 990 -82 q 1011 -73 1003 -82 q 1019 -51 1019 -64 q 1010 -31 1019 -39 q 989 -22 1000 -22 q 891 -18 942 -22 q 794 1 840 -14 q 707 44 747 17 q 640 117 667 71 q 613 238 608 171 q 657 364 618 304 q 806 485 708 446 q 875 471 838 471 q 1006 514 942 471 q 1007 515 1007 514 q 1008 515 1007 515 l 1013 519 l 1013 521 l 1015 524 q 1018 529 1018 529 l 1018 532 q 1019 535 1018 532 l 1019 543 q 1019 544 1019 544 q 1018 546 1018 544 l 1018 549 q 1017 551 1017 550 q 1014 556 1015 553 l 1014 557 q 1013 558 1013 557 q 1011 558 1013 558 q 1010 560 1011 560 q 1010 561 1010 560 q 1008 562 1008 561 q 1007 563 1008 563 q 1004 564 1007 564 q 1000 567 1004 565 q 997 568 999 567 l 992 568 q 967 570 979 569 q 943 571 954 571 q 810 550 872 571 q 760 605 778 569 q 743 683 743 640 q 744 700 743 683 q 751 740 746 717 q 769 791 757 764 q 805 842 782 818 q 863 881 828 865 q 949 896 899 896 q 1014 872 996 896 q 1032 824 1032 849 q 1020 780 1032 799 q 990 749 1008 761 q 949 731 972 736 q 904 725 926 725 q 883 717 892 725 q 875 696 875 708 q 883 674 875 683 q 904 665 892 665 q 972 676 939 665 q 1033 706 1006 686 q 1076 756 1060 726 q 1093 824 1093 786 q 1084 873 1093 849 q 1056 916 1075 897 q 1011 946 1038 935 q 949 957 985 957 q 840 936 889 957 q 757 878 792 915 q 703 792 722 842 q 683 683 683 742 q 700 594 683 636 q 746 524 717 553 q 625 424 675 486 q 605 510 621 468 q 561 588 589 551 q 538 600 553 600 q 519 593 529 600 q 508 574 510 586 q 514 551 507 561 q 552 477 539 519 q 567 388 565 435 q 559 292 569 342 q 526 197 549 243 q 439 87 490 126 q 329 47 388 47 q 218 76 264 47 q 142 151 172 106 q 95 249 113 196 q 70 350 78 301 q 60 435 63 399 q 58 483 58 472 q 60 523 58 488 q 70 609 61 558 q 98 717 79 660 q 151 823 117 774 q 238 904 185 872 q 365 936 290 936 q 440 915 406 936 q 497 853 474 893 q 525 767 521 813 q 511 690 529 722 q 492 663 504 678 q 460 633 479 647 q 412 610 440 619 q 344 601 383 601 q 323 593 332 601 q 314 572 314 585 q 323 551 314 560 q 344 542 332 542 q 475 572 418 542 q 564 661 532 603 q 585 767 589 707 q 549 883 581 828 q 469 967 517 938 q 365 996 422 996 q 196 947 265 996 q 83 824 126 899 q 19 658 39 749 q -1 483 -1 568 "},"":{"ha":674,"x_min":-1,"x_max":768,"o":"m 747 368 q 736 371 739 371 q 708 351 715 371 q 656 247 688 299 q 585 153 624 194 q 505 85 547 111 q 421 60 463 60 q 365 69 392 60 q 322 114 338 79 q 398 146 363 122 q 459 203 433 169 q 500 278 485 238 q 515 358 515 318 q 497 422 515 399 q 438 454 476 454 q 353 426 390 454 q 290 353 315 397 q 244 426 274 397 q 172 454 215 454 q 101 431 133 454 q 47 371 69 408 q 11 286 24 333 q -1 192 -1 239 q 38 53 -1 106 q 144 0 78 0 q 218 20 185 0 q 274 76 251 40 q 340 15 299 31 q 421 0 381 0 q 533 33 479 0 q 631 115 586 65 q 710 223 676 165 q 764 331 744 281 q 763 353 768 342 q 747 368 758 364 m 250 192 q 240 147 247 169 q 221 104 233 124 q 190 72 208 85 q 144 60 171 60 q 81 95 104 60 q 58 192 58 131 q 66 256 58 224 q 86 317 74 289 q 107 267 90 289 q 147 228 124 244 q 197 204 169 213 q 250 196 224 196 l 250 192 m 251 256 q 194 268 221 256 q 153 308 168 281 q 144 348 142 326 q 183 393 146 369 q 229 345 211 386 q 251 256 247 304 m 310 192 q 319 264 310 228 q 346 329 329 300 q 386 376 363 358 q 438 394 410 394 q 449 389 443 394 q 456 358 456 378 q 446 307 456 336 q 418 250 436 278 q 373 201 400 222 q 310 172 346 179 l 310 192 "},"":{"ha":642,"x_min":-4,"x_max":571,"o":"m 208 426 q 110 387 151 415 q 43 319 69 358 q 6 235 17 281 q 0 146 -4 190 q 21 65 4 104 q 67 -6 38 25 q 141 -56 97 -37 q 243 -75 185 -75 q 397 -49 335 -75 q 498 17 460 -24 q 553 107 536 57 q 571 206 571 157 q 549 312 571 267 q 494 391 528 357 q 419 451 461 425 q 335 500 376 478 q 258 544 294 522 q 193 594 221 567 q 149 655 165 621 q 132 735 132 689 q 189 876 132 826 q 349 926 246 926 q 455 890 414 926 q 496 786 496 853 q 488 738 496 763 q 465 695 481 714 q 426 665 450 676 q 369 653 403 653 q 315 672 336 653 q 293 726 293 692 q 296 748 293 736 q 306 770 299 760 q 326 788 314 781 q 356 794 338 794 q 377 803 368 794 q 386 825 386 813 q 377 846 386 838 q 356 854 368 854 q 302 843 325 854 q 264 814 279 832 q 241 773 249 796 q 233 726 233 750 q 267 635 233 675 q 305 606 281 619 q 369 593 329 593 q 450 610 415 593 q 508 653 485 626 q 544 715 532 681 q 556 786 556 750 q 540 868 556 831 q 496 932 524 906 q 431 973 468 958 q 349 988 393 988 q 235 969 286 988 q 147 918 183 951 q 92 838 111 885 q 72 735 72 792 q 93 631 72 675 q 147 554 114 588 q 222 496 181 521 q 306 449 264 471 q 383 403 346 426 q 448 353 419 381 q 494 290 476 325 q 511 206 511 254 q 488 102 511 144 q 426 34 464 60 q 340 -3 388 8 q 243 -15 292 -15 q 163 0 197 -15 q 108 40 129 15 q 74 93 86 64 q 60 151 63 122 q 64 219 57 185 q 90 284 71 254 q 142 337 110 314 q 219 368 174 360 q 239 381 232 371 q 243 403 246 392 q 231 422 240 418 q 208 426 221 426 m 201 1157 q 192 1138 192 1150 q 199 1115 192 1125 l 265 1040 l 267 1040 q 271 1036 267 1040 q 274 1035 274 1036 l 276 1035 q 278 1034 278 1035 q 279 1033 278 1033 l 290 1033 q 293 1035 292 1033 l 296 1035 q 299 1036 297 1036 q 301 1038 300 1038 l 304 1040 q 306 1042 306 1040 l 371 1115 q 378 1138 379 1125 q 368 1157 378 1150 q 349 1165 360 1165 q 326 1156 336 1165 l 285 1108 l 244 1156 q 222 1165 235 1165 q 201 1157 210 1165 "},"":{"ha":469,"x_min":-25,"x_max":564,"o":"m 89 164 q 2 115 29 151 q -22 44 -25 79 q 3 -13 -19 10 q 63 -40 26 -36 l 83 -40 q 194 -12 139 -40 q 262 53 239 10 q 279 146 285 97 q 376 176 329 160 q 459 213 422 193 q 522 257 496 233 q 560 308 549 281 q 559 331 564 319 q 543 346 554 342 q 532 349 535 349 q 504 329 511 349 q 486 303 500 317 q 444 273 472 289 q 372 240 415 257 q 263 204 328 222 q 251 232 257 218 q 238 260 244 246 q 222 294 231 276 q 208 329 214 313 q 199 360 201 346 q 200 382 196 374 q 213 391 203 389 q 231 394 224 393 q 235 396 233 394 q 244 394 238 394 q 261 401 254 394 q 272 422 271 410 q 264 443 272 435 q 257 451 264 444 q 238 466 250 458 q 210 480 226 474 q 174 486 193 486 q 158 485 164 486 q 35 351 82 472 q 35 329 31 340 q 51 313 40 318 q 63 311 56 311 q 90 329 83 311 q 156 421 121 404 q 147 410 153 418 q 138 372 138 393 q 145 329 139 351 q 162 283 151 307 q 183 233 172 258 q 194 211 189 222 q 204 189 200 200 q 149 176 178 182 q 89 164 121 171 m 38 47 q 51 81 36 64 q 100 106 67 99 q 221 131 161 117 q 207 77 221 99 q 171 43 193 56 q 122 25 149 31 q 68 19 94 19 q 38 47 40 24 m 93 621 q 83 600 83 613 q 90 579 82 588 l 154 507 q 156 504 156 506 l 157 504 l 157 503 q 160 501 158 503 q 163 500 161 500 l 168 497 l 171 497 q 172 497 172 497 q 174 496 172 496 l 179 496 q 182 497 181 496 l 185 497 l 190 500 q 193 501 192 500 q 196 503 193 501 l 196 504 q 199 507 199 506 l 263 579 q 270 600 271 588 q 260 621 269 613 q 240 628 253 628 q 217 618 226 628 l 176 571 l 136 618 q 113 628 126 628 q 93 621 100 628 "},"":{"ha":665,"x_min":-1,"x_max":594,"o":"m 561 928 q 551 947 560 939 q 529 954 542 956 q 510 944 518 953 q 501 924 501 936 q 496 734 501 835 q 479 534 490 633 q 450 344 468 435 q 406 185 432 254 q 347 74 381 115 q 272 33 314 33 q 200 66 233 33 q 143 157 167 99 q 106 296 119 215 q 92 471 92 376 l 92 497 q 149 553 125 517 q 190 633 174 589 q 213 726 206 678 q 221 815 221 774 q 217 875 221 847 q 203 922 213 903 q 166 971 188 961 q 129 981 144 981 q 71 931 92 981 q 40 768 50 882 q 33 649 35 710 q 32 539 32 589 q 8 532 18 539 q -1 510 -1 525 q 8 487 -1 494 q 32 479 18 479 l 32 471 q 44 298 32 378 q 80 156 57 218 q 135 51 103 93 q 207 -11 167 8 q 115 -67 151 -28 q 68 -150 79 -103 q 75 -239 57 -197 q 151 -317 97 -289 q 285 -344 206 -344 q 449 -267 379 -344 q 520 -140 492 -217 q 565 27 549 -64 q 588 218 581 118 q 594 416 594 318 q 590 603 594 514 q 578 763 585 693 q 567 876 572 832 q 561 928 563 921 m 132 921 q 147 903 142 918 q 156 872 153 889 q 160 839 160 856 q 161 815 161 822 q 142 681 161 747 q 93 576 124 615 q 99 739 94 675 q 108 841 103 803 q 120 897 114 879 q 132 921 126 915 m 403 -228 q 285 -285 353 -285 q 185 -267 225 -285 q 131 -215 144 -249 q 127 -161 119 -190 q 158 -108 135 -132 q 290 -58 207 -58 q 413 -83 349 -58 q 424 -86 421 -86 q 451 -67 444 -86 q 451 -44 456 -56 q 435 -28 446 -33 q 347 -4 386 -10 q 416 70 386 21 q 469 184 446 119 q 508 324 492 249 q 533 475 524 399 q 533 369 533 429 q 528 243 532 308 q 517 110 525 178 q 495 -21 510 42 q 458 -137 481 -83 q 403 -228 436 -190 m 346 1054 q 374 1067 363 1054 q 385 1099 385 1079 q 374 1131 385 1118 q 346 1144 363 1144 q 319 1131 331 1144 q 307 1099 307 1118 q 319 1067 307 1079 q 346 1054 331 1054 m 246 1054 q 274 1067 263 1054 q 285 1099 285 1079 q 274 1131 285 1118 q 246 1144 263 1144 q 219 1131 231 1144 q 207 1099 207 1118 q 219 1067 207 1079 q 246 1054 231 1054 "},"":{"ha":447,"x_min":-28,"x_max":540,"o":"m -8 78 q -25 49 -28 71 q -4 22 -22 29 q 13 18 -3 22 q 51 10 28 14 q 103 2 74 6 q 167 -1 133 -1 q 265 10 215 -1 q 353 51 314 21 q 410 109 382 75 q 461 181 438 143 q 504 259 485 219 q 536 332 524 299 q 535 354 540 343 q 519 371 531 365 q 510 372 517 372 q 481 353 488 372 q 449 283 468 319 q 409 212 431 246 q 364 148 388 178 q 315 99 340 118 q 249 67 288 75 q 171 58 211 58 q 128 60 149 58 q 88 65 107 63 q 158 119 119 86 q 234 196 197 151 q 300 296 271 240 q 342 418 329 351 q 332 446 346 435 q 311 454 324 454 q 303 453 306 454 q 244 438 282 446 q 165 429 206 429 q 118 434 140 429 q 81 451 96 439 q 61 458 71 458 q 44 453 56 458 q 32 419 26 442 q 36 394 33 419 q 26 328 39 368 q 29 305 24 317 q 46 290 35 293 q 56 289 50 289 q 83 310 79 289 q 96 379 96 347 q 131 372 114 374 q 168 371 149 371 q 223 374 196 371 q 271 382 250 378 q 201 251 247 307 q 109 156 156 194 q 28 98 63 118 q -8 78 -7 78 m 81 621 q 70 600 71 613 q 78 579 69 588 l 144 503 q 146 502 146 503 q 147 501 146 501 q 150 500 147 500 q 153 499 150 499 l 154 497 l 158 497 q 161 496 158 497 l 167 496 q 169 497 167 496 l 172 497 q 175 499 172 497 q 176 499 175 499 q 179 501 176 499 q 183 504 181 501 l 249 579 q 256 600 257 588 q 246 621 256 613 q 226 628 239 628 q 204 618 213 628 l 164 571 l 122 618 q 100 628 114 628 q 81 621 88 628 "},"":{"ha":599,"x_min":68,"x_max":528,"o":"m 503 486 l 93 486 q 75 477 82 486 q 68 457 68 468 q 75 435 68 444 q 93 426 82 426 l 503 426 q 521 435 514 426 q 528 457 528 444 q 521 477 528 468 q 503 486 514 486 "},"":{"ha":710,"x_min":68,"x_max":639,"o":"m 608 486 l 99 486 q 77 477 86 486 q 68 457 68 468 q 77 435 68 444 q 99 426 86 426 l 608 426 q 630 435 621 426 q 639 457 639 444 q 630 477 639 468 q 608 486 621 486 "},"":{"ha":217,"x_min":68,"x_max":146,"o":"m 119 936 q 122 953 122 946 q 115 960 121 960 q 88 945 97 960 q 72 915 78 931 q 69 907 72 913 q 68 894 68 903 q 80 862 68 875 q 107 849 92 849 q 134 862 122 849 q 146 894 146 875 q 119 936 146 926 "},"":{"ha":217,"x_min":68,"x_max":146,"o":"m 107 960 q 80 947 92 960 q 68 914 68 933 q 94 872 68 882 q 92 856 92 863 q 97 849 93 849 q 126 863 117 849 q 140 893 136 878 l 144 901 q 145 908 144 904 q 146 914 146 911 q 134 947 146 933 q 107 960 122 960 "},"":{"ha":217,"x_min":68,"x_max":146,"o":"m 107 44 q 80 32 92 44 q 68 0 68 19 q 94 -42 68 -32 q 92 -58 92 -51 q 97 -65 93 -65 q 126 -51 117 -65 q 140 -21 136 -36 l 144 -12 q 145 -6 144 -10 q 146 0 146 -3 q 134 32 146 19 q 107 44 122 44 "},"":{"ha":308,"x_min":68,"x_max":238,"o":"m 213 936 q 214 953 214 946 q 208 960 214 960 q 179 945 189 960 q 165 915 169 931 q 163 907 163 910 q 160 894 160 899 q 172 862 160 875 q 199 849 183 849 q 226 862 215 849 q 238 894 238 875 q 231 921 238 910 q 213 936 224 932 m 119 936 q 122 953 122 946 q 115 960 121 960 q 88 945 97 960 q 72 915 78 931 q 69 907 72 913 q 68 894 68 903 q 80 862 68 875 q 107 849 92 849 q 134 862 122 849 q 146 894 146 875 q 119 936 146 926 "},"":{"ha":308,"x_min":68,"x_max":238,"o":"m 107 960 q 80 947 92 960 q 68 914 68 933 q 94 872 68 882 q 92 856 92 863 q 97 849 93 849 q 126 863 117 849 q 140 893 136 878 l 144 901 q 145 908 144 904 q 146 914 146 911 q 134 947 146 933 q 107 960 122 960 m 199 960 q 172 947 183 960 q 160 914 160 933 q 186 872 160 882 q 184 856 183 863 q 190 849 185 849 q 219 863 210 849 q 233 893 229 878 q 236 901 236 899 q 238 914 238 906 q 226 947 238 933 q 199 960 215 960 "},"":{"ha":308,"x_min":68,"x_max":238,"o":"m 107 44 q 80 32 92 44 q 68 0 68 19 q 94 -42 68 -32 q 92 -58 92 -51 q 97 -65 93 -65 q 126 -51 117 -65 q 140 -21 136 -36 l 144 -12 q 145 -6 144 -10 q 146 0 146 -3 q 134 32 146 19 q 107 44 122 44 m 199 44 q 172 32 183 44 q 160 0 160 19 q 186 -42 160 -32 q 184 -58 183 -51 q 190 -65 185 -65 q 219 -51 210 -65 q 233 -21 229 -36 q 236 -12 236 -15 q 238 0 238 -8 q 226 32 238 19 q 199 44 215 44 "},"":{"ha":465,"x_min":68,"x_max":394,"o":"m 68 704 q 77 683 68 692 q 99 674 86 674 l 201 674 l 201 29 q 210 8 201 17 q 231 -1 218 -1 q 252 8 243 -1 q 261 29 261 17 l 261 674 l 364 674 q 385 683 376 674 q 394 704 394 692 q 385 726 394 717 q 364 735 376 735 l 261 735 l 261 889 q 252 910 261 901 q 231 918 243 918 q 210 910 218 918 q 201 889 201 901 l 201 735 l 99 735 q 77 726 86 735 q 68 704 68 717 "},"":{"ha":268,"x_min":68,"x_max":197,"o":"m 132 382 q 178 403 160 382 q 197 457 197 425 q 178 509 197 488 q 132 531 160 531 q 87 509 106 531 q 68 457 68 488 q 87 403 68 425 q 132 382 106 382 "},"":{"ha":399,"x_min":68,"x_max":328,"o":"m 107 -44 q 134 -32 122 -44 q 146 0 146 -19 q 134 32 146 19 q 107 44 122 44 q 80 32 92 44 q 68 0 68 19 q 80 -32 68 -19 q 107 -44 92 -44 m 197 -44 q 225 -32 214 -44 q 236 0 236 -19 q 225 32 236 19 q 197 44 214 44 q 171 32 182 44 q 160 0 160 19 q 171 -32 160 -19 q 197 -44 182 -44 m 289 -44 q 316 -32 304 -44 q 328 0 328 -19 q 316 32 328 19 q 289 44 304 44 q 262 32 274 44 q 250 0 250 19 q 262 -32 250 -19 q 289 -44 274 -44 "},"":{"ha":701,"x_min":68,"x_max":631,"o":"m 68 533 q 77 512 68 521 q 99 503 86 503 l 190 503 q 201 375 189 440 l 99 375 q 77 366 86 375 q 68 344 68 357 q 77 323 68 332 q 99 314 86 314 l 215 314 q 265 189 233 250 q 342 79 296 128 q 447 1 388 31 q 578 -29 506 -29 q 599 -21 590 -29 q 608 0 608 -12 q 599 22 608 13 q 578 31 590 31 q 470 56 518 31 q 385 121 422 81 q 321 212 347 161 q 278 314 294 263 l 442 314 q 463 323 454 314 q 472 344 472 332 q 463 366 472 357 q 442 375 454 375 l 263 375 q 252 439 256 407 q 249 503 249 471 l 442 503 q 463 512 454 503 q 472 533 472 521 q 463 554 472 546 q 442 563 454 563 l 253 563 q 286 699 261 636 q 355 806 311 761 q 460 875 399 850 q 601 900 522 900 q 622 908 614 900 q 631 929 631 917 q 622 951 631 942 q 601 960 614 960 q 436 930 508 960 q 313 847 364 900 q 231 722 261 794 q 193 563 201 649 l 99 563 q 77 554 86 563 q 68 533 68 546 "},"":{"ha":668,"x_min":68,"x_max":597,"o":"m 568 486 l 97 486 q 76 477 85 486 q 68 457 68 468 q 76 435 68 444 q 97 426 85 426 l 568 426 q 589 435 581 426 q 597 457 597 444 q 589 477 597 468 q 568 486 581 486 "},"":{"ha":651,"x_min":-8,"x_max":538,"o":"m 476 610 q 457 599 465 608 q 449 579 449 590 q 447 519 449 565 q 438 413 446 474 q 415 285 431 353 q 373 163 400 218 q 306 70 346 107 q 206 33 265 33 q 108 110 142 33 q 76 277 79 176 q 94 484 74 378 q 153 687 114 590 q 246 843 192 783 q 367 908 303 908 q 404 903 388 908 q 438 857 432 893 q 439 782 444 821 q 415 701 432 742 q 374 627 399 660 q 322 574 350 594 q 263 553 293 553 q 242 544 250 553 q 233 524 233 536 q 242 502 233 511 q 263 493 250 493 q 346 518 307 493 q 416 583 385 543 q 468 673 447 622 q 497 774 489 724 q 489 895 508 846 q 422 960 469 944 q 394 967 407 964 q 365 969 381 969 q 201 883 276 969 q 130 778 163 840 q 73 643 97 715 q 35 493 49 571 q 17 341 21 415 q 22 201 14 267 q 53 85 31 135 q 93 22 71 44 q 139 -11 115 0 q 49 -67 85 -28 q 2 -150 13 -103 q 10 -239 -8 -197 q 85 -317 31 -289 q 218 -344 139 -344 q 415 -254 338 -344 q 490 -115 464 -197 q 526 59 515 -32 q 536 241 538 150 q 529 406 535 332 q 517 530 524 481 q 508 585 510 579 q 497 603 506 596 q 476 610 488 611 m 369 -215 q 218 -285 311 -285 q 119 -267 158 -285 q 65 -215 79 -249 q 61 -161 54 -190 q 92 -108 68 -132 q 224 -58 140 -58 q 347 -83 281 -58 q 358 -86 356 -86 q 385 -67 378 -86 q 385 -44 390 -56 q 368 -28 379 -33 q 296 -7 333 -14 q 360 40 332 10 q 411 107 389 69 q 449 188 433 144 q 475 276 464 231 q 473 140 476 210 q 458 5 469 71 q 426 -118 447 -61 q 369 -215 404 -175 "},"":{"ha":390,"x_min":-1,"x_max":343,"o":"m 246 454 q 144 411 192 454 q 63 301 97 368 q 65 372 64 343 q 64 410 65 401 q 56 431 64 422 q 35 439 47 439 q 13 430 22 439 q 4 408 4 421 q 4 385 4 403 q 3 343 4 368 q 2 288 3 318 q 1 225 1 257 q 1 160 1 192 q -1 102 0 128 q -1 59 -1 76 q -1 36 -1 42 q 8 15 -1 24 q 29 7 17 7 q 53 19 47 7 q 58 46 58 31 q 61 58 61 51 q 78 177 61 117 q 121 285 94 238 q 181 364 147 333 q 246 394 214 394 q 279 381 275 394 q 274 338 286 367 q 239 288 263 310 q 203 268 219 268 q 194 269 197 268 q 183 272 186 272 q 156 254 165 272 q 154 232 150 243 q 169 215 158 221 q 201 207 185 207 q 279 243 240 207 q 309 278 296 258 q 331 319 322 297 q 341 362 339 340 q 335 403 343 383 q 310 436 329 418 q 246 454 290 454 "},"":{"ha":1921,"x_min":29,"x_max":1996,"o":"m 39 319 q 191 206 107 260 q 367 113 275 153 q 556 48 460 72 q 743 24 651 24 q 884 40 817 24 q 1011 83 951 56 q 1279 24 1142 24 q 1468 47 1372 24 q 1656 111 1564 71 q 1833 206 1749 151 q 1986 319 1918 260 q 1996 340 1996 328 q 1988 363 1996 353 q 1965 371 1979 371 q 1944 363 1953 371 q 1924 344 1944 363 q 1864 299 1903 326 q 1771 238 1825 271 q 1649 174 1717 204 q 1503 119 1582 143 q 1336 86 1424 96 q 1309 84 1322 85 q 1282 83 1296 83 q 1176 93 1228 83 q 1081 119 1125 103 q 1219 235 1165 171 q 1279 360 1272 300 q 1280 377 1279 365 q 1278 404 1281 389 q 1269 435 1275 419 q 1250 465 1263 451 q 1160 501 1218 501 q 1111 490 1133 501 q 1070 463 1089 479 q 1038 425 1051 446 q 1013 385 1024 404 q 988 425 1003 404 q 955 463 974 446 q 913 490 936 479 q 864 501 890 501 q 774 465 807 501 q 755 435 761 451 q 747 404 749 419 q 745 377 744 389 q 746 360 746 365 q 803 238 753 301 q 935 124 854 175 l 943 119 q 847 93 899 103 q 742 83 796 83 q 715 84 728 83 q 688 86 701 85 q 522 119 600 96 q 376 174 443 143 q 253 238 308 204 q 160 299 199 271 q 101 344 122 326 q 79 363 81 363 q 58 371 71 371 q 38 363 46 371 q 29 340 29 353 q 39 319 29 328 m 806 367 q 806 397 803 381 q 818 425 808 414 q 864 442 833 442 q 905 426 885 442 q 940 388 925 410 q 967 342 956 365 q 983 307 979 319 q 1013 288 990 285 q 1042 307 1035 285 q 1057 342 1046 319 q 1084 388 1068 365 q 1119 426 1100 410 q 1160 442 1139 442 q 1206 425 1192 442 q 1219 397 1217 414 q 1219 367 1222 381 q 1201 313 1217 342 q 1158 256 1185 285 q 1094 199 1131 226 q 1013 149 1057 172 q 930 199 967 172 q 866 256 893 226 q 824 313 839 285 q 806 367 808 342 "},"":{"ha":1911,"x_min":28,"x_max":2001,"o":"m 33 353 q 33 331 28 342 q 49 314 38 319 q 61 311 57 311 q 88 329 81 311 q 116 382 101 363 q 144 412 131 401 q 172 425 158 422 q 194 428 185 428 q 247 416 222 428 q 294 383 271 404 q 340 334 317 363 q 389 272 364 306 q 465 178 424 226 q 558 91 506 131 q 678 26 611 51 q 833 0 746 0 q 925 14 879 0 q 1015 51 971 28 q 1104 14 1058 28 q 1197 0 1150 0 q 1352 26 1285 0 q 1472 91 1419 51 q 1565 178 1524 131 q 1642 272 1607 226 q 1690 334 1667 306 q 1735 383 1713 363 q 1783 416 1758 404 q 1836 428 1808 428 q 1860 425 1847 428 q 1885 412 1872 422 q 1913 382 1899 401 q 1942 329 1928 363 q 1968 311 1951 311 q 1981 314 1972 311 q 1997 331 1992 319 q 1997 353 2001 342 q 1836 488 1939 488 q 1765 473 1797 488 q 1703 433 1732 458 q 1647 376 1674 408 q 1594 310 1621 344 q 1524 221 1561 265 q 1439 140 1486 176 q 1333 82 1392 104 q 1197 60 1274 60 q 1135 67 1165 60 q 1074 89 1104 75 q 1153 156 1117 119 q 1217 228 1189 192 q 1261 299 1244 265 q 1281 360 1278 333 q 1281 377 1281 365 q 1279 404 1282 389 q 1270 435 1276 419 q 1251 465 1264 451 q 1161 501 1219 501 q 1113 491 1135 501 q 1072 464 1090 481 q 1040 427 1054 447 q 1015 388 1026 407 q 990 427 1004 407 q 957 464 975 447 q 917 491 939 481 q 868 501 894 501 q 778 465 810 501 q 759 435 765 451 q 751 404 753 419 q 749 377 749 389 q 750 360 749 365 q 769 299 753 333 q 814 228 786 265 q 878 156 842 192 q 957 89 914 119 q 896 67 926 75 q 833 60 865 60 q 698 82 757 60 q 592 140 639 104 q 508 221 546 176 q 436 310 469 265 q 383 376 410 344 q 328 433 357 408 q 266 473 299 458 q 194 488 233 488 q 33 353 89 488 m 808 367 q 810 397 807 381 q 822 425 813 414 q 868 442 838 442 q 908 426 889 442 q 944 388 928 410 q 971 342 960 365 q 988 306 982 319 q 988 304 988 304 q 989 303 989 304 q 990 301 989 301 q 990 300 990 301 q 992 297 990 300 q 993 297 993 297 q 994 296 993 296 q 995 294 994 294 q 996 293 996 294 q 999 292 997 293 q 1000 292 999 292 l 1003 289 l 1007 289 q 1010 288 1007 288 l 1021 288 q 1024 289 1022 288 l 1026 289 q 1029 290 1028 290 q 1033 293 1029 292 l 1038 297 q 1040 300 1040 300 q 1042 303 1040 301 q 1043 306 1042 304 l 1043 307 q 1058 342 1047 319 q 1085 388 1069 365 q 1121 426 1101 410 q 1161 442 1140 442 q 1207 425 1193 442 q 1221 397 1218 414 q 1221 367 1224 381 q 1201 315 1218 346 q 1157 249 1185 283 q 1093 182 1129 215 q 1015 121 1057 149 q 937 182 974 149 q 872 249 900 215 q 828 315 844 283 q 808 367 811 346 "}}}
